<?xml version="1.0" encoding="utf-8"?>
<!-- Generator: Adobe Illustrator 26.1.0, SVG Export Plug-In . SVG Version: 6.00 Build 0)  -->
<svg version="1.1" id="Layer_1" xmlns="http://www.w3.org/2000/svg" xmlns:xlink="http://www.w3.org/1999/xlink" x="0px" y="0px"
	 viewBox="0 0 500 500" style="enable-background:new 0 0 500 500;" xml:space="preserve">
<style type="text/css">
	.st0{fill:#EBEBEB;}
	.st1{fill:#FAFAFA;}
	.st2{fill:#5DB87A;}
	.st3{fill:#3CBDA1;}
	.st4{opacity:0.45;fill:#5DB87A;enable-background:new    ;}
	.st5{fill:#37474F;}
	.st6{fill:#455A64;}
	.st7{opacity:0.7;fill:#FFFFFF;enable-background:new    ;}
	.st8{opacity:0.5;fill:#FFFFFF;enable-background:new    ;}
	.st9{opacity:0.2;fill:#FFFFFF;enable-background:new    ;}
	.st10{opacity:0.4;fill:#FFFFFF;enable-background:new    ;}
	.st11{fill:#F0F0F0;}
	.st12{fill:#FFBDA7;}
	.st13{fill:#FFA8A7;}
	.st14{fill:#263238;}
	.st15{fill:#1F6051;}
	.st16{opacity:0.2;fill:#1F6051;enable-background:new    ;}
	.st17{fill:#F28F8F;}
	.st18{fill:#B16668;}
	.st19{opacity:0.15;enable-background:new    ;}
	.st20{opacity:0.6;fill:#FFFFFF;enable-background:new    ;}
	.st21{fill:#E0E0E0;}
	.st22{fill:#FFFFFF;}
	.st23{opacity:0.5;enable-background:new    ;}
	.st24{opacity:0.5;}
	.st25{opacity:0.3;enable-background:new    ;}
	.st26{opacity:0.25;enable-background:new    ;}
	.st27{opacity:0.5;fill:#3CBDA1;}
	.st28{opacity:0.45;enable-background:new    ;}
	.st29{opacity:0.35;enable-background:new    ;}
	.st30{fill:#184C40;}
	.st31{opacity:0.85;fill:#FFFFFF;enable-background:new    ;}
	.st32{opacity:0.85;}
	.st33{opacity:0.3;fill:#FFFFFF;enable-background:new    ;}
</style>
<g id="freepik--Building--inject-28">
	<path id="freepik--Buildings--inject-28" class="st0" d="M463.7,196.4l-8.3,4.8v-19.7l-4.1-2.4l-8.3,4.8v3.7l-8.3,4.8v-20.5
		l-8.3-4.8l-8.3,4.8v2.1l-8.3,4.8v-25.9l-8.3-4.8l-8.3,4.8v-13.4l-8.3-4.8l-12.4,7.1v4.8l-8.3,4.8v3.9l-8.3-4.8v-16.6
		c0,0-8.1-4.5-8.3-4.5s-8.3,4.5-8.3,4.5v7.1l-8.3-4.8l-8.3,4.8v9.5l-8.3,4.8v-24.2l-4.1-2.4l-4.1,2.4v9.5l-4.1-2.4l-8.3,4.8v-7.3
		l-4.1-2.4l-8.3,4.8v12l-4.1-2.4V143l-8.3-4.8l-8.2,4.8v-4.8l-12.4-7.2l-8.3,4.8v-9.5l-8.3-4.8l-8.3,4.8v13.3l-4.1,2.4v-9.5
		l-8.3-4.8l-8.3,4.8v14.3l-12.4-7.1V130l-8.3-4.8l-8.3,4.8v14.3l-4.1-2.4l-8.2,4.8v5.8l-8.3,4.8v-8.9l-8.3-4.8l-12.4,7.1v-7.7
		l-8.3-4.8l-12.4,7.1V161l-12.4-7.2l-16.5,9.6v-7.8l-8.3-4.8l-8.3,4.8v14.3l-8.3,4.8v8.1L46.6,190v-5.2l-8.3-4.8l-11.8,6.8v120.7
		h446.8V202L463.7,196.4z"/>
</g>
<g id="freepik--Floor--inject-28">
	<path id="freepik--floor--inject-28" class="st1" d="M77.7,251.5c-95.2,54.9-95.2,144,0,199s249.5,54.9,344.7,0s95.2-144,0-199
		S172.8,196.5,77.7,251.5z"/>
</g>
<g id="freepik--Shadow--inject-28">
	<ellipse class="st0" cx="404.7" cy="277.2" rx="34.7" ry="20.5"/>
</g>
<g id="freepik--Tree--inject-28">
	<g id="freepik--tree--inject-28_00000136377768217137804990000009111693913045285545_">
		<g id="freepik--tree--inject-28">
			<path class="st2" d="M45.7,217.1c0.9-0.1,1.9,0.1,2.7,0.5c1.6,0.9,3,1.9,4.4,3.1c1.4,1.2,3.1,1.9,4.9,2.1
				c1.8,0.1,3.8-1.1,4.1-2.8c0-0.3,0.1-0.6,0.2-0.9c0.4-0.5,1-0.6,1.5-0.4c0.5,0.2,1,0.5,1.5,0.9c1.8,1.1,4.1,0.8,6.2,0.5
				c1.8-0.2,4-1,3.9-2.8c0-1.1-1-2-1.8-2.8s-1.4-2.2-0.7-3.1c0.3-0.3,0.6-0.5,1-0.6c2.2-0.7,4.8,0.2,6.7-1.1c1.3-1.1,1.8-3,1-4.6
				c-0.8-1.5-2.2-2.6-3.9-3c-1.5-0.4-3.3-0.6-3.9-2c-0.5-1.2,0.5-2.6,1.6-3.3s2.4-1.3,3.1-2.4c0.8-1.2,0.8-2.7,0.1-3.9
				c-0.7-1.2-1.9-2-3.3-2.3c-0.7,0-1.4-0.2-2-0.4c-0.7-0.3-1-1-0.7-1.7c0.2-0.4,0.6-0.6,0.8-0.9c0.4-0.7,0.1-1.6-0.6-2.1
				c-0.7-0.4-1.4-0.7-2.2-0.9c-1.6-0.5-2.4-1.4-1.9-3s2.7-1.5,3.4-3.1c0.6-1.4-1-4.4-2.3-5.3c-1.4-0.7-2.8-1.4-4.2-1.9
				c-1.4-0.7-2.7-1.8-2.8-3.4s1.1-2.9,2-4.1c0.9-1.2,1.8-3,0.9-4.3s-2.6-1.4-4-1.8c-1.8-0.6-3.2-1.9-4-3.6c-0.4-0.9-0.6-1.9-1-2.7
				c-1.4-2.6-5-3.8-7.8-3.5c-1.1,0.1-2.2,0.8-2.7,1.8c-0.5,0.5-0.8,1.1-1,1.8c-0.2,1.3,0.5,2.9-0.7,3.9c-1.8,1.5-4.6-0.5-4.5,2.8
				c0,1.4,0.2,2.8,0.6,4.1c0.5,1.4,1.5,2,0.7,3.6c-1.1,2-1.8,2-3.9,2c-1.6,0-2.9-0.1-4,1.1c-2,2.1-0.8,4,1,5.6c2,1.8,1,2.6,0.7,5
				c-0.1,1.1,0.1,1.5-0.9,2.2c-1.9,1.4-3,0.9-2.5,3.7c0.5,2.6-0.3,1.7-2.5,2.6c-2,0.9-3.3,2.9-4.8,4.3c-1,0.9-2.6,1.5-2.7,3
				c-0.2,2.8,3.4,2.2,5,2.9c2.7,1.1,1.9,4.7-0.2,6.1s-5.6,2-5.8,5.2c-0.1,2.5,1.3,3.1,3.2,3.9c1.5,0.7,1.4,0.9,1.3,2.7
				c0,3.7,1.2,4.8,4.9,4.2c1.1-0.3,2.4-0.4,3.5-0.3c1.4,0.4,0.9,0.8,1,1.9c0.1,3,3.6,2.2,5.1,0.9C41.2,219,43.4,217.3,45.7,217.1z"
				/>
			<path class="st3" d="M45.7,217.1c0.9-0.1,1.9,0.1,2.7,0.5c1.6,0.9,3,1.9,4.4,3.1c1.4,1.2,3.1,1.9,4.9,2.1
				c1.8,0.1,3.8-1.1,4.1-2.8c0-0.3,0.1-0.6,0.2-0.9c0.4-0.5,1-0.6,1.5-0.4c0.5,0.2,1,0.5,1.5,0.9c1.8,1.1,4.1,0.8,6.2,0.5
				c1.8-0.2,4-1,3.9-2.8c0-1.1-1-2-1.8-2.8s-1.4-2.2-0.7-3.1c0.3-0.3,0.6-0.5,1-0.6c2.2-0.7,4.8,0.2,6.7-1.1c1.3-1.1,1.8-3,1-4.6
				c-0.8-1.5-2.2-2.6-3.9-3c-1.5-0.4-3.3-0.6-3.9-2c-0.5-1.2,0.5-2.6,1.6-3.3s2.4-1.3,3.1-2.4c0.8-1.2,0.8-2.7,0.1-3.9
				c-0.7-1.2-1.9-2-3.3-2.3c-0.7,0-1.4-0.2-2-0.4c-0.7-0.3-1-1-0.7-1.7c0.2-0.4,0.6-0.6,0.8-0.9c0.4-0.7,0.1-1.6-0.6-2.1
				c-0.7-0.4-1.4-0.7-2.2-0.9c-1.6-0.5-2.4-1.4-1.9-3s2.7-1.5,3.4-3.1c0.6-1.4-1-4.4-2.3-5.3c-1.4-0.7-2.8-1.4-4.2-1.9
				c-1.4-0.7-2.7-1.8-2.8-3.4s1.1-2.9,2-4.1c0.9-1.2,1.8-3,0.9-4.3s-2.6-1.4-4-1.8c-1.8-0.6-3.2-1.9-4-3.6c-0.4-0.9-0.6-1.9-1-2.7
				c-1.4-2.6-5-3.8-7.8-3.5c-1.1,0.1-2.2,0.8-2.7,1.8c-0.5,0.5-0.8,1.1-1,1.8c-0.2,1.3,0.5,2.9-0.7,3.9c-1.8,1.5-4.6-0.5-4.5,2.8
				c0,1.4,0.2,2.8,0.6,4.1c0.5,1.4,1.5,2,0.7,3.6c-1.1,2-1.8,2-3.9,2c-1.6,0-2.9-0.1-4,1.1c-2,2.1-0.8,4,1,5.6c2,1.8,1,2.6,0.7,5
				c-0.1,1.1,0.1,1.5-0.9,2.2c-1.9,1.4-3,0.9-2.5,3.7c0.5,2.6-0.3,1.7-2.5,2.6c-2,0.9-3.3,2.9-4.8,4.3c-1,0.9-2.6,1.5-2.7,3
				c-0.2,2.8,3.4,2.2,5,2.9c2.7,1.1,1.9,4.7-0.2,6.1s-5.6,2-5.8,5.2c-0.1,2.5,1.3,3.1,3.2,3.9c1.5,0.7,1.4,0.9,1.3,2.7
				c0,3.7,1.2,4.8,4.9,4.2c1.1-0.3,2.4-0.4,3.5-0.3c1.4,0.4,0.9,0.8,1,1.9c0.1,3,3.6,2.2,5.1,0.9C41.2,219,43.4,217.3,45.7,217.1z"
				/>
			<path class="st4" d="M73.7,210.7c1.7-0.5,3.6-0.1,5.3-0.5c-1-0.2-2-0.4-3-0.5c-2.4-0.1-4.7,0.8-6.4,2.5c0.9,1.1,1.3,2.4,1.3,3.8
				c-4.2,1.1-8.2-4.4-12.2-2.8c0.2,2,0,4.7-2,5.1c-1.2,0.1-2.4-0.4-3-1.4c-0.7-0.9-1.2-2.1-1.9-3c-2.1-2.5-5.7-3-8.5-1.2
				c-1.1,0.8-2.4,2-3.5,1.2s-0.5-3.1-1.7-3.7c-0.8-0.4-2,0.2-2.7-0.4c-0.3-0.3-0.4-0.6-0.5-1c-0.5-2.1-0.9-4.6,0.4-6.3
				c1.2-1.5,3.7-2.5,3.4-4.4c-0.2-1.6-2.3-2.1-4-2.3s-3.7-1-3.7-2.6s2.3-2.4,2.6-4c0.1-0.7-0.1-1.4,0.2-2.1c0.5-0.9,1.8-1,2.6-1.7
				c1.4-1.2,0.3-3.6,0.7-5.4c0.3-1.3,1.3-2.3,1.7-3.6c0.7-2.6-1.6-5-4.1-6.1c-1-0.3-1.9-0.8-2.8-1.3l0-0.1c0.2,1.3,0.9,2.4,2,3.2
				c2,1.8,1,2.6,0.7,5c-0.1,1.1,0.1,1.5-0.9,2.2c-1.9,1.4-3,0.9-2.5,3.7c0.5,2.6-0.3,1.7-2.5,2.6c-2,0.9-3.3,2.9-4.8,4.3
				c-1,0.9-2.6,1.5-2.7,3c-0.2,2.8,3.4,2.2,5,2.9c2.7,1.1,1.9,4.7-0.2,6.1s-5.6,2-5.8,5.2c-0.1,2.5,1.3,3.1,3.2,3.9
				c1.5,0.7,1.4,0.9,1.3,2.7c0,3.7,1.2,4.8,4.9,4.2c1.1-0.3,2.4-0.4,3.5-0.3c1.4,0.4,0.9,0.8,1,1.9c0.1,3,3.6,2.2,5.1,0.9
				c1.7-1.5,3.8-3.2,6.2-3.4c0.9-0.1,1.9,0.1,2.7,0.5c1.6,0.9,3,1.9,4.4,3.1c1.4,1.2,3.1,1.9,4.9,2.1c1.8,0.1,3.8-1.1,4.1-2.8
				c0-0.3,0.1-0.6,0.2-0.9c0.4-0.5,1-0.6,1.5-0.4c0.5,0.2,1,0.5,1.5,0.9c1.8,1.1,4.1,0.8,6.2,0.5c1.8-0.2,4-1,3.9-2.8
				c0-1.1-1-2-1.8-2.8s-1.4-2.2-0.7-3.1C72.9,211.1,73.3,210.8,73.7,210.7z"/>
			<path class="st5" d="M40,186.4l10,19.9v-9.1l1-38.9l1.5,38.9v6.1l11-19.2l-11,23.6V268c0,0.2-0.2,0.4-0.4,0.5
				c-0.6,0.3-1.2,0.3-1.8,0c-0.2-0.1-0.3-0.3-0.4-0.5v-56.7L40,186.4z"/>
		</g>
		<g id="freepik--Bush--inject-28">
			<path id="freepik--bush--inject-28" class="st6" d="M44.2,272.7c2.9,0.5,5.4-0.3,5.9-3.4c0.4-2.5,0.4-5.1,0-7.7
				c-0.1-0.9-0.5-2-1.3-2.2c-0.8-0.1-1.5,0.3-1.8,1c-0.3,0.7-0.4,1.5-0.3,2.2c-0.5-1-1.1-2.2-2.2-2.2c-1.1,0.1-1.8,1-1.8,2.1
				c0.1,1,0.4,2,0.9,2.9c-0.8-0.2-1.6-0.1-2.2,0.4c-0.6,0.7-0.7,1.8-0.1,2.5c0.6,0.7,1.4,1.3,2.2,1.6c-0.5-0.2-1.1,0-1.3,0.5
				c0,0,0,0.1-0.1,0.2c-0.1,0.6,0.1,1.2,0.6,1.5C43.1,272.4,43.6,272.6,44.2,272.7z"/>
			<g id="freepik--bush--inject-28_00000017509845966081205810000017056530522383838870_">
				<path id="freepik--bush--inject-28_00000131340410074959091870000011278061093783419535_" class="st3" d="M49.2,273.9
					c0,0,5.6-3.2,6.8-4c0.6-0.4,1.1-0.8,1.5-1.4c0.4-0.5,0.7-1.1,0.8-1.8c0.1-0.2,0-0.5-0.1-0.7c-0.2-0.4-0.8-0.2-1.2,0.1
					c-0.3,0.3-0.6,0.6-0.9,0.9c0.1-0.8,0.2-1.6,0.1-2.4c0-0.3-0.1-0.6-0.3-0.8c-0.3-0.2-0.7-0.2-1,0c-0.8,0.6-1.4,1.5-1.6,2.5
					c0.2-1,0.1-2-0.1-3c-0.2-1.1-1.5-1.5-1.9-0.5c-0.2,0.6-0.3,1.1-0.4,1.7c-0.1,0.8,0,1.5,0.2,2.3c-0.4-1-1-1.8-1.8-2.5
					c-0.3-0.3-0.7-0.4-1-0.4c-0.4,0.2-0.5,0.7-0.5,1.2c0.1,1,0.4,1.9,0.9,2.8c-0.7-0.5-1.5-0.8-2.3-0.9c-0.3-0.1-0.6,0-0.7,0.2
					c-0.1,0.3-0.1,0.7,0.2,1c0.5,0.7,1.1,1.3,1.9,1.7c-0.7-0.2-1.5-0.3-2.2-0.2c-0.2,0-0.4,0.1-0.6,0.2c-0.2,0.3,0,0.7,0.3,0.9
					c0.5,0.4,1,0.7,1.6,1c-0.3,0-0.7,0-1,0.2c-0.3,0.1-0.5,0.5-0.5,0.8c0.1,0.3,0.4,0.6,0.7,0.6C47.1,274,48.2,274.1,49.2,273.9z"/>
			</g>
		</g>
	</g>
</g>
<g id="freepik--Streetlight--inject-28">
	<g id="freepik--city-lights--inject-28">
		<path d="M27,306.6c0.6,0,1-0.4,1-1V109.7c0.2-3.9,2.3-7.4,5.5-9.5l16-9.2c1.3-0.7,2.4-0.9,3.2-0.4c0.9,0.7,1.4,1.9,1.2,3v19.1
			c0,0.6,0.5,1,1,1s1-0.5,1-1V93.6c0-2.2-0.8-3.9-2.3-4.8s-3.3-0.7-5.3,0.4l-15.9,9.2c-3.9,2.5-6.3,6.7-6.5,11.3v195.8
			C26,306.1,26.4,306.6,27,306.6C27,306.6,27,306.6,27,306.6z"/>
		<path class="st6" d="M51.5,108.2c2.4-1.2,5.2-1.2,7.5,0c0.9,0.4,1.5,1.2,1.5,2.2v1.5c-0.1,0.9-0.7,1.8-1.5,2.2
			c-2.4,1.2-5.2,1.2-7.5,0c-0.9-0.4-1.5-1.2-1.6-2.2v-1.5C50,109.4,50.6,108.6,51.5,108.2z"/>
		<path class="st5" d="M51.5,109.7c-2.1,1.2-2.1,3.1,0,4.3c2.4,1.2,5.2,1.2,7.5,0c2.1-1.2,2.1-3.1,0-4.3
			C56.6,108.5,53.9,108.5,51.5,109.7z"/>
		<path class="st2" d="M50.1,124.5h10.3v-12c-0.1-0.9-0.7-1.7-1.5-2.1c-2.3-1.2-5-1.2-7.3,0c-0.9,0.4-1.4,1.2-1.5,2.1l0,0
			L50.1,124.5z"/>
		<path class="st7" d="M50.1,124.5h10.3v-12c-0.1-0.9-0.7-1.7-1.5-2.1c-2.3-1.2-5-1.2-7.3,0c-0.9,0.4-1.4,1.2-1.5,2.1l0,0
			L50.1,124.5z"/>
		<path class="st2" d="M58.9,126.6c2-1.2,2-3,0-4.2c-2.3-1.2-5-1.2-7.3,0c-2,1.2-2,3.1,0,4.2C53.9,127.8,56.6,127.8,58.9,126.6z"/>
		<path class="st8" d="M58.9,126.6c2-1.2,2-3,0-4.2c-2.3-1.2-5-1.2-7.3,0c-2,1.2-2,3.1,0,4.2C53.9,127.8,56.6,127.8,58.9,126.6z"/>
		<path class="st9" d="M52.1,114.2c0-1.7,1.4-3.1,3.1-3.1s3.1,1.4,3.1,3.1s-1.4,3.1-3.1,3.1S52.1,115.9,52.1,114.2L52.1,114.2z"/>
		<path class="st9" d="M50.1,117.9c2,2.9,6,3.5,8.8,1.5c0.6-0.4,1.1-0.9,1.5-1.5v-5.4c-0.1-0.9-0.7-1.7-1.5-2.1
			c-2.3-1.2-5-1.2-7.3,0c-0.9,0.4-1.4,1.2-1.5,2.1L50.1,117.9z"/>
		<path class="st10" d="M53.8,114.2c0-0.8,0.6-1.4,1.4-1.4c0.8,0,1.4,0.6,1.4,1.4c0,0.8-0.6,1.4-1.4,1.4
			C54.4,115.6,53.8,115,53.8,114.2L53.8,114.2z"/>
		<path class="st6" d="M51.5,121.8c2.4-1.2,5.2-1.2,7.5,0c0.9,0.4,1.5,1.2,1.5,2.2v1.5c-0.1,1-0.7,1.8-1.5,2.2
			c-2.4,1.2-5.2,1.2-7.5,0c-0.9-0.4-1.5-1.2-1.6-2.2V124C50,123.1,50.6,122.2,51.5,121.8z"/>
		<path class="st5" d="M51.5,123.4c-2.1,1.2-2.1,3.1,0,4.3c2.4,1.2,5.2,1.2,7.5,0c2.1-1.2,2.1-3.1,0-4.3
			C56.6,122.2,53.9,122.2,51.5,123.4z"/>
	</g>
</g>
<g id="freepik--Clouds--inject-28">
	<path id="freepik--Cloud--inject-28" class="st11" d="M274.1,22.8c1.3,0.7,2.9,0.8,4.3,0.5c1.7-0.3,3.6-0.5,5,0.5
		c0.6,0.6,1.2,1.3,1.7,2c1.6,1.8,4.5,0.5,5.9,2.9c0.2,0.4,0.2,1.5,0.7,1.6s1.5-0.6,2-0.7c1.6-0.2,3.2-0.1,4.9,0.2
		c1.5,0.2,2.8,1,3.7,2.2c0.4,0.6,0.8,1.3,1.6,1.5c0.4,0.1,0.9,0,1.3-0.2c1.4-0.5,2.8-0.9,4.3-1c1.5-0.1,2.9,0.6,3.7,1.9
		c0.1,0.2,0.2,0.4,0.4,0.4s0.4-0.1,0.5-0.2c1.1-1,2.5-1.3,4-1c0.5,0.1,0.9,0.3,1.2,0.6c0.4,0.5,0.4,1.2,0.8,1.7
		c0.7,0.9,2.1,0.6,3.2,0.3c1.5-0.4,3.2-0.7,4.4,0.2c0.3,0.2,0.6,0.5,1,0.8c1,0.5,2.2,0.6,3.3,0.3c0.7-0.1,9.4,0.2,9.3,0.9
		s-2.3,0.6-2.8,0.6c-0.7,0.1-1.4,0.2-2.1,0.2c-0.7-0.1-1.5,0-2.2,0.2c-0.5,0.2-0.7,0.6-1.2,0.7c-1.2,0.3-2.4,0.2-3.5-0.2
		c-1.3-0.6-2.7-1-4.1-1.1c-0.7,0.1-1.3,0.4-1.9,0.7c-1.3,0.4-2.6,0.4-3.9,0.1c-0.7-0.2-1.9-0.7-2.7-0.5c-0.5,0.1-0.9,0.6-1.4,0.7
		c-0.6,0.2-1.2,0.4-1.9,0.5c-2.3,0.3-4.6-0.9-6.8-1.5c-2.8-0.7-4.3-0.1-6.4,1.6c-1.8,1.4-4.1,1.7-6.3,1c-0.6-0.3-1.2-0.5-1.9-0.7
		c-1.6-0.4-3.3-0.3-4.8,0.4c-0.9,0.6-1.8,1-2.8,1.4c-3.3,0.8-6.4-3-9.6-2.1c-1.4,0.4-2.5,1.5-3.8,2c-1.4,0.4-2.8,0.4-4.1-0.1
		c-1.9-0.6-3.7-1.6-5.6-1.6c-1.4,0-2.7,0.5-4.1,0.5s-2.9-0.7-3.2-2c-2.1,1.5-4.9,1.9-7.4,0.9c-0.7-0.4-1.4-0.6-2.2-0.7
		c-1.1,0-2.1,0.7-3.1,1c-2.6,0.8-5.2-1.1-7.9-1.3c-1.6,0-3.3,0.2-4.9,0.6c-1.6,0.4-3.3,0.1-4.7-0.7l5.5-1.5c2.2-0.6,4.6-1.2,6.9-0.7
		c1,0.4,2,0.5,3.1,0.4c0.6-0.2,1.3-0.5,1.8-1c2.2-1.2,4.8-1.1,6.9,0.3c1-3.3,4.5-5.2,7.8-4.2c0.3,0.1,0.6,0.2,0.9,0.3
		c0.4-1.9,1.7-3.4,3.4-4.2c1.7-0.8,3.6,0.2,3.9-1.9c0.3-1.8,1.3-3.4,2.8-4.4c1-0.7,2.1-1.1,3.3-1.5c0.8-0.2,1.7,0,2.3,0.5
		c0.4,0.4,0.7,0.9,1.1,1.4C273.7,22.5,273.9,22.7,274.1,22.8z"/>
	<path id="freepik--cloud--inject-28" class="st11" d="M187.4,54.8l0.3,0.1c1.4,0.6,3,0.1,4.5,0.1c1.5,0,2.9,0.6,4,1.5
		c1,0.8,1.7,2.1,2.8,2.8c1.2,0.6,2.6,0.9,3.9,0.6c1.4-0.2,2.7-0.1,4.1,0.1c1.4,0.3,2.5,1.4,2.8,2.8c0.5-0.6,1.2-0.9,2-0.8
		c0.7,0,1.5,0.3,2.2,0.3c1-0.1,1.9-0.4,2.8-0.7c2.4-0.6,4.9,0.3,7.3,1.1s5,1.5,7.3,0.5c-1.8,1.9-4.3,2.8-6.9,2.5
		c-2.6-0.3-5.3-1.8-7.7-0.6c-1.5,0.7-2.7,2.4-4.3,2c-0.8-0.2-1.4-0.8-2.1-0.9c-1.7-0.4-3.2,1.4-4.9,1.5s-3.2-1.7-4.9-2.3
		c-3.3-1-6.6,2.7-10.1,2.1c-1.8-0.3-3.2-1.7-5-1.9c-1.5-0.2-2.9,0.5-4.3,0.9c-2.5,0.7-3.8-0.9-6.2-0.9c-2,0-3.3,2.1-5.2,2.6
		c-2.4,0.6-4.7-1.7-7.1-2.1c-1.7-0.3-3.4,0.3-5.2,0.4c-2.1,0.2-4.1-0.4-5.9-1.4l10.4-2.1c0.7-0.1,1.3-0.3,1.9-0.6
		c0.6-0.3,1.1-0.8,1.7-1.2c1.8-1.1,4-1.2,5.8-0.3c0.1-2.7,2.3-4.9,5-4.9c0.5,0.1,1.1,0.1,1.6-0.1c0.7-0.3,1-1.2,1.4-1.8
		c1.2-1.8,4.4-2.7,6.1-1.2C186.1,53.8,186.7,54.4,187.4,54.8z"/>
</g>
<g id="freepik--Sun--inject-28">
	<circle id="freepik--sun--inject-28" class="st12" cx="70.5" cy="33" r="15.1"/>
</g>
<g id="freepik--Character--inject-28">
	<g id="freepik--character--inject-28">
		<g id="freepik--Bottom--inject-28">
			<path class="st13" d="M393.5,255c0.2-5,0.9-23,0.9-23l9.5,6c-0.8,8.9-3.2,15.7-3.8,20.7c0,0-3.4,2.6-5.2,4.4
				c-1.6,1.5-3.3,2.9-5.2,4.1c-1.4,0.9-4.4,1.2-4.9,0.3c2.4-2.1,4.7-4.3,6.8-6.7C393.4,258.5,393.4,257.5,393.5,255z"/>
			<path class="st14" d="M380.9,270.3c-0.2,0.7,0,1.5,0.5,2c1.9,1.1,4.2,1.4,6.3,0.9c2.2-0.4,4.2-1.4,5.8-2.9
				c1.1-1.1,2.7-2.8,4.1-3.2c1.1-0.3,2.1-0.8,3-1.5c0.4-0.4,0.2-2.2,0.2-2.2L380.9,270.3z"/>
			<path class="st5" d="M400.3,257.5c0.2,0.2,0.3,0.4,0.3,0.6c-0.2,0.8-0.2,1.6-0.1,2.4c0.2,1.1,0.3,2.2,0.3,3.3
				c-0.1,0.9-2.1,1.8-3.5,2.4c-1.5,0.8-2.9,1.9-4.1,3.1c-1.8,1.6-3.9,2.6-6.3,3c-3.1,0.3-5.1-0.3-5.8-1.4c-0.9-1.3-0.4-2.1,3-4.1
				c0.6-0.4,2.9-2,3.6-2.5c2.2-1.5,3.8-3.6,4.8-6.1c0.1-0.3,0.2-0.6,0.4-0.8c0.2-0.1,0.4-0.2,0.7-0.1c0.6,0,1.2,0.1,1.7,0.4
				c0.5,0.2,1.5,0.4,1.5,1c0,0.3-0.1,0.6-0.2,0.8c0,0.1-0.1,0.6,0,0.6s0.4-0.2,0.5-0.4c0.4-0.5,0.5-0.8,1-0.9s1.8-0.3,2.1-0.8
				L400.3,257.5z"/>
			<path class="st1" d="M383.5,267.2c4.5-0.1,6.1,2.5,6.4,4.2c-1,0.5-2,0.8-3.1,0.9c-3.1,0.3-5.2-0.3-6-1.4
				C380.1,269.8,380.5,268.7,383.5,267.2z"/>
			<path class="st11" d="M390.2,266.7c0.1,0,0.1,0,0.1-0.1c0.1-0.1,0.1-0.2,0-0.3c-1.1-1-2.7-1.4-4.1-1.2c-0.1,0-0.2,0.1-0.2,0.3
				c0,0.1,0.1,0.2,0.3,0.2c1.3-0.2,2.7,0.2,3.8,1.1C390.1,266.7,390.1,266.7,390.2,266.7z"/>
			<path class="st11" d="M392,265.4c0.1,0,0.1,0,0.1-0.1c0.1-0.1,0.1-0.2,0-0.3c-1.1-1-2.7-1.4-4.1-1.2c-0.1,0-0.2,0.1-0.2,0.3
				c0,0.1,0.1,0.2,0.2,0.2c0,0,0,0,0,0c1.3-0.2,2.7,0.2,3.8,1.1C391.9,265.4,391.9,265.4,392,265.4z"/>
			<path class="st11" d="M393.7,264c0,0,0.1,0,0.1-0.1c0.1-0.1,0.1-0.2,0-0.3c-1.1-1-2.7-1.4-4.1-1.2c-0.1,0-0.2,0.1-0.2,0.3
				c0,0.1,0.1,0.2,0.2,0.2c0,0,0,0,0,0c1.4-0.2,2.7,0.2,3.8,1.1C393.5,264,393.6,264,393.7,264z"/>
			<path class="st11" d="M395.3,262.5c0,0,0.1,0,0.1,0c0.1-0.1,0.1-0.2,0-0.3c-1.2-1.1-2.9-1.5-4.5-1.2c-0.1,0-0.2,0.1-0.2,0.3
				c0,0.1,0.1,0.2,0.2,0.2c0,0,0,0,0,0c1.5-0.3,3,0.1,4.1,1.1C395.2,262.5,395.2,262.6,395.3,262.5z"/>
			<path class="st13" d="M416.2,245.3l10.3-1.1c0.4,6.3-0.1,13.4,0.2,19.3c0.1,1.1,0.2,8.6,0,10.9c-0.4,3.5-4.5,3.4-4.9,1.3
				s-1.6-10.7-1.7-11.6c-0.3-3.8-1.9-10-3.4-16.7C416.7,247.1,416.2,245.6,416.2,245.3z"/>
			<path class="st14" d="M420.4,277.3c0,1.6,0.3,3.2,1,4.6c0.7,1.2,2.1,1.7,3.4,1.3c1.4-0.3,3.1-1.2,3.6-3c0.4-1.6,0.4-3.2,0.1-4.8
				L420.4,277.3z"/>
			<path class="st5" d="M426.7,262.8c0.6,0.1,0.2,2.7,0.5,5.5c0.3,2.9,1.1,4.1,1.4,6.5c0.3,2.7,0.1,4-0.9,5.6s-4.4,3.2-6,0.8
				c-1.3-2-1.3-4.1-1.2-6.8c0.1-2.3,0-4.5-0.4-6.7c-0.3-2.4-0.5-4.1,0-4.3c0,0.3,0.1,0.8,0.1,1.1s0.2,1.3,0.4,1.2c0-0.3,0-0.5,0-0.8
				c0-0.2,0-0.5,0.2-0.7c0.2-0.2,0.4-0.3,0.6-0.3c0.9-0.2,1.8-0.3,2.7-0.4c0.7-0.1,1.4,0,2.1,0.2c0.1,0,0.2,0.2,0.3,0.3
				c0,0.1,0,0.2,0,0.3c0,0.2,0,0.4,0.1,0.6c0,0.1,0.1,0.2,0.1,0.2s0.1-0.1,0.1-0.2c0-0.3,0-0.6,0-1c0-0.2,0-0.4,0-0.6
				C426.8,263.1,426.7,263,426.7,262.8z"/>
			<path class="st1" d="M428.6,276.4c0.2,1.4-0.1,2.9-0.8,4.1c-1,1.6-4.7,3.2-6.3,0.8c-0.7-1.2-1.1-2.6-1.1-4
				C421.5,275.5,427.1,274.8,428.6,276.4z"/>
			<path class="st11" d="M421.9,274.4L421.9,274.4c1.6-0.6,3.3-0.8,5-0.4c0.1,0,0.2,0,0.2-0.1c0-0.1,0-0.2-0.1-0.3c0,0,0,0,0,0
				c-1.7-0.4-3.5-0.2-5.2,0.4c-0.1,0-0.2,0.2-0.1,0.3C421.8,274.4,421.8,274.4,421.9,274.4L421.9,274.4z"/>
			<path class="st11" d="M426.8,271.9c0.1,0,0.2-0.1,0.2-0.2c0-0.1-0.1-0.2-0.1-0.2c-1.7-0.5-3.5-0.4-5.2,0.4
				c-0.1,0.1-0.1,0.2-0.1,0.3c0,0.1,0.2,0.1,0.3,0.1c0,0,0,0,0,0C423.4,271.6,425.1,271.4,426.8,271.9L426.8,271.9z"/>
			<path class="st11" d="M426.7,270c0.1,0,0.2-0.1,0.2-0.1c0-0.1,0-0.2-0.1-0.3c-1.7-0.6-3.6-0.5-5.3,0.4c-0.1,0.1-0.1,0.2-0.1,0.3
				c0,0,0,0,0,0c0.1,0.1,0.2,0.1,0.3,0.1c0,0,0,0,0,0C423.2,269.5,425,269.4,426.7,270C426.6,270,426.7,270,426.7,270z"/>
			<path class="st0" d="M426.6,267.8c0.1,0,0.2-0.1,0.2-0.1c0-0.1,0-0.2-0.1-0.3c-1.8-0.6-3.7-0.4-5.3,0.4c-0.1,0.1-0.1,0.2-0.1,0.3
				c0,0,0,0,0,0c0.1,0.1,0.2,0.1,0.3,0.1c0,0,0,0,0,0C423.1,267.4,424.9,267.3,426.6,267.8L426.6,267.8z"/>
			<path class="st5" d="M419.1,177.7c2.8,4.1,7,9.8,6.9,20.4c-0.3,16.6-0.4,27.3-0.4,27.3c0.7,1.8,1.9,3.1,1.9,11.4
				c0,6.6-0.1,22.7-0.1,22.7s-5,2-8.9,0.3c-1.5-5.4-4.1-22.6-5.2-29.9c-1.1-7.1-2.7-20.9-2.7-20.9l-4.6,15.6c0.3,3.5,0.2,7-0.4,10.5
				c-0.8,4.4-4.4,21.7-4.4,21.7s-5,1.4-8.3-1.2c0,0,1.2-27.8,1.4-33.1c0.3-8.1,0.3-21.5,1.6-32.5c0.5-4.2,2-8.5,2.7-11.3
				L419.1,177.7z"/>
			<path class="st6" d="M402,224c0.3,5,0.1,10.1-0.7,15.1c-0.6,4.1-2.1,14.4-2.7,18h0.5c0.6-3.6,2.1-13.9,2.7-18
				c0.8-5,1.1-10.1,0.7-15.1c-0.2-3.6,2.1-20.7,3.4-28.2l-0.4-0.1C404.1,203.3,401.8,220.4,402,224z"/>
			<path class="st6" d="M424,227.2c-0.1-0.3-0.2-0.6-0.3-0.9c-0.3-1.1-0.6-9.3-0.4-15.1c0.1-4.1,0.2-8.3,0.2-11.8
				c0-8.7-2-15.6-6.2-21.7h-0.5c2.6,3.8,4.7,10.4,5.6,15.1c-2-0.2-4.8-2.7-5.9-5.6c-1.2-3.1-2.8-7.8-2.9-7.9l-0.4,0.2
				c0,0,1.6,4.7,2.9,7.9c1,2.7,2,4.4,5.2,5.6c0.4,0.2,0.8,0.3,1.3,0.3c0.3,2,0.4,4.1,0.4,6.1c0,3.4-0.1,7.6-0.2,11.7
				c-0.1,6.1,0.1,14,0.5,15.2c0.1,0.3,0.2,0.6,0.3,0.9c0.6,1.8,1.3,6,1.5,14.9c0.1,4.7,0.5,16.4,0.5,19.6l0.4-0.1
				c0-3.2-0.4-14.8-0.5-19.4C425.3,233.3,424.6,229.1,424,227.2z"/>
			<path class="st6" d="M427.5,258.9c-1.6,1-7,1.5-9.1,0.7l0.6,2.6c1.4,0.5,2.9,0.6,4.4,0.5c3-0.1,4.1-1.4,4.1-1.4L427.5,258.9z"/>
			<path class="st6" d="M401.9,254.4c-1.8,0.6-7-0.3-8.9-1.6l-0.1,2.9c1.2,1,2.6,1.5,4.1,1.6c3,0.4,4.2-0.4,4.2-0.4L401.9,254.4z"/>
			<path class="st14" d="M410.6,209l-1.8-13.2c0,0-7-1-9.5-3.5c0,0,3.1,4.6,7.8,5.4l1.8,9.8l-2.9,17L410.6,209z"/>
		</g>
		<g id="freepik--Top--inject-28">
			<g id="freepik--Arm--inject-28">
				<path class="st15" d="M403.5,153.6c-2.5,0-5,0.9-7.3,4.6c-2,3.1-4.5,7.1-6.5,10.6l-11.8-2.6l-1.1,5.9c0,0,10.4,4.3,13.5,4.9
					c2.3,0.5,3,0.8,5.6-2.1s6.3-8,6.3-8L403.5,153.6z"/>
				<path class="st16" d="M403.5,153.6c-2.5,0-5,0.9-7.3,4.6c-2,3.1-4.5,7.1-6.5,10.6l-11.8-2.6l-1.1,5.9c0,0,10.4,4.3,13.5,4.9
					c2.3,0.5,3,0.8,5.6-2.1s6.3-8,6.3-8L403.5,153.6z"/>
			</g>
			<g id="freepik--Tablet--inject-28">
				<path class="st6" d="M369,161L369,161l0.5-0.6l0,0c0.2-0.1,0.4-0.2,0.6-0.1l6.8,1.2c0.6,0.1,1.2,0.6,1.5,1.2l5.7,12.3
					c0.1,0.2,0.1,0.5,0,0.7l0,0l-0.5,0.6l0,0c-0.2,0.1-0.4,0.2-0.6,0.1l-6.8-1.2c-0.6-0.1-1.2-0.6-1.5-1.2l-5.7-12.4
					C368.9,161.4,368.9,161.2,369,161z"/>
				<path class="st14" d="M377.1,162.3c0.3,0.2,0.6,0.5,0.8,0.9l5.7,12.4c0.1,0.2,0.1,0.5,0,0.6l0.5-0.5l0,0c0.1-0.2,0.1-0.5,0-0.7
					l-5.7-12.4c-0.2-0.3-0.4-0.6-0.7-0.8L377.1,162.3z"/>
				<path class="st5" d="M383.6,175.5l-5.7-12.4c-0.3-0.6-0.9-1-1.5-1.2l-6.8-1.2c-0.6-0.1-0.9,0.3-0.6,0.8l5.7,12.4
					c0.3,0.6,0.9,1,1.5,1.2l6.8,1.2C383.6,176.4,383.9,176.1,383.6,175.5z"/>
				<path class="st6" d="M378.2,165.9l-1.1-2.3c-0.1-0.1-0.2-0.2-0.3-0.2l-1.2-0.2c-0.1,0-0.2,0.1-0.1,0.1l1.1,2.3
					c0.1,0.1,0.2,0.2,0.3,0.2l1.2,0.2C378.2,166,378.2,166,378.2,165.9z"/>
				<path class="st14" d="M377.1,164.1c-0.1-0.3-0.4-0.5-0.7-0.5c-0.3,0-0.4,0.1-0.3,0.4c0.1,0.3,0.4,0.5,0.7,0.5
					C377.1,164.5,377.2,164.4,377.1,164.1z"/>
				<path class="st14" d="M377.6,165.3c-0.1-0.3-0.4-0.5-0.7-0.5c-0.3,0-0.4,0.1-0.3,0.4c0.1,0.3,0.4,0.5,0.7,0.5
					C377.6,165.7,377.8,165.5,377.6,165.3z"/>
				<path class="st13" d="M370.4,167.7c-0.7-0.7-0.6-0.8-0.4-1.2c0.3-0.7,1-1.2,1.8-1.4c0.6-0.1,1.2-0.2,1.8-0.1
					c0.4,0.1,0.2,0.9-0.6,1.3c-1.4,0.6-1.3,0.9-1.3,0.9c0.6-0.2,1.2-0.4,1.8-0.6c0.7-0.1,1.4-0.1,2.1,0c0.6,0,0.9,0.7-0.1,1.2h1.1
					c0.8,0,1.1,0.4,0.6,0.9c-0.2,0.2-0.4,0.3-0.6,0.4c0,0,0.8-0.1,0.9,0.1c0.2,0.8-0.3,1-1.8,1.8s-1.6,1.4-1.3,2.1
					c0,0-0.7-0.3-1.3-0.6c-0.5-0.2-0.9-0.5-0.8-1.1c0,0-0.9,0.2-1-0.4c-0.1-0.4-0.1-0.8,0-1.2c-0.4-0.1-0.6-0.5-0.6-0.8
					c-0.1-0.3,0-0.7,0.2-1L370.4,167.7z"/>
				<path class="st17" d="M375.4,167.7c-0.3,0-0.7,0-1,0.1c-0.3,0.1-0.6,0.3-0.9,0.5c-0.6,0.4-1.1,0.8-1.6,1.2
					c0.6-0.3,1.2-0.6,1.7-1c0.3-0.2,0.5-0.4,0.8-0.5C374.8,167.9,375.1,167.8,375.4,167.7z"/>
				<path class="st17" d="M376.5,169c-0.4,0-0.7,0-1.1,0.1c-0.3,0.1-0.7,0.3-1,0.5c-0.6,0.4-1.2,0.8-1.7,1.3
					c0.6-0.3,1.2-0.7,1.8-1.1C375.1,169.5,375.8,169.2,376.5,169z"/>
			</g>
			<path class="st3" d="M407.8,153.4c0,0,9.8,0.4,12.3,1.5c1.1,0.5,1.8,2.8,1.3,9.8c-0.2,3.4-0.4,6.5-0.3,9.4
				c0.1,2.1,0.3,4.2,0.8,6.2c-5.9,4.6-23.2,3-25.6-0.1c0,0,0.7-6.2,0.9-9.4c0,0-1.8-3-1.7-5c0.2-2.9,0.8-4,3.4-7.3
				c1.4-1.8,2.9-3.5,4.5-5.1L407.8,153.4z"/>
			<path id="freepik--Hair--inject-28" class="st5" d="M400.5,140.3c-5.2-5.8,0.9-11,8.5-11l0,0c5.6,0,10.5,4.6,10.8,9.7
				c0.4,6.6-0.4,8.4-3.5,10.9c-4.4,3.5-15.7,4-18-2C400.2,147.5,400.8,144.6,400.5,140.3z"/>
			<path class="st13" d="M414.3,152.5l0.3-5.2c1,0.5,2.1,0.2,2.8-0.6c1.5-1.6,1.7-3.4,0.8-4.5s-3-0.8-3.9,0.8
				c-1.4,0.3-1.9-1.6-0.9-3.6c0,0-2.8-1.6-2.3-4.5c-2.6-0.7-6.8-0.4-9.1-0.2c-0.7,1.1-1.9,2.8-1.7,8.6c0.1,5,1.6,6.2,3,7
				c1.1,0.5,2.3,0.7,3.5,0.6l-0.1,1.7l0,0c0,0.7-0.2,0.8-0.8,0.8l-0.9,0.1c0,0-2.3,2.8,2.2,3.3c6.7,0.8,10.3-2.6,10.3-2.6l-1.6-0.2
				C414.7,153.9,414.4,153.5,414.3,152.5z"/>
			<path class="st18" d="M408.4,145.5l-2.6,0.9c0.2,0.7,1,1.1,1.7,0.9c0,0,0,0,0.1,0C408.3,147.1,408.7,146.3,408.4,145.5z"/>
			<path class="st17" d="M408.2,146.2c-0.7,0-1.4,0.5-1.5,1.2c0.3,0.1,0.5,0.1,0.8,0c0.5-0.2,0.9-0.6,1-1.2L408.2,146.2z"/>
			<path class="st17" d="M406.3,140l-0.4,4.5l-2.5-0.7C404,142.3,405,141,406.3,140z"/>
			<path class="st14" d="M401.3,140l1.8-0.8c-0.2-0.5-0.7-0.7-1.2-0.5c0,0,0,0-0.1,0C401.3,138.9,401.1,139.5,401.3,140
				C401.3,140,401.3,140,401.3,140z"/>
			<path class="st14" d="M409.9,139.8l-1.8-0.9c0.2-0.5,0.8-0.7,1.3-0.4C409.9,138.7,410.1,139.3,409.9,139.8
				C409.9,139.8,409.9,139.8,409.9,139.8z"/>
			<path class="st14" d="M403.4,141.1c0,0.4-0.3,0.8-0.7,0.9c-0.4,0.1-0.8-0.3-0.9-0.7c0,0,0,0,0,0c0-0.5,0.3-0.9,0.7-0.9
				C402.9,140.4,403.3,140.7,403.4,141.1C403.4,141.1,403.4,141.1,403.4,141.1z"/>
			<path class="st14" d="M409.3,141.3c0,0.4-0.3,0.8-0.7,0.9c-0.4,0.1-0.8-0.3-0.9-0.7c0,0,0,0,0,0c0-0.4,0.3-0.8,0.7-0.9
				C408.9,140.5,409.3,140.8,409.3,141.3C409.3,141.2,409.3,141.2,409.3,141.3z"/>
			<path class="st17" d="M406.7,150.9c1.8-0.2,3.5-0.7,5.1-1.5c0.7-0.4,1.3-1.1,1.6-1.8c-0.1,1.1-0.6,2.1-1.5,2.7
				c-1.6,1.2-5.3,1.9-5.3,1.9L406.7,150.9z"/>
			<path class="st5" d="M401.4,132.9c-0.8,2.5,0.7,5.2,3.2,5.9c0,0,0,0,0,0c-0.6-0.9-0.7-2.1-0.5-3.1c0,0,3.1,6,9.8,4.4l-1.1-6.1
				C409.7,131.8,404.9,130.4,401.4,132.9z"/>
			<g id="freepik--arm--inject-28">
				<path class="st13" d="M413.8,187.1c0-0.2,0.2-0.2,0.3-0.2c0.3-0.1,0.6-0.1,0.9-0.2c0.5-0.1,1-0.3,1.4-0.6c0.7-0.2,1.3-0.4,2-0.6
					c0.3-0.1,0.8-0.1,1.1-0.2c0.6-0.1,0.9-0.4,1.6-1.4c0.4-0.8,0.8-1.6,1.2-2.4c1.8-0.1,4.5,1.9,4.8,3.9c0,0-0.5,0.6-1.2,1.3
					c-0.7,0.7-1.2,1.6-1.4,2.5c-0.4,1.3-1.1,2.6-2.1,3.6c-2.3-0.3-4.3-1.8-5.1-4c0.1-0.2,0.5-0.7,0-0.7h-0.5c-0.4,0-0.7,0.1-1.1,0.1
					c-0.5,0.1-0.9,0-1.3-0.2C414.1,187.8,413.7,187.6,413.8,187.1z"/>
				<path class="st13" d="M422.5,192.9c-1.7-0.2-3.3-1.2-4.3-2.5c-0.3-0.4-0.6-0.9-0.8-1.4c0.4,0.7,0.9,1.4,1.6,1.9
					c0.8,0.9,2.1,1.3,3.2,1c0.8-0.3,1.5-0.9,2-1.6C423.8,191.3,423.2,192.2,422.5,192.9z"/>
				<path class="st15" d="M418.5,154.5c3.9,0.5,4.9,0.9,6.1,2.3s1.7,2.8,4,6.6c1.3,2,3.5,5.9,5.3,9.2c1.3,2.3,0.9,3.1-1.3,6.8
					c-2,3.1-4.1,6.1-6.5,8.9c-1.1,0.1-4.3-2.4-5.2-4.1l4.6-8.1l-5.6-8.7c-1.3-1.7-2.1-3.6-2.5-5.7
					C417,159.5,417.3,155.9,418.5,154.5z"/>
				<path class="st16" d="M418.5,154.5c3.9,0.5,4.9,0.9,6.1,2.3s1.7,2.8,4,6.6c1.3,2,3.5,5.9,5.3,9.2c1.3,2.3,0.9,3.1-1.3,6.8
					c-2,3.1-4.1,6.1-6.5,8.9c-1.1,0.1-4.3-2.4-5.2-4.1l4.6-8.1l-5.6-8.7c-1.3-1.7-2.1-3.6-2.5-5.7
					C417,159.5,417.3,155.9,418.5,154.5z"/>
			</g>
		</g>
	</g>
</g>
<g id="freepik--Device--inject-28">
	<g id="freepik--Mobile--inject-28">
		<path id="freepik--shadow--inject-28" class="st19" d="M214.4,221.4L83.2,297.1c-3.3,1.9-3.3,5,0,6.9L332,447.5
			c5,2.9,13.2,2.9,18.2,0l128-73.8c3.7-2.1,3.7-5.6,0-7.8L227.9,221.4C223.7,219.3,218.7,219.3,214.4,221.4z"/>
		<g id="freepik--mobile--inject-28">
			<path class="st5" d="M229.6,190.8l250.8,144.8c6.5,3.7,6.4,8,6.4,11.8s-1.7,9.1-6.4,11.8l-130.9,75.4c-4.7,2.7-12.2,2.7-16.9,0
				L81.8,289.8c-4.7-2.7-5.7-7.2-5.7-11s1.1-9.8,5.7-12.5l130.9-75.5C217.9,187.6,224.4,187.6,229.6,190.8z"/>
			<path class="st14" d="M223.4,196L89.2,273.4l251.9,145.4v17.8c-2.9,0.1-5.9-0.6-8.5-2L81.8,289.8c-4.7-2.7-5.7-7.2-5.7-11
				s1.1-9.8,5.7-12.5l130.9-75.5c3.2-2,7-2.8,10.7-2.3V196z"/>
			<path class="st6" d="M214.4,192.1L83.2,267.7c-3.3,1.9-3.3,5,0,6.9L332,418.2c5,2.9,13.2,2.9,18.2,0l128-73.8
				c3.7-2.1,3.7-5.6,0-7.8L227.9,192.1C223.6,189.9,218.7,189.9,214.4,192.1z"/>
			<path class="st1" d="M237.1,201.1l226.5,130.8c3.7,2.1,3.7,5.6,0,7.7l-124,71.5c-4.2,2.1-9.1,2.1-13.3,0L98,279.3
				c-3-1.7-3.6-4.3-1.7-6.4l0.5-0.5c0.4-0.3,0.8-0.6,1.2-0.9l121.6-70.1l0.7-0.4C224.9,198.4,232.5,198.4,237.1,201.1z"/>
			<path class="st14" d="M146,236l16.9-9.8c1.1-0.6,2.4-0.6,3.6-0.1c0.9,0.6,0.9,1.5-0.1,2.1l-17,9.8c-1.1,0.6-2.4,0.6-3.6,0.1
				C144.9,237.5,145,236.6,146,236z"/>
			<path class="st14" d="M170.9,220.8c1.3-0.6,2.8-0.6,4.1,0c0.7,0.2,1,0.9,0.8,1.6c-0.1,0.4-0.4,0.7-0.8,0.8
				c-1.3,0.6-2.8,0.6-4.1,0c-0.7-0.2-1-0.9-0.8-1.6C170.2,221.2,170.5,220.9,170.9,220.8z"/>
			<path class="st6" d="M156.3,320.1c1.9,1.2,3.2,3.3,3.3,5.5c0.1,0.8-0.3,1.5-0.9,1.9c-0.4,0.2-1.9,1.1-2.3,1.4
				c-0.8,0.3-1.7,0.2-2.4-0.3l-20.4-11.8c-1.9-1.2-3.2-3.3-3.3-5.5c-0.1-0.7,0.3-1.5,0.9-1.9c0.4-0.3,2-1.2,2.4-1.4
				c0.8-0.3,1.7-0.2,2.4,0.3L156.3,320.1z"/>
			<path class="st5" d="M154,321.4l-20.4-11.8c-1.8-1.1-3.3-0.3-3.3,1.7c0.2,2.3,1.4,4.3,3.3,5.5l20.4,11.8c1.8,1.1,3.3,0.3,3.3-1.7
				C157.2,324.7,155.9,322.6,154,321.4z"/>
			<path class="st6" d="M120.6,299.4c1.9,1.2,3.2,3.3,3.3,5.5c0.1,0.8-0.3,1.5-0.9,1.9c-0.4,0.2-1.9,1.1-2.3,1.4
				c-0.8,0.3-1.7,0.2-2.4-0.3l-20.4-11.8c-1.9-1.2-3.2-3.3-3.3-5.5c-0.1-0.7,0.3-1.5,0.8-1.9c0.4-0.3,2-1.2,2.4-1.4
				c0.8-0.3,1.7-0.2,2.4,0.3L120.6,299.4z"/>
			<path class="st5" d="M118.2,300.8L97.8,289c-1.8-1.1-3.3-0.3-3.3,1.7c0.2,2.3,1.4,4.3,3.3,5.5l20.4,11.8c1.8,1.1,3.3,0.3,3.3-1.7
				C121.4,304,120.2,302,118.2,300.8z"/>
		</g>
	</g>
	<g id="freepik--Map--inject-28">
		<path class="st2" d="M191.2,268.8c-1.8-1-5.5-0.5-8.4,1.2s-3.8,3.8-2,4.8s5.5,0.5,8.4-1.2S193,269.8,191.2,268.8z M261.3,246.7
			l-15.3,19.6l45.5-1l15.2-19.6L261.3,246.7z M207.2,249.3l-12.4,16.1c1.1,0.3,2.1,0.9,2.7,1.9l41.6-0.9l14.2-18.1L207.2,249.3z
			 M312.5,249l-12.6,16.2l27.4-7.7L312.5,249z M333,260.8l-38,10.7l-43,55.1c14.9-4.3,26.7-5.4,38.4-2.9l46.8-60.4L333,260.8z
			 M195.5,272.9c-2,2.5-3.9,3.2-8.3,4.7l14,27l60.9-1.4l24.9-32.3L195.5,272.9z M198.1,310.7l-15.2,13l32.9,19
			c8-4.9,16.5-9,25.2-12.5l16.2-20.8L198.1,310.7z M239.8,207l-28.2,36.7l88.5-1.9L239.8,207z M342.1,266.1l-46.2,58.5l3.3,0.6
			l72.6-41.9L342.1,266.1z M178.9,279c-0.8-0.2-1.6-0.5-2.3-0.9l-40.5,18.5l41.9,24.2l15.2-13L178.9,279z M285,329
			c-18.3-3.1-41.7,2.7-65,16.1l22.4,12.9l48.5-28L285,329z M234.9,204.2c-3.7-2.1-10.7-1.6-15.4,1.1l-0.7,0.4l-68,39.3l54.6-1.2
			l30.2-39.2L234.9,204.2z M140.5,250.9l-35,20.2c-0.5,0.3-0.9,0.5-1.3,0.9c-0.2,0.1-0.3,0.3-0.5,0.5c-2.1,2-2.1,4.3,0.3,5.7
			l26.8,15.5l43.4-19.9c0.7-1.8,2.2-3.6,5.7-5.6c2.8-1.5,5.8-2.6,8.9-3l12.1-15.7L140.5,250.9z"/>
		<path class="st20" d="M191.2,268.8c-1.8-1-5.5-0.5-8.4,1.2s-3.8,3.8-2,4.8s5.5,0.5,8.4-1.2S193,269.8,191.2,268.8z M261.3,246.7
			l-15.3,19.6l45.5-1l15.2-19.6L261.3,246.7z M207.2,249.3l-12.4,16.1c1.1,0.3,2.1,0.9,2.7,1.9l41.6-0.9l14.2-18.1L207.2,249.3z
			 M312.5,249l-12.6,16.2l27.4-7.7L312.5,249z M333,260.8l-38,10.7l-43,55.1c14.9-4.3,26.7-5.4,38.4-2.9l46.8-60.4L333,260.8z
			 M195.5,272.9c-2,2.5-3.9,3.2-8.3,4.7l14,27l60.9-1.4l24.9-32.3L195.5,272.9z M198.1,310.7l-15.2,13l32.9,19
			c8-4.9,16.5-9,25.2-12.5l16.2-20.8L198.1,310.7z M239.8,207l-28.2,36.7l88.5-1.9L239.8,207z M342.1,266.1l-46.2,58.5l3.3,0.6
			l72.6-41.9L342.1,266.1z M178.9,279c-0.8-0.2-1.6-0.5-2.3-0.9l-40.5,18.5l41.9,24.2l15.2-13L178.9,279z M285,329
			c-18.3-3.1-41.7,2.7-65,16.1l22.4,12.9l48.5-28L285,329z M234.9,204.2c-3.7-2.1-10.7-1.6-15.4,1.1l-0.7,0.4l-68,39.3l54.6-1.2
			l30.2-39.2L234.9,204.2z M140.5,250.9l-35,20.2c-0.5,0.3-0.9,0.5-1.3,0.9c-0.2,0.1-0.3,0.3-0.5,0.5c-2.1,2-2.1,4.3,0.3,5.7
			l26.8,15.5l43.4-19.9c0.7-1.8,2.2-3.6,5.7-5.6c2.8-1.5,5.8-2.6,8.9-3l12.1-15.7L140.5,250.9z"/>
	</g>
	<g id="freepik--Options--inject-28">
		<path class="st6" d="M305,379.9c-0.7,0-1.5-0.2-2.1-0.5c-0.8-0.3-1.1-1.1-0.9-1.9c0.1-0.4,0.5-0.7,0.9-0.9c1.3-0.7,2.9-0.7,4.2,0
			l0,0c0.8,0.3,1.1,1.1,0.9,1.9c-0.1,0.4-0.5,0.7-0.9,0.9C306.5,379.7,305.7,379.9,305,379.9z M305,376.6c-0.6,0-1.3,0.1-1.9,0.4
			c-0.4,0.2-0.6,0.5-0.7,0.9c0.1,0.4,0.3,0.7,0.7,0.9c1.2,0.6,2.5,0.6,3.7,0c0.4-0.2,0.6-0.5,0.7-0.9c0-0.4-0.3-0.8-0.7-0.9
			C306.3,376.8,305.6,376.6,305,376.6z"/>
		<path class="st6" d="M320.3,371c-0.7,0-1.5-0.2-2.1-0.5c-0.8-0.3-1.1-1.1-0.9-1.9c0.1-0.4,0.5-0.7,0.9-0.9c1.3-0.7,2.9-0.7,4.2,0
			l0,0c0.8,0.3,1.1,1.1,0.9,1.9c-0.1,0.4-0.5,0.7-0.9,0.9C321.8,370.8,321.1,371,320.3,371z M320.3,367.8c-0.6,0-1.3,0.1-1.8,0.4
			c-0.4,0.2-0.6,0.5-0.7,0.9c0.1,0.4,0.3,0.8,0.7,0.9c1.2,0.6,2.5,0.6,3.7,0c0.4-0.2,0.6-0.5,0.7-0.9c-0.1-0.4-0.3-0.7-0.7-0.9
			C321.6,367.9,321,367.8,320.3,367.8L320.3,367.8z"/>
		<path class="st6" d="M309.1,376.8c-0.1,0-0.2,0-0.2-0.1c-0.1-0.1,0-0.3,0.1-0.4c0,0,0,0,0,0l8.6-5c0.1-0.1,0.3,0,0.4,0.1
			c0.1,0.1,0,0.3-0.1,0.4l0,0l-8.6,5C309.2,376.8,309.1,376.8,309.1,376.8z"/>
		<path class="st6" d="M300.8,380.8c-0.3,0-0.6-0.1-0.8-0.2l-0.8-0.5c-0.3-0.1-0.5-0.5-0.4-0.9c0-0.1-0.1-0.2-0.1-0.2l-0.9-0.5
			c-0.5-0.3-0.9-0.7-1.1-1.3l-0.8-2.9c0,0-0.1-0.1-0.1-0.1c-0.3-0.1-0.5-0.5-0.3-0.8c0.1-0.1,0.2-0.2,0.3-0.3l9.4-5.4
			c1.2-0.7,2.6-1,4-1h3.5c0.7,0,1.3-0.1,1.9-0.4c0.5-0.2,1.3-0.6,2.5-1.2c2.1-1.2,4.7-1,6.7,0.3c0.9,0.5,1.4,1,1.4,1.6
			s-0.3,0.8-0.9,1.2c-0.1,0.1-0.3,0-0.4-0.1s0-0.3,0.1-0.4c0,0,0,0,0,0c0.3-0.2,0.6-0.4,0.6-0.7s-0.4-0.7-1.1-1.1
			c-1.9-1.3-4.3-1.4-6.2-0.3l-2.5,1.2c-0.7,0.3-1.4,0.5-2.1,0.5h-3.5c-1.3,0-2.6,0.3-3.8,0.9l-9.3,5.4c-0.1,0-0.1,0.1-0.1,0.1
			s0,0,0.1,0.1c0.2,0.1,0.3,0.2,0.4,0.4l0.8,3c0.2,0.4,0.5,0.8,0.9,1l0.9,0.5c0.3,0.1,0.5,0.5,0.4,0.9c0,0.1,0.1,0.2,0.1,0.2
			l0.8,0.5c0.2,0.1,0.5,0.2,0.8,0.1l1.6-0.2c0.1,0,0.3,0.1,0.3,0.2c0,0,0,0,0,0c0,0.1-0.1,0.3-0.2,0.3l-1.6,0.2
			C300.9,380.8,300.9,380.8,300.8,380.8z"/>
		<path class="st6" d="M306.8,371.2l-2.4-1.4l1-0.6c1.8-1.2,4.1-1.5,6.1-0.8l0,0L306.8,371.2z"/>
		<path class="st6" d="M300.5,374.9l4.9-2.8l-2.3-1.4l-2.8,1.6C299.1,373,299.2,374.1,300.5,374.9L300.5,374.9z"/>
		<path class="st6" d="M288.2,370.2c-0.7,0-1.5-0.2-2.1-0.5c-0.8-0.3-1.1-1.1-0.8-1.9c0.1-0.4,0.5-0.7,0.8-0.8
			c1.3-0.7,2.9-0.7,4.2,0c0.8,0.3,1.1,1.1,0.8,1.9c-0.1,0.4-0.5,0.7-0.8,0.8C289.6,370,288.9,370.2,288.2,370.2z M288.2,366.9
			c-0.6,0-1.3,0.1-1.9,0.5c-0.4,0.2-0.6,0.5-0.7,0.9c0.1,0.4,0.3,0.7,0.7,0.9c1.2,0.6,2.5,0.6,3.7,0c0.4-0.2,0.6-0.5,0.7-0.9
			c0-0.4-0.3-0.8-0.7-0.9l0,0C289.4,367.1,288.8,366.9,288.2,366.9z"/>
		<path class="st6" d="M307.3,359.1c-0.7,0-1.5-0.2-2.1-0.5c-0.8-0.3-1.1-1.1-0.8-1.9c0.1-0.4,0.5-0.7,0.8-0.8
			c1.3-0.7,2.9-0.7,4.2,0c0.8,0.3,1.1,1.1,0.8,1.9c-0.1,0.4-0.5,0.7-0.8,0.8C308.8,358.9,308,359.1,307.3,359.1z M307.3,355.9
			c-0.6,0-1.3,0.1-1.8,0.4c-0.4,0.2-0.6,0.5-0.7,0.9c0,0.4,0.3,0.8,0.7,0.9c1.2,0.6,2.5,0.6,3.7,0c0.4-0.2,0.6-0.5,0.7-0.9
			c-0.1-0.4-0.3-0.8-0.7-0.9l0,0C308.6,356,308,355.9,307.3,355.9z"/>
		<path class="st6" d="M292.2,367.1c-0.1,0-0.2,0-0.2-0.1c-0.1-0.1,0-0.3,0.1-0.4c0,0,0,0,0,0l12.5-7.2c0.1-0.1,0.3,0,0.4,0.1
			c0,0,0,0,0,0c0.1,0.1,0,0.3-0.1,0.4l-12.5,7.2C292.3,367.1,292.3,367.1,292.2,367.1z"/>
		<path class="st6" d="M284.2,371c-0.5,0-1.1-0.1-1.6-0.4l-0.8-0.5c-0.4-0.2-0.7-0.6-0.7-1.1c0-0.1,0-0.2-0.1-0.3l-2.5-3.7
			c0,0,0-0.1,0-0.1c0,0,0-0.1-0.1-0.1c-0.2-0.1-0.4-0.3-0.4-0.6c0-0.2,0.2-0.5,0.4-0.6l10.5-6.1c1.7-1,3.6-1.6,5.5-1.7
			c0.8-0.1,1.5-0.1,2-0.1s0.9,0,1.3-0.1c1-0.2,2-0.5,2.9-0.9l0.2-0.1l3.5-1.4c2.1-0.9,4.4-0.8,6.5,0.2c0.9,0.5,1.4,1,1.4,1.6
			s-0.3,0.8-0.9,1.2c-0.1,0.1-0.3,0-0.4-0.1c0,0,0,0,0,0c-0.1-0.1,0-0.3,0.1-0.4c0.3-0.2,0.6-0.4,0.6-0.7s-0.4-0.7-1.1-1.1
			c-1.9-0.9-4.1-1-6-0.2l-3.5,1.4l-0.2,0.1c-1,0.5-2,0.8-3.1,1c-0.4,0.1-0.9,0.1-1.3,0.1c-0.5,0-1.2,0.1-2,0.1
			c-1.9,0-3.7,0.6-5.3,1.6l-10.5,6.1c-0.1,0-0.1,0.1-0.1,0.1s0,0.1,0.1,0.1c0.2,0.1,0.3,0.2,0.3,0.4l2.5,3.8
			c0.1,0.2,0.2,0.4,0.2,0.6c0,0.2,0.1,0.5,0.5,0.6l0.8,0.5c0.5,0.3,1.2,0.4,1.8,0.3l1-0.1c0.1,0,0.3,0.1,0.3,0.2c0,0,0,0,0,0
			c0,0.1-0.1,0.3-0.2,0.3l-1,0.1C284.5,371,284.4,371,284.2,371z"/>
		<path class="st6" d="M291.9,360.7l-2.5-1.5l1.6-0.9c1.9-1.3,4.3-1.6,6.5-0.9l0,0L291.9,360.7z"/>
		<path class="st6" d="M283.7,362.6l2.5,1.5l-2.3,1.3C282.6,364.6,282.5,363.4,283.7,362.6z"/>
		<polygon class="st6" points="290.7,361.4 286.9,363.6 284.4,362.2 288.2,360 		"/>
		<path class="st3" d="M272.2,360.1c-0.7,0-1.5-0.2-2.1-0.5c-0.8-0.3-1.1-1.1-0.9-1.9c0.1-0.4,0.5-0.7,0.9-0.9
			c1.3-0.7,2.9-0.7,4.2,0c0.8,0.3,1.1,1.1,0.9,1.9c-0.1,0.4-0.5,0.7-0.9,0.9C273.6,360,272.9,360.2,272.2,360.1z M272.2,356.9
			c-0.6,0-1.3,0.1-1.8,0.4c-0.4,0.2-0.6,0.5-0.7,0.9c0.1,0.4,0.3,0.7,0.7,0.9c1.2,0.6,2.5,0.6,3.7,0c0.4-0.2,0.6-0.5,0.7-0.9
			c0-0.4-0.3-0.8-0.7-0.9l0,0C273.4,357.1,272.8,356.9,272.2,356.9L272.2,356.9z"/>
		<path class="st3" d="M291.2,349.1c-0.7,0-1.5-0.2-2.1-0.5c-0.8-0.3-1.1-1.1-0.8-1.9c0.1-0.4,0.5-0.7,0.8-0.8
			c1.3-0.7,2.9-0.7,4.2,0l0,0c0.8,0.3,1.1,1.1,0.9,1.9c-0.1,0.4-0.5,0.7-0.9,0.9C292.7,349,292,349.2,291.2,349.1z M291.2,345.9
			c-0.6,0-1.3,0.1-1.8,0.4c-0.5,0.2-0.7,0.8-0.5,1.3c0.1,0.2,0.3,0.4,0.5,0.5c1.2,0.6,2.5,0.6,3.7,0c0.5-0.2,0.7-0.8,0.5-1.3
			c-0.1-0.2-0.3-0.4-0.5-0.5C292.5,346.1,291.9,345.9,291.2,345.9z"/>
		<path class="st3" d="M276.2,357.1c-0.1,0-0.2,0-0.2-0.1c-0.1-0.1,0-0.3,0.1-0.4c0,0,0,0,0,0l12.4-7.2c0.1-0.1,0.3,0,0.4,0.1
			c0,0,0,0,0,0c0.1,0.1,0,0.3-0.1,0.4l-12.4,7.2C276.3,357.1,276.3,357.1,276.2,357.1z"/>
		<path class="st3" d="M275.2,350.8l-2.4-1.4l1-0.6c2.2-1.2,4.7-1.7,7.2-1.5l0,0L275.2,350.8z"/>
		<path class="st3" d="M268.7,354.5l4.9-2.8l-2.4-1.4l-2.8,1.7C267.3,352.6,267.4,353.8,268.7,354.5L268.7,354.5z"/>
		<path class="st3" d="M267.5,360.8h-0.9c-0.6,0-1.2-0.1-1.7-0.4c-0.5-0.2-0.8-0.6-0.8-1.1c0-0.3-0.2-0.6-0.5-0.7l-0.9-0.5
			c-0.6-0.2-0.9-0.9-0.7-1.5c0.1-0.3,0.4-0.6,0.7-0.7c0.6-0.3,1-0.7,1.4-1.2l1.4-2.2c0.6-0.8,1.3-1.5,2.1-1.9l4.1-2.4
			c2-1.1,4.1-1.8,6.4-2.1l3-0.5c1.6-0.2,3.1-0.7,4.6-1.3l2.8-1.2c2.4-1,5.1-0.9,7.4,0.3l0.4,0.2c0.6,0.2,0.9,0.9,0.6,1.4
			c-0.1,0.3-0.3,0.5-0.6,0.6l-0.8,0.5c-0.1,0.1-0.3,0.1-0.4,0s-0.1-0.3,0-0.4c0,0,0,0,0.1,0l0.9-0.5c0.2-0.1,0.4-0.3,0.5-0.6
			c0-0.3-0.2-0.5-0.5-0.6l-0.4-0.2c-2.2-1.1-4.7-1.2-7-0.3l-2.8,1.2c-1.5,0.6-3.1,1.1-4.7,1.3l-3,0.5c-2.2,0.3-4.3,1-6.2,2.1
			l-4.1,2.4c-0.8,0.4-1.5,1-2,1.8l-1.4,2.2c-0.4,0.6-0.9,1.1-1.6,1.4c-0.3,0.2-0.5,0.4-0.5,0.6c0,0.3,0.2,0.5,0.5,0.6l0.9,0.5
			c0.4,0.2,0.7,0.6,0.8,1.1c0.1,0.3,0.3,0.6,0.5,0.7c0.5,0.2,1,0.4,1.5,0.4h0.9c0.5,0,1-0.1,1.5-0.3c0.1-0.1,0.3,0,0.4,0.1
			c0,0,0,0,0,0c0.1,0.1,0,0.3-0.1,0.3c0,0,0,0,0,0C268.6,360.6,268.1,360.8,267.5,360.8z"/>
		<polygon class="st3" points="295.2,334.8 296.5,335 297.6,334.5 297.6,335.3 298.7,335.8 297.4,336 297,336.8 296.2,336.1 
			294.8,336.1 295.6,335.5 		"/>
		<polygon class="st3" points="299.2,332.4 300.6,332.6 301.7,332.2 301.6,333 302.8,333.4 301.5,333.7 301,334.4 300.2,333.8 
			298.9,333.8 299.7,333.1 		"/>
		<polygon class="st3" points="303.3,330 304.6,330.3 305.8,329.8 305.7,330.6 306.9,331.1 305.5,331.3 305.1,332.1 304.3,331.4 
			302.9,331.4 303.8,330.8 		"/>
		<polygon class="st3" points="307.4,327.7 308.7,327.9 309.8,327.5 309.8,328.3 310.9,328.7 309.6,329 309.2,329.7 308.4,329.1 
			307,329.1 307.8,328.4 		"/>
		<polygon class="st3" points="311.5,325.3 312.8,325.6 313.9,325.1 313.9,325.9 315,326.4 313.7,326.6 313.3,327.4 312.5,326.7 
			311.1,326.7 311.9,326.1 		"/>
		<path class="st6" d="M300.9,339.6c-0.4,0-0.8-0.4-0.8-0.8c0-0.3,0.1-0.5,0.4-0.7l21.1-12.1c0.4-0.2,0.8-0.1,1.1,0.3
			c0.2,0.4,0.1,0.8-0.3,1.1c0,0,0,0,0,0l-21.1,12.2C301.2,339.6,301.1,339.6,300.9,339.6z"/>
		<path class="st21" d="M304.8,341.8c-0.3,0-0.5-0.2-0.6-0.4c0-0.2,0.1-0.5,0.3-0.6l29.5-17c0.2-0.1,0.6-0.1,0.7,0.2c0,0,0,0,0,0
			c0.1,0.2,0.1,0.6-0.2,0.7L305,341.8C304.9,341.8,304.8,341.8,304.8,341.8z"/>
		<polygon class="st3" points="312,344.5 313.4,344.8 314.5,344.3 314.5,345.1 315.6,345.5 314.3,345.8 313.9,346.5 313,345.9 
			311.7,345.9 312.5,345.2 		"/>
		<polygon class="st3" points="316.1,342.1 317.4,342.4 318.5,341.9 318.5,342.7 319.7,343.2 318.3,343.4 317.9,344.2 317.1,343.5 
			315.7,343.5 316.6,342.9 		"/>
		<polygon class="st3" points="320.2,339.8 321.5,340 322.6,339.6 322.6,340.4 323.8,340.8 322.4,341.1 322,341.8 321.2,341.2 
			319.8,341.2 320.6,340.5 		"/>
		<polygon class="st3" points="324.3,337.4 325.6,337.7 326.7,337.2 326.7,338 327.8,338.5 326.5,338.7 326.1,339.5 325.3,338.8 
			323.9,338.8 324.7,338.2 		"/>
		<polygon class="st21" points="328.4,335.1 329.7,335.3 330.8,334.9 330.8,335.6 331.9,336.1 330.6,336.4 330.2,337.1 329.4,336.5 
			328,336.5 328.8,335.8 		"/>
		<path class="st6" d="M317.8,349.3c-0.3,0-0.5-0.1-0.7-0.4c-0.2-0.4-0.1-0.8,0.3-1.1c0,0,0,0,0,0l21.1-12.2
			c0.4-0.2,0.8-0.1,1.1,0.3c0,0,0,0,0,0c0.2,0.4,0.1,0.8-0.3,1.1l-21.1,12.2C318.1,349.3,318,349.3,317.8,349.3z"/>
		<path class="st21" d="M321.6,351.6c-0.3,0-0.5-0.2-0.6-0.4c0-0.2,0.1-0.5,0.3-0.6l29.5-17c0.2-0.1,0.6-0.1,0.7,0.2c0,0,0,0,0,0
			c0.1,0.2,0.1,0.6-0.2,0.7l-29.5,17.1C321.8,351.5,321.7,351.6,321.6,351.6z"/>
		<polygon class="st3" points="328.9,354.2 330.2,354.5 331.4,354 331.3,354.8 332.5,355.3 331.1,355.5 330.7,356.3 329.9,355.6 
			328.5,355.6 329.4,355 		"/>
		<polygon class="st3" points="333,351.9 334.3,352.1 335.4,351.7 335.4,352.5 336.5,352.9 335.2,353.2 334.8,353.9 334,353.3 
			332.6,353.3 333.5,352.6 		"/>
		<polygon class="st3" points="337.1,349.5 338.4,349.8 339.5,349.3 339.5,350.1 340.6,350.6 339.3,350.8 338.9,351.6 338.1,350.9 
			336.7,350.9 337.5,350.3 		"/>
		<polygon class="st21" points="341.2,347.2 342.5,347.4 343.6,347 343.6,347.8 344.7,348.2 343.4,348.5 343,349.2 342.2,348.6 
			340.8,348.6 341.6,347.9 		"/>
		<polygon class="st21" points="345.2,344.8 346.6,345.1 347.7,344.6 347.6,345.4 348.8,345.9 347.5,346.1 347,346.9 346.2,346.2 
			344.9,346.2 345.7,345.6 		"/>
		<path class="st6" d="M334.7,359.1c-0.3,0-0.5-0.1-0.7-0.4c-0.2-0.4-0.1-0.8,0.3-1.1c0,0,0,0,0,0l21.1-12.2
			c0.4-0.2,0.8-0.1,1.1,0.3c0,0,0,0,0,0c0.2,0.4,0.1,0.9-0.3,1.1L335.1,359C335,359.1,334.8,359.1,334.7,359.1z"/>
		<path class="st21" d="M338.5,361.3c-0.3,0.1-0.6-0.1-0.6-0.4s0.1-0.6,0.4-0.6l29.5-17c0.2-0.2,0.6-0.1,0.7,0.1
			c0.2,0.2,0.1,0.6-0.1,0.7c0,0-0.1,0.1-0.1,0.1l-29.5,17C338.7,361.3,338.6,361.3,338.5,361.3z"/>
		<path class="st3" d="M356.7,303.8c0.2-0.1,0.5-0.2,0.7-0.2c0.2,0,0.5-0.1,0.7-0.1c0.2,0,0.4,0,0.6,0.1c0.1,0,0.3,0.1,0.4,0.1
			c0,0,0.1,0.1,0.1,0.1c0,0,0,0.1-0.1,0.1l-0.5,0.3c-0.1,0-0.1,0.1-0.2,0.1h-0.2c-0.2,0-0.4,0-0.6,0c-0.2,0-0.5,0.1-0.7,0.3
			c-0.1,0.1-0.2,0.1-0.3,0.2c-0.1,0.1-0.1,0.1-0.2,0.2c0,0.1,0,0.1,0,0.2c0,0.1,0.1,0.1,0.1,0.2c0.1,0.1,0.2,0.1,0.3,0.1
			c0.1,0,0.3,0,0.4,0l0.5-0.2l0.7-0.3c0.3-0.1,0.6-0.2,0.9-0.3c0.2-0.1,0.5-0.1,0.7-0.1c0.2,0,0.4,0,0.6,0.1
			c0.2,0.1,0.4,0.1,0.5,0.2c0.1,0.1,0.3,0.2,0.4,0.3c0.1,0.1,0.1,0.3,0.1,0.4c0,0.2-0.1,0.3-0.2,0.4c-0.1,0.2-0.3,0.3-0.4,0.4
			l0.4,0.2c0,0,0.1,0.1,0.1,0.1c0,0,0,0.1-0.1,0.1l-0.5,0.3c-0.1,0-0.1,0-0.2,0c-0.1,0-0.1,0-0.2,0l-0.4-0.3
			c-0.2,0.1-0.5,0.2-0.7,0.2c-0.2,0.1-0.5,0.1-0.7,0.1c-0.2,0-0.4,0-0.7,0c-0.2,0-0.4-0.1-0.6-0.2c-0.1,0-0.1-0.1-0.1-0.1
			s0-0.1,0.1-0.1l0.5-0.3c0.1,0,0.1-0.1,0.2-0.1c0.1,0,0.1,0,0.2,0h0.3c0.1,0,0.2,0,0.3,0c0.1,0,0.3-0.1,0.4-0.1
			c0.2-0.1,0.3-0.1,0.5-0.2c0.1-0.1,0.2-0.1,0.3-0.2c0.1-0.1,0.2-0.1,0.2-0.2c0-0.1,0.1-0.1,0.1-0.2c0-0.1-0.1-0.2-0.2-0.2
			c-0.1-0.1-0.2-0.1-0.3-0.1c-0.1,0-0.3,0-0.4,0.1l-0.6,0.2c-0.2,0.1-0.5,0.2-0.8,0.3s-0.5,0.2-0.7,0.2c-0.2,0.1-0.4,0.1-0.7,0.1
			c-0.2,0-0.4,0-0.6-0.1c-0.2-0.1-0.4-0.1-0.6-0.2c-0.1-0.1-0.3-0.2-0.4-0.3c-0.1-0.1-0.1-0.2-0.1-0.4c0-0.1,0.1-0.3,0.1-0.4
			c0.1-0.1,0.2-0.3,0.4-0.4l-0.4-0.3c0,0-0.1-0.1-0.1-0.1c0,0,0-0.1,0.1-0.1l0.5-0.3c0.1,0,0.1,0,0.2,0c0.1,0,0.1,0,0.2,0
			L356.7,303.8z"/>
		<path class="st3" d="M360,303.6c-0.1,0-0.1,0-0.2,0c0,0-0.1-0.1,0-0.1l0.3-1.4v-0.1c0,0,0-0.1,0.1-0.1l0.5-0.3
			c0.1-0.1,0.2-0.1,0.3,0l4.2,2.4c0,0,0.1,0.1,0.1,0.1c0,0,0,0.1-0.1,0.1l-0.5,0.3c-0.1,0-0.1,0-0.2,0c-0.1,0-0.1,0-0.2,0l-3.2-1.8
			l-0.2,0.9c0,0,0,0.1-0.1,0.1c-0.1,0-0.1,0-0.2,0L360,303.6z"/>
		<path class="st3" d="M368.3,302.3c-0.1,0-0.1,0-0.2,0c-0.1,0-0.1,0-0.2,0l-0.8-0.5l-2,1.1c-0.1,0-0.1,0-0.2,0c-0.1,0-0.1,0-0.2,0
			l-0.5-0.3c-0.1,0-0.1-0.1-0.1-0.1c0,0,0-0.1,0-0.1l-0.5-2.6c0-0.1,0-0.2,0.1-0.2l0.5-0.3c0.1,0,0.1,0,0.2,0c0.1,0,0.1,0,0.2,0
			l2.6,1.5l0.5-0.3c0.1,0,0.1,0,0.2,0c0.1,0,0.1,0,0.2,0l0.5,0.3c0,0,0.1,0.1,0.1,0.1c0,0,0,0.1-0.1,0.1l-0.6,0.3l0.8,0.5
			c0,0,0.1,0.1,0.1,0.1c0,0,0,0.1-0.1,0.1L368.3,302.3z M366.4,301.3l-1.4-0.8l0.3,1.4L366.4,301.3z"/>
		<path class="st3" d="M370.1,300.1c0.1,0,0.1,0,0.2,0c0.1,0,0.1,0,0.2,0l0.6,0.4c0,0,0.1,0.1,0.1,0.1s0,0.1-0.1,0.1l-0.6,0.4
			c-0.1,0-0.1,0-0.2,0c-0.1,0-0.1,0-0.2,0l-0.6-0.4c0,0-0.1-0.1-0.1-0.1s0-0.1,0.1-0.1L370.1,300.1z"/>
		<path class="st3" d="M367.9,297.5c0,0-0.1-0.1-0.1-0.1s0-0.1,0.1-0.1l2.4-1.4c0.1-0.1,0.2-0.1,0.4,0l0.5,0.3c0,0,0.1,0.1,0.1,0.1
			s0,0.1-0.1,0.1l-1.8,1l0.8,0.5c0.1-0.1,0.2-0.2,0.3-0.2l0.3-0.2c0.2-0.1,0.5-0.3,0.8-0.3c0.3-0.1,0.5-0.1,0.8-0.1
			c0.3,0,0.6,0,0.8,0.1c0.3,0.1,0.5,0.1,0.8,0.3c0.2,0.1,0.4,0.3,0.6,0.5c0.1,0.1,0.1,0.3,0.1,0.5c0,0.2-0.1,0.3-0.3,0.5
			c-0.2,0.2-0.4,0.3-0.6,0.4c-0.3,0.2-0.6,0.3-0.9,0.4c-0.3,0.1-0.5,0.1-0.8,0.1c-0.2,0-0.5,0-0.7,0c-0.2,0-0.4-0.1-0.6-0.2
			c0,0-0.1-0.1-0.1-0.1s0-0.1,0.1-0.1l0.5-0.3c0.1,0,0.1,0,0.2,0c0.1,0,0.1,0,0.2,0c0.1,0,0.2,0.1,0.4,0.1c0.1,0,0.2,0,0.3,0
			c0.1,0,0.2-0.1,0.3-0.1l0.3-0.1c0.2-0.1,0.4-0.3,0.4-0.5s-0.1-0.3-0.3-0.4c-0.2-0.1-0.5-0.2-0.7-0.1c-0.3,0-0.5,0.1-0.8,0.2
			c-0.1,0.1-0.2,0.1-0.3,0.2c0,0-0.1,0.1-0.1,0.1l-0.1,0.1c0,0-0.1,0.1-0.1,0.1l-0.6,0.3c-0.1,0-0.1,0-0.2,0c-0.1,0-0.1,0-0.2,0
			L367.9,297.5z"/>
		<path class="st3" d="M376.6,294.2l0.3,0.2l0.3,0.2l0.3,0.2l0.3,0.2c0.2,0.1,0.4,0.3,0.6,0.5c0.1,0.1,0.2,0.3,0.3,0.5
			c0,0.2,0,0.4-0.2,0.5c-0.2,0.2-0.4,0.4-0.7,0.5c-0.3,0.2-0.6,0.3-0.9,0.4c-0.3,0.1-0.6,0.1-0.9,0.1c-0.3,0-0.6-0.1-0.9-0.1
			c-0.3-0.1-0.5-0.2-0.8-0.3c-0.2-0.1-0.4-0.2-0.6-0.3l-0.5-0.3c-0.2-0.1-0.4-0.3-0.6-0.5c-0.1-0.1-0.2-0.3-0.3-0.5
			c0-0.2,0-0.4,0.1-0.5c0.2-0.2,0.4-0.4,0.7-0.5c0.3-0.2,0.6-0.3,0.9-0.4c0.3-0.1,0.6-0.1,0.9-0.1c0.3,0,0.6,0.1,0.9,0.1
			C376,294,376.3,294.1,376.6,294.2z M375.1,296.4c0.3,0.2,0.6,0.3,0.9,0.3c0.3,0,0.6-0.1,0.9-0.2c0.3-0.2,0.4-0.4,0.4-0.5
			c-0.1-0.2-0.3-0.4-0.5-0.5c-0.2-0.1-0.3-0.2-0.5-0.3l-0.5-0.3c-0.3-0.2-0.6-0.2-0.9-0.3c-0.3,0-0.6,0.1-0.9,0.2
			c-0.3,0.2-0.4,0.4-0.4,0.5c0.1,0.2,0.3,0.4,0.5,0.5c0.2,0.1,0.3,0.2,0.5,0.3L375.1,296.4z"/>
		<path class="st6" d="M373.5,313.6c0.2-0.1,0.5-0.2,0.7-0.2c0.2,0,0.5-0.1,0.7-0.1c0.2,0,0.4,0,0.6,0.1c0.1,0,0.3,0.1,0.4,0.1
			c0,0,0.1,0.1,0.1,0.1c0,0,0,0.1-0.1,0.1l-0.5,0.3c-0.1,0-0.1,0.1-0.2,0.1H375c-0.2,0-0.4,0-0.6,0c-0.2,0-0.5,0.1-0.7,0.3
			c-0.1,0.1-0.2,0.1-0.3,0.2c-0.1,0.1-0.1,0.1-0.2,0.2c0,0.1,0,0.1,0,0.2c0,0.1,0.1,0.1,0.1,0.2c0.1,0.1,0.2,0.1,0.3,0.1
			c0.1,0,0.3,0,0.4,0c0.2,0,0.4-0.1,0.5-0.2l0.7-0.3c0.3-0.1,0.6-0.2,0.9-0.3c0.2-0.1,0.5-0.1,0.7-0.1c0.2,0,0.4,0,0.6,0.1
			c0.2,0.1,0.4,0.1,0.5,0.2c0.1,0.1,0.3,0.2,0.4,0.3c0.1,0.1,0.1,0.3,0.1,0.4c0,0.2-0.1,0.3-0.2,0.4c-0.1,0.2-0.3,0.3-0.4,0.4
			l0.4,0.2c0,0,0.1,0.1,0.1,0.1c0,0,0,0.1-0.1,0.1l-0.5,0.3c-0.1,0-0.1,0-0.2,0c-0.1,0-0.1,0-0.2,0l-0.4-0.2
			c-0.2,0.1-0.5,0.2-0.7,0.2c-0.2,0.1-0.5,0.1-0.7,0.1c-0.2,0-0.4,0-0.7,0c-0.2,0-0.4-0.1-0.6-0.2c-0.1,0-0.1-0.1-0.1-0.1
			s0-0.1,0.1-0.1l0.5-0.3c0.1,0,0.1-0.1,0.2-0.1c0.1,0,0.1,0,0.2,0h0.3c0.1,0,0.2,0,0.3,0c0.1,0,0.3-0.1,0.4-0.1
			c0.2-0.1,0.3-0.1,0.5-0.2c0.1-0.1,0.2-0.1,0.3-0.2c0.1-0.1,0.2-0.1,0.2-0.2c0.1-0.1,0.1-0.3,0-0.4c0,0-0.1,0-0.1-0.1
			c-0.1-0.1-0.2-0.1-0.3-0.1c-0.1,0-0.3,0-0.4,0.1l-0.6,0.2l-0.8,0.3c-0.3,0.1-0.5,0.2-0.7,0.2c-0.2,0-0.4,0.1-0.7,0.1
			c-0.2,0-0.4,0-0.6-0.1c-0.2-0.1-0.4-0.1-0.6-0.2c-0.1-0.1-0.3-0.2-0.4-0.3c-0.1-0.1-0.1-0.2-0.1-0.4c0-0.1,0.1-0.3,0.1-0.4
			c0.1-0.2,0.2-0.3,0.4-0.4l-0.4-0.3c0,0-0.1-0.1-0.1-0.1c0,0,0-0.1,0.1-0.1l0.5-0.3c0.1,0,0.1,0,0.2,0c0.1,0,0.1,0,0.2,0
			L373.5,313.6z"/>
		<path class="st6" d="M376.8,313.4c-0.1,0-0.1,0-0.2,0c0,0-0.1-0.1,0-0.1l0.3-1.4v-0.1c0,0,0.1-0.1,0.1-0.1l0.5-0.3
			c0.1,0,0.1,0,0.2,0c0.1,0,0.1,0,0.2,0l4.2,2.4c0,0,0.1,0.1,0.1,0.1c0,0,0,0.1-0.1,0.1l-0.5,0.3c-0.1,0-0.1,0-0.2,0
			c-0.1,0-0.1,0-0.2,0l-3.2-1.8l-0.2,0.9c0,0,0,0.1-0.1,0.1c-0.1,0-0.1,0-0.2,0L376.8,313.4z"/>
		<path class="st6" d="M383.6,309.7l0.3,0.1l0.3,0.2l0.3,0.2l0.3,0.2c0.2,0.1,0.4,0.3,0.6,0.5c0.1,0.1,0.2,0.3,0.3,0.5
			c0,0.2,0,0.4-0.2,0.5c-0.2,0.2-0.4,0.4-0.7,0.5c-0.3,0.2-0.6,0.3-0.9,0.4c-0.3,0.1-0.6,0.1-0.9,0.1c-0.3,0-0.6-0.1-0.9-0.1
			c-0.3-0.1-0.5-0.2-0.8-0.3l-0.6-0.3l-0.5-0.3c-0.2-0.1-0.4-0.3-0.6-0.5c-0.1-0.1-0.2-0.3-0.3-0.5c0-0.2,0-0.4,0.1-0.5
			c0.2-0.2,0.4-0.4,0.7-0.5c0.3-0.2,0.6-0.3,0.9-0.4c0.6-0.1,1.2-0.1,1.8,0.1C383,309.4,383.3,309.6,383.6,309.7z M382.1,311.8
			c0.3,0.2,0.6,0.2,0.9,0.3c0.3,0,0.6,0,0.9-0.2c0.3-0.2,0.4-0.3,0.4-0.5c-0.1-0.2-0.3-0.4-0.5-0.5l-0.5-0.3l-0.6-0.3
			c-0.3-0.2-0.6-0.3-0.9-0.3c-0.3,0-0.6,0.1-0.9,0.2c-0.3,0.2-0.4,0.3-0.4,0.5c0.1,0.2,0.3,0.4,0.5,0.5c0.1,0.1,0.3,0.2,0.5,0.3
			S381.9,311.7,382.1,311.8L382.1,311.8z"/>
		<path class="st6" d="M386.8,309.9c0.1,0,0.1,0,0.2,0c0.1,0,0.1,0,0.2,0l0.6,0.4c0,0,0.1,0.1,0.1,0.1s0,0.1-0.1,0.1l-0.6,0.3
			c-0.1,0-0.1,0-0.2,0c-0.1,0-0.1,0-0.2,0l-0.6-0.4c0,0-0.1-0.1-0.1-0.1s0-0.1,0.1-0.1L386.8,309.9z"/>
		<path class="st6" d="M387.3,305.6c0.1,0,0.1,0,0.2,0c0.1,0,0.1,0,0.2,0l0.5,0.3c0,0,0.1,0.1,0.1,0.1c0,0,0,0.1,0,0.1l0,1.1
			c0.2-0.1,0.4-0.2,0.7-0.2c0.2,0,0.4-0.1,0.7-0.1c0.2,0,0.4,0,0.6,0.1c0.2,0,0.4,0.1,0.6,0.2c0.2,0.1,0.4,0.2,0.5,0.4
			c0.1,0.1,0.1,0.3,0.1,0.5c-0.1,0.2-0.1,0.3-0.3,0.5c-0.2,0.2-0.4,0.3-0.6,0.5c-0.3,0.2-0.6,0.3-0.9,0.4c-0.3,0.1-0.5,0.1-0.8,0.2
			c-0.2,0-0.5,0-0.7,0c-0.2,0-0.4-0.1-0.5-0.2c-0.1,0-0.1-0.1-0.1-0.1s0-0.1,0.1-0.1l0.5-0.3c0,0,0.1,0,0.1,0h0.2c0.1,0,0.2,0,0.2,0
			h0.3c0.1,0,0.2-0.1,0.4-0.1c0.1-0.1,0.3-0.1,0.4-0.2c0.2-0.1,0.4-0.3,0.5-0.5c0.1-0.1,0-0.3-0.2-0.4c-0.2-0.1-0.4-0.1-0.6-0.1
			c-0.3,0.1-0.5,0.2-0.8,0.3l-0.5,0.3c-0.1,0-0.1,0-0.2,0c-0.1,0-0.1,0-0.2,0l-0.5-0.3c0,0-0.1-0.1-0.1-0.1c0,0,0-0.1,0-0.1v-1.1
			l-1.8,1c-0.1,0-0.1,0-0.2,0c-0.1,0-0.1,0-0.2,0l-0.5-0.3c0,0-0.1-0.1-0.1-0.1c0,0,0-0.1,0.1-0.1L387.3,305.6z"/>
		<path class="st6" d="M393.4,304l0.3,0.1l0.3,0.2l0.3,0.2l0.3,0.2c0.2,0.1,0.4,0.3,0.6,0.5c0.1,0.1,0.2,0.3,0.3,0.5
			c0,0.2,0,0.4-0.2,0.5c-0.2,0.2-0.4,0.4-0.7,0.5c-0.3,0.2-0.6,0.3-0.9,0.4c-0.3,0.1-0.6,0.1-0.9,0.1c-0.3,0-0.6-0.1-0.9-0.1
			c-0.3-0.1-0.5-0.2-0.8-0.3l-0.6-0.3L390,306c-0.2-0.1-0.4-0.3-0.6-0.5c-0.1-0.1-0.2-0.3-0.3-0.5c0-0.2,0-0.4,0.1-0.5
			c0.2-0.2,0.4-0.4,0.7-0.5c0.3-0.2,0.6-0.3,0.9-0.4c0.3-0.1,0.6-0.1,0.9-0.1c0.3,0,0.6,0.1,0.9,0.1
			C392.9,303.8,393.2,303.9,393.4,304z M392,306.1c0.3,0.2,0.6,0.2,0.9,0.3c0.3,0,0.6,0,0.9-0.2c0.3-0.2,0.4-0.3,0.4-0.5
			c-0.1-0.2-0.3-0.4-0.5-0.5l-0.5-0.3l-0.6-0.3c-0.3-0.2-0.6-0.3-0.9-0.3c-0.3,0-0.6,0.1-0.9,0.2c-0.3,0.2-0.4,0.3-0.4,0.5
			c0.1,0.2,0.3,0.4,0.5,0.5l0.5,0.3L392,306.1z"/>
		<path class="st6" d="M389.8,323.6c0.2-0.1,0.5-0.2,0.7-0.2c0.2,0,0.5-0.1,0.7-0.1c0.2,0,0.4,0,0.6,0.1c0.1,0,0.3,0.1,0.4,0.1
			c0,0,0.1,0.1,0.1,0.1c0,0,0,0.1-0.1,0.1l-0.5,0.3c-0.1,0-0.1,0.1-0.2,0.1h-0.2c-0.2,0-0.4,0-0.6,0c-0.2,0-0.5,0.1-0.7,0.3
			c-0.1,0.1-0.2,0.1-0.3,0.2c-0.1,0.1-0.1,0.1-0.2,0.2c0,0.1,0,0.1,0,0.2c0,0.1,0.1,0.1,0.1,0.2c0.1,0.1,0.2,0.1,0.3,0.1
			c0.1,0,0.3,0,0.4,0c0.1,0,0.3-0.1,0.5-0.2l0.7-0.3c0.3-0.1,0.6-0.2,0.9-0.3c0.2-0.1,0.5-0.1,0.7-0.1c0.2,0,0.4,0,0.6,0.1
			c0.2,0.1,0.4,0.1,0.5,0.2c0.1,0.1,0.3,0.2,0.4,0.3c0.1,0.1,0.1,0.3,0.1,0.4c0,0.2-0.1,0.3-0.1,0.4c-0.1,0.2-0.3,0.3-0.4,0.4
			l0.4,0.2c0,0,0.1,0.1,0.1,0.1c0,0,0,0.1-0.1,0.1l-0.5,0.3c-0.1,0-0.1,0-0.2,0c-0.1,0-0.1,0-0.2,0l-0.4-0.2
			c-0.2,0.1-0.5,0.2-0.7,0.2c-0.2,0.1-0.5,0.1-0.7,0.1c-0.2,0-0.4,0-0.7,0c-0.2,0-0.4-0.1-0.6-0.2c-0.1,0-0.1-0.1-0.1-0.1
			s0-0.1,0.1-0.1l0.5-0.3c0.1,0,0.1-0.1,0.2-0.1c0.1,0,0.1,0,0.2,0h0.3c0.1,0,0.2,0,0.3,0c0.1,0,0.3,0,0.4-0.1
			c0.2-0.1,0.3-0.1,0.5-0.2c0.1-0.1,0.2-0.2,0.3-0.2c0.1-0.1,0.2-0.1,0.2-0.2c0-0.1,0.1-0.1,0.1-0.2c0-0.1-0.1-0.2-0.2-0.2
			c-0.1-0.1-0.2-0.1-0.3-0.1c-0.1,0-0.3,0-0.4,0.1l-0.6,0.2l-0.8,0.3c-0.2,0.1-0.5,0.2-0.7,0.2c-0.2,0.1-0.4,0.1-0.7,0.1
			c-0.2,0-0.4,0-0.6-0.1c-0.2-0.1-0.4-0.1-0.6-0.2c-0.1-0.1-0.3-0.2-0.4-0.3c-0.1-0.1-0.1-0.2-0.1-0.4c0-0.1,0.1-0.3,0.1-0.4
			c0.1-0.2,0.2-0.3,0.4-0.4l-0.4-0.2c0,0-0.1-0.1-0.1-0.1c0,0,0-0.1,0.1-0.1l0.5-0.3c0.1,0,0.1,0,0.2,0c0.1,0,0.1,0,0.2,0
			L389.8,323.6z"/>
		<path class="st6" d="M397,321.5l0.3,0.1l0.3,0.2l0.3,0.2l0.3,0.2c0.2,0.1,0.4,0.3,0.6,0.5c0.1,0.1,0.2,0.3,0.3,0.5
			c0,0.2,0,0.4-0.2,0.5c-0.2,0.2-0.4,0.4-0.7,0.5c-0.3,0.2-0.6,0.3-0.9,0.4c-0.3,0.1-0.6,0.1-0.9,0.1c-0.3,0-0.6-0.1-0.8-0.1
			c-0.3-0.1-0.6-0.2-0.8-0.3l-0.6-0.3l-0.5-0.3c-0.2-0.1-0.4-0.3-0.6-0.5c-0.1-0.1-0.2-0.3-0.3-0.5c0-0.2,0-0.4,0.1-0.5
			c0.2-0.2,0.4-0.4,0.7-0.5c0.3-0.2,0.6-0.3,0.9-0.4c0.3-0.1,0.6-0.1,0.9-0.1c0.3,0,0.6,0.1,0.8,0.1
			C396.5,321.2,396.7,321.3,397,321.5z M395.5,323.6c0.3,0.2,0.6,0.3,0.9,0.3c0.3,0,0.6-0.1,0.9-0.2c0.3-0.2,0.4-0.3,0.4-0.5
			c-0.1-0.2-0.3-0.4-0.5-0.5c-0.1-0.1-0.3-0.2-0.5-0.3s-0.4-0.2-0.5-0.3c-0.3-0.2-0.6-0.2-0.9-0.3c-0.3,0-0.6,0.1-0.9,0.2
			c-0.3,0.2-0.4,0.3-0.4,0.5c0.1,0.2,0.3,0.4,0.5,0.5l0.5,0.3L395.5,323.6z"/>
		<path class="st6" d="M399.1,321.9c-0.2-0.1-0.3-0.2-0.5-0.4c-0.1-0.2-0.1-0.3,0-0.5c-0.4,0-0.9-0.1-1.3-0.3
			c-0.2-0.1-0.3-0.2-0.4-0.4c-0.1-0.1-0.1-0.3-0.1-0.4c0-0.2,0.1-0.3,0.2-0.5c0.2-0.2,0.3-0.3,0.5-0.4c0.2-0.1,0.5-0.2,0.7-0.3
			c0.2-0.1,0.5-0.1,0.8-0.1c0.3,0,0.5,0,0.8,0c0.2,0,0.5,0.1,0.7,0.2c0.2,0.1,0.3,0.2,0.4,0.3c0.1,0.1,0.1,0.2,0.1,0.4
			c0.3,0,0.6,0,0.8,0c0.3,0,0.5,0.1,0.7,0.3c0.2,0.1,0.3,0.2,0.5,0.4c0.1,0.1,0.1,0.3,0.1,0.5c0,0.2-0.1,0.4-0.3,0.5
			c-0.2,0.2-0.4,0.3-0.6,0.5c-0.3,0.2-0.5,0.3-0.8,0.4c-0.3,0.1-0.6,0.1-0.8,0.2c-0.3,0-0.5,0-0.8,0
			C399.6,322.1,399.4,322,399.1,321.9z M398.2,320.2c0.1,0.1,0.2,0.1,0.3,0.1c0.1,0,0.2,0,0.3,0c0.1,0,0.2,0,0.3-0.1l0.3-0.1
			c0.1-0.1,0.2-0.1,0.2-0.2c0.1-0.1,0.1-0.1,0.1-0.2c0-0.1,0-0.1,0-0.2c0-0.1-0.1-0.1-0.2-0.2c-0.1,0-0.2-0.1-0.3-0.1
			c-0.1,0-0.2,0-0.3,0c-0.1,0-0.2,0-0.3,0.1c-0.1,0-0.2,0.1-0.3,0.1c-0.1,0.1-0.2,0.1-0.2,0.2c-0.1,0.1-0.1,0.1-0.1,0.2
			c0,0.1,0,0.1,0,0.2C398.1,320.1,398.2,320.2,398.2,320.2z M400,321.4c0.1,0.1,0.2,0.1,0.3,0.1c0.1,0,0.3,0,0.4,0
			c0.1,0,0.3-0.1,0.4-0.1c0.1,0,0.3-0.1,0.4-0.2c0.1-0.1,0.2-0.1,0.3-0.2c0.1-0.1,0.1-0.1,0.2-0.2c0-0.1,0-0.2,0-0.2
			c0-0.1-0.1-0.2-0.2-0.2c-0.1-0.1-0.2-0.1-0.3-0.1c-0.1,0-0.3,0-0.4,0c-0.1,0-0.3,0.1-0.4,0.1c-0.1,0-0.3,0.1-0.4,0.2
			c-0.1,0.1-0.2,0.1-0.3,0.2c-0.1,0.1-0.1,0.1-0.2,0.2c0,0.1,0,0.1,0,0.2C399.8,321.3,399.9,321.4,400,321.4L400,321.4z"/>
		<path class="st6" d="M404.5,319.2c0.1,0,0.1,0,0.2,0c0.1,0,0.1,0,0.2,0l0.6,0.4c0,0,0.1,0.1,0.1,0.1s0,0.1-0.1,0.1l-0.6,0.4
			c-0.1,0-0.1,0-0.2,0c-0.1,0-0.1,0-0.2,0l-0.6-0.4c0,0-0.1-0.1-0.1-0.1s0-0.1,0.1-0.1L404.5,319.2z"/>
		<path class="st6" d="M404.5,315.2c0.1,0,0.1,0,0.2,0c0.1,0,0.1,0,0.2,0l0.4,0.2l0.1,0.1c0,0,0.1,0.1,0.1,0.1l1.9,2.9
			c0,0,0,0.1,0,0.1c0,0,0,0.1-0.1,0.1l-0.5,0.3c-0.1,0-0.1,0-0.2,0c-0.1,0-0.1,0-0.2,0l-0.1,0l-2-2.9l-2,1.2c-0.1,0-0.1,0-0.2,0
			c-0.1,0-0.1,0-0.2,0l-0.5-0.3c0,0-0.1-0.1-0.1-0.1c0,0,0-0.1,0.1-0.1L404.5,315.2z"/>
		<path class="st6" d="M410.3,313.7l0.3,0.1l0.3,0.2l0.3,0.2l0.3,0.2c0.2,0.1,0.4,0.3,0.6,0.5c0.1,0.1,0.2,0.3,0.3,0.5
			c0,0.2,0,0.4-0.2,0.5c-0.2,0.2-0.4,0.4-0.7,0.5c-0.3,0.2-0.6,0.3-0.9,0.4c-0.3,0.1-0.6,0.1-0.9,0.1c-0.3,0-0.6-0.1-0.9-0.1
			c-0.3-0.1-0.5-0.2-0.8-0.3l-0.6-0.3l-0.5-0.3c-0.2-0.1-0.4-0.3-0.6-0.5c-0.1-0.1-0.2-0.3-0.3-0.5c0-0.2,0-0.4,0.1-0.5
			c0.2-0.2,0.4-0.4,0.7-0.5c0.3-0.2,0.6-0.3,0.9-0.4c0.3-0.1,0.6-0.1,0.9-0.1c0.3,0,0.6,0.1,0.9,0.1
			C409.8,313.5,410.1,313.6,410.3,313.7z M408.8,315.9c0.3,0.2,0.6,0.2,0.9,0.3c0.3,0,0.6-0.1,0.9-0.2c0.3-0.2,0.4-0.4,0.4-0.5
			c-0.1-0.2-0.3-0.4-0.5-0.5l-0.5-0.3l-0.6-0.3c-0.3-0.2-0.6-0.3-0.9-0.3c-0.3,0-0.6,0.1-0.9,0.2c-0.3,0.2-0.4,0.4-0.4,0.5
			c0.1,0.2,0.3,0.4,0.5,0.5c0.1,0.1,0.3,0.2,0.5,0.3L408.8,315.9z"/>
	</g>
	<g id="freepik--Button--inject-28">
		<g id="freepik--button--inject-28">
			<path class="st19" d="M330.3,384.8l21.3,12.3c0.6,0.3,1.3,0.3,1.8,0l83.5-48.2c0.3-0.1,0.4-0.4,0.3-0.7c-0.1-0.2-0.2-0.3-0.3-0.3
				l-21.3-12.3c-0.6-0.3-1.3-0.3-1.8,0l-83.5,48.2c-0.3,0.1-0.4,0.4-0.3,0.7C330,384.6,330.1,384.7,330.3,384.8z"/>
			<path class="st2" d="M436.9,345.2l-83.5,48.2c-0.6,0.3-1.3,0.3-1.8,0l-21.3-12.3c-0.5-0.4-0.9-0.9-0.9-1.6l0-3.8
				c0-0.6,0.4-1.2,0.9-1.6l83.5-48.2c0.6-0.3,1.3-0.3,1.8,0l21.4,12.3c0.5,0.4,0.9,0.9,0.9,1.6l0,3.8
				C437.8,344.3,437.5,344.9,436.9,345.2z"/>
			<path class="st3" d="M330.4,375.2l21.3,12.3c0.6,0.3,1.3,0.3,1.8,0l83.5-48.2c0.3-0.1,0.4-0.4,0.3-0.7c-0.1-0.2-0.2-0.3-0.3-0.3
				L415.6,326c-0.6-0.3-1.3-0.3-1.8,0l-83.5,48.2c-0.3,0.2-0.3,0.5-0.2,0.8C330.2,375.1,330.3,375.2,330.4,375.2z"/>
			<path class="st15" d="M330.4,374.2c-0.5,0.4-0.9,0.9-0.9,1.6v3.8c0,0.6,0.4,1.2,0.9,1.6l21.3,12.3c0.3,0.2,0.7,0.2,1,0.2v-5.9
				c-0.3,0-0.6-0.1-0.9-0.2l-21.3-12.3C329.9,375,329.8,374.5,330.4,374.2z"/>
			<path class="st10" d="M437.1,338.4c0.4,0.3,0.3,0.7-0.1,1l-83.5,48.2c-0.3,0.2-0.6,0.2-0.9,0.2v5.9c0.3,0,0.6-0.1,0.9-0.2
				l83.5-48.2c0.5-0.3,0.9-0.9,0.9-1.6v-3.8C437.9,339.3,437.6,338.8,437.1,338.4z"/>
		</g>
		<path class="st22" d="M351.7,373.9c-0.3-0.2-0.6-0.5-0.9-0.8c-0.2-0.2-0.3-0.5-0.3-0.8c0-0.3,0.1-0.6,0.3-0.9
			c0.3-0.4,0.7-0.7,1.1-0.9c0.5-0.3,1-0.5,1.5-0.6c0.5-0.1,1-0.2,1.5-0.2c1,0,1.9,0.2,2.8,0.7l0.5,0.2l0.5,0.3
			c0.2,0.1,0.3,0.2,0.5,0.3l0.4,0.3c0.3,0.2,0.6,0.5,0.9,0.8c0.2,0.2,0.3,0.5,0.3,0.8c0,0.3-0.1,0.6-0.3,0.9
			c-0.3,0.4-0.7,0.7-1.1,0.9c-1.8,1.1-4,1.1-5.9,0.1l-0.5-0.2l-0.5-0.3l-0.5-0.3L351.7,373.9z M356.5,371.2
			c-0.5-0.3-1.1-0.4-1.6-0.4c-0.6,0-1.1,0.2-1.6,0.4c-0.5,0.3-0.7,0.6-0.8,0.9s0.2,0.6,0.7,1c0.2,0.2,0.5,0.3,0.9,0.5l0.9,0.5
			c0.5,0.3,1.1,0.4,1.6,0.4c0.6,0,1.1-0.2,1.6-0.4c0.5-0.3,0.7-0.6,0.8-0.9s-0.2-0.6-0.7-0.9c-0.2-0.2-0.5-0.3-0.9-0.5
			S356.7,371.4,356.5,371.2L356.5,371.2z"/>
		<path class="st22" d="M359.4,366.3c0.8-0.5,1.7-0.7,2.6-0.8c0.8,0,1.6,0.2,2.4,0.6c0.4,0.2,0.7,0.5,0.9,1c0.1,0.4,0,0.8-0.2,1
			l4,0.6c0,0,0.1,0,0.1,0c0.1,0,0.1,0.1,0.1,0.1s-0.1,0.1-0.1,0.1l-0.9,0.5c-0.1,0.1-0.3,0.1-0.4,0.1c-0.1,0-0.2,0-0.3,0l-3.8-0.6
			l-1.4,0.8l2.4,1.4c0.1,0,0.1,0.1,0.1,0.2c0,0-0.1,0.1-0.1,0.1l-0.8,0.5c-0.1,0-0.2,0.1-0.3,0.1c-0.1,0-0.2,0-0.3-0.1l-6.7-3.9
			c-0.1,0-0.1-0.1-0.1-0.2c0,0,0.1-0.1,0.1-0.1L359.4,366.3z M361.1,369.1l1.5-0.9c0.3-0.1,0.6-0.4,0.7-0.7c0.1-0.2,0-0.4-0.4-0.7
			c-0.3-0.2-0.7-0.3-1.1-0.2c-0.4,0.1-0.8,0.2-1.1,0.4l-1.5,0.9L361.1,369.1z"/>
		<path class="st22" d="M366.3,362.4c0.5-0.3,1-0.5,1.5-0.6c0.5-0.1,1-0.2,1.5-0.2c0.5,0,1,0.1,1.5,0.2c0.5,0.1,1,0.3,1.4,0.5
			c0.5,0.3,1,0.6,1.5,0.9c0.4,0.2,0.7,0.5,1,0.8c0.4,0.5,0.4,1.2,0,1.7c-0.3,0.4-0.7,0.6-1.1,0.9L371,368c-0.1,0-0.2,0.1-0.3,0.1
			c-0.1,0-0.2,0-0.3-0.1l-6.7-3.9c-0.1,0-0.1-0.1-0.1-0.2c0,0,0.1-0.1,0.1-0.1L366.3,362.4z M370.9,363c-0.2-0.1-0.5-0.2-0.8-0.3
			c-0.3-0.1-0.5-0.1-0.8-0.1c-0.3,0-0.6,0-0.9,0.1c-0.3,0.1-0.6,0.2-0.9,0.4l-1.4,0.8l4.7,2.7l1.5-0.8c0.2-0.1,0.4-0.3,0.6-0.5
			c0.1-0.1,0.2-0.3,0.2-0.5c0-0.2-0.1-0.3-0.2-0.5c-0.1-0.2-0.3-0.3-0.5-0.4C371.9,363.6,371.4,363.3,370.9,363L370.9,363z"/>
		<path class="st22" d="M381.6,360.4c0.1-0.1,0.2-0.1,0.3-0.1c0.1,0,0.2,0,0.3,0.1l0.7,0.4c0.1,0,0.1,0.1,0.1,0.2
			c0,0.1,0,0.1-0.1,0.2l-4.6,2.6c-0.1,0-0.2,0.1-0.3,0.1c-0.1,0-0.2,0-0.3-0.1l-6.7-3.9c-0.1,0-0.1-0.1-0.1-0.2c0-0.1,0-0.1,0.1-0.2
			l4.5-2.6c0.2-0.1,0.4-0.1,0.6,0l0.7,0.4c0.1,0,0.1,0.1,0.1,0.2c0,0.1,0,0.1-0.1,0.2l-3.4,1.9l1.6,1l3.1-1.8c0.1,0,0.2-0.1,0.3-0.1
			c0.1,0,0.2,0,0.3,0.1l0.7,0.4c0.1,0,0.1,0.1,0.1,0.2c0,0.1,0,0.1-0.1,0.2l-3.1,1.8l1.7,1L381.6,360.4z"/>
		<path class="st22" d="M380.1,354.4c0.8-0.5,1.7-0.7,2.6-0.8c0.8,0,1.6,0.2,2.4,0.6c0.4,0.2,0.8,0.6,1,1c0.1,0.4,0,0.7-0.2,1l4,0.7
			c0,0,0.1,0,0.1,0c0.1,0,0.1,0.1,0.1,0.1s0,0.1-0.1,0.1l-0.9,0.5c-0.1,0.1-0.3,0.1-0.4,0.1c-0.1,0-0.2,0-0.3,0l-3.8-0.6l-1.4,0.8
			l2.4,1.4c0.1,0,0.1,0.1,0.1,0.2c0,0.1,0,0.1-0.1,0.2l-0.8,0.5c-0.1,0-0.2,0.1-0.3,0.1c-0.1,0-0.2,0-0.3-0.1l-6.7-3.9
			c-0.1,0-0.1-0.1-0.1-0.2c0-0.1,0-0.1,0.1-0.2L380.1,354.4z M381.8,357.2l1.5-0.9c0.3-0.1,0.6-0.4,0.7-0.7c0.1-0.2,0-0.4-0.4-0.7
			c-0.3-0.2-0.7-0.3-1.1-0.2c-0.4,0.1-0.8,0.2-1.1,0.4l-1.5,0.9L381.8,357.2z"/>
		<path class="st22" d="M389.5,349c0.8-0.5,1.7-0.7,2.6-0.8c0.8,0,1.6,0.2,2.4,0.6c0.4,0.2,0.8,0.5,1,0.9c0.1,0.4,0,0.8-0.2,1l4,0.7
			l0.1,0c0.1,0,0.1,0.1,0.1,0.1c0,0,0,0.1-0.1,0.1l-0.9,0.5c-0.1,0.1-0.3,0.1-0.4,0.1c-0.1,0-0.2,0-0.3,0l-3.8-0.6l-1.4,0.8l2.4,1.4
			c0.1,0,0.1,0.1,0.1,0.2c0,0.1-0.1,0.1-0.1,0.2l-0.8,0.5c-0.1,0-0.2,0.1-0.3,0.1c-0.1,0-0.2,0-0.3-0.1l-6.7-3.9
			c-0.1,0-0.1-0.1-0.1-0.2c0-0.1,0-0.1,0.1-0.2L389.5,349z M391.2,351.8l1.5-0.9c0.3-0.1,0.6-0.4,0.7-0.7c0.1-0.2,0-0.4-0.4-0.6
			c-0.3-0.2-0.7-0.3-1.1-0.2c-0.4,0.1-0.8,0.2-1.1,0.4l-1.5,0.9L391.2,351.8z"/>
		<path class="st22" d="M401,350.7c-0.1,0-0.2,0.1-0.3,0.1c-0.1,0-0.2,0-0.3-0.1l-6.7-3.9c-0.1,0-0.1-0.1-0.1-0.2
			c0,0,0.1-0.1,0.1-0.1l0.8-0.5c0.2-0.1,0.4-0.1,0.6,0l6.7,3.9c0.1,0,0.1,0.1,0.1,0.2c0,0.1-0.1,0.1-0.1,0.2L401,350.7z"/>
		<path class="st22" d="M399.3,343.3c0.9-0.5,2-0.8,3.1-0.9c0.5,0,1,0.1,1.5,0.2c0.5,0.1,1,0.3,1.4,0.5c0.5,0.3,1,0.6,1.5,0.9
			c0.4,0.2,0.7,0.5,0.9,0.8c0.2,0.2,0.3,0.5,0.3,0.9c0,0.3-0.1,0.6-0.4,0.9c-0.3,0.3-0.7,0.6-1.1,0.9L404,349
			c-0.1,0-0.2,0.1-0.3,0.1c-0.1,0-0.2,0-0.3-0.1l-6.7-3.9c-0.1,0-0.1-0.1-0.1-0.2c0-0.1,0-0.1,0.1-0.2L399.3,343.3z M403.9,344
			c-0.2-0.1-0.5-0.2-0.8-0.3c-0.3-0.1-0.5-0.1-0.8-0.1c-0.3,0-0.6,0-0.9,0.1c-0.3,0.1-0.6,0.2-0.9,0.4l-1.4,0.8l4.7,2.7l1.4-0.8
			c0.2-0.1,0.4-0.3,0.6-0.5c0.1-0.1,0.2-0.3,0.2-0.5c0-0.2-0.1-0.3-0.2-0.5c-0.1-0.2-0.3-0.3-0.5-0.4
			C405,344.5,404.4,344.2,403.9,344L403.9,344z"/>
		<path class="st22" d="M414.6,341.4c0.1-0.1,0.2-0.1,0.3-0.1c0.1,0,0.2,0,0.3,0.1l0.7,0.4c0.1,0,0.1,0.1,0.1,0.2
			c0,0.1,0,0.1-0.1,0.2l-4.6,2.6c-0.1,0-0.2,0.1-0.3,0.1c-0.1,0-0.2,0-0.3-0.1l-6.7-3.9c-0.1,0-0.1-0.1-0.1-0.2
			c0-0.1,0.1-0.1,0.1-0.2l4.5-2.6c0.1,0,0.2-0.1,0.3-0.1c0.1,0,0.2,0,0.3,0.1l0.7,0.4c0.1,0,0.1,0.1,0.1,0.2c0,0.1-0.1,0.1-0.1,0.2
			l-3.4,1.9l1.6,1l3.1-1.8c0.2-0.1,0.4-0.1,0.6,0l0.7,0.4c0.1,0,0.1,0.1,0.1,0.2c0,0.1,0,0.1-0.1,0.2l-3.1,1.8l1.7,1L414.6,341.4z"
			/>
	</g>
</g>
<g id="freepik--Pin--inject-28">
	<g id="freepik--pin--inject-28">
		<path class="st2" d="M114.6,158v-4.2c0.1-5.5,1-10.9,2.7-16.1l0,0c4.4-13.6,13.7-26.6,24.4-32.8c6.8-3.9,13-4.4,17.8-2.1l-9.4-5.4
			c-2.3-1.5-5-2.3-7.8-2.3c-0.4,0-0.9,0-1.3,0.1c-0.5,0-0.9,0.1-1.4,0.2c-0.5,0.1-0.9,0.1-1.4,0.3c-0.5,0.1-1,0.2-1.4,0.4
			c-1,0.3-2,0.7-2.9,1.1c-0.5,0.2-1,0.5-1.5,0.7s-1,0.5-1.5,0.8c-15,8.6-27.1,30.6-27.1,49v4.2c0,18.4,24.7,38.4,24.7,38.4l10,5.7
			c-0.2-0.1-0.4-0.2-0.5-0.4C130.6,188.6,114.6,172.2,114.6,158z M144.1,119.3c0.1,0.5,0.2,0.9,0.2,1.4c0,0.2,0,0.3,0,0.5
			c0,0.3,0,0.6,0,0.8c0,8.6-6.1,19.1-13.6,23.5c-0.3,0.1-0.5,0.3-0.8,0.4s-0.5,0.3-0.8,0.4l-0.8,0.3h-0.1c1.2,6.6,6.7,8.9,13.3,5.1
			c7.5-4.3,13.5-14.8,13.5-23.5C155.2,120.7,150.4,117,144.1,119.3L144.1,119.3z"/>
		<path class="st15" d="M114.6,158v-4.2c0.1-5.5,1-10.9,2.7-16.1l0,0c4.4-13.6,13.7-26.6,24.4-32.8c6.8-3.9,13-4.4,17.8-2.1
			l-9.4-5.4c-2.3-1.5-5-2.3-7.8-2.3c-0.4,0-0.9,0-1.3,0.1c-0.5,0-0.9,0.1-1.4,0.2c-0.5,0.1-0.9,0.1-1.4,0.3c-0.5,0.1-1,0.2-1.4,0.4
			c-1,0.3-2,0.7-2.9,1.1c-0.5,0.2-1,0.5-1.5,0.7s-1,0.5-1.5,0.8c-15,8.6-27.1,30.6-27.1,49v4.2c0,18.4,24.7,38.4,24.7,38.4l10,5.7
			c-0.2-0.1-0.4-0.2-0.5-0.4C130.6,188.6,114.6,172.2,114.6,158z"/>
		<path class="st23" d="M144.1,119.3c0.1,0.5,0.2,0.9,0.2,1.4c0,0.2,0,0.3,0,0.5c0,0.3,0,0.6,0,0.8c0,8.6-6.1,19.1-13.6,23.4
			c-0.3,0.1-0.5,0.3-0.8,0.4s-0.5,0.3-0.8,0.4l-0.8,0.3h-0.1c1.2,6.6,6.7,8.9,13.3,5.1c7.5-4.3,13.5-14.8,13.5-23.5
			C155.2,120.7,150.4,117,144.1,119.3z"/>
		<path class="st3" d="M168.8,122.6c0-18.4-12.1-26.3-27.1-17.7s-27.1,30.6-27.1,49v4.1c0,14.2,16.1,30.6,23.4,37.4
			c1.5,1.4,3.8,1.3,5.2-0.2c0.2-0.3,0.4-0.6,0.6-0.9c6.4-13.1,25-52.4,25-67.6L168.8,122.6z M141.7,151.8
			c-7.5,4.3-13.5,0.8-13.5-7.8s6.1-19.1,13.5-23.4s13.5-0.8,13.5,7.8S149.1,147.4,141.7,151.8L141.7,151.8z"/>
		<path class="st2" d="M159.5,102.8l-9.4-5.4c-2.3-1.5-5-2.3-7.8-2.3c-0.4,0-0.9,0-1.3,0.1c-0.5,0-0.9,0.1-1.4,0.2
			c-0.5,0.1-0.9,0.1-1.4,0.3c-0.5,0.1-1,0.2-1.4,0.4c-1,0.3-2,0.7-2.9,1.1c-0.5,0.2-1,0.5-1.5,0.7s-1,0.5-1.5,0.8
			c-10.1,5.8-18.9,17.8-23.6,30.6l10.8,6.2c4.7-12.8,13.5-24.7,23.6-30.6C148.5,100.9,154.7,100.4,159.5,102.8z"/>
		<path class="st15" d="M159.5,102.8l-9.4-5.4c-2.3-1.5-5-2.3-7.8-2.3c-0.4,0-0.9,0-1.3,0.1c-0.5,0-0.9,0.1-1.4,0.2
			c-0.5,0.1-0.9,0.1-1.4,0.3c-0.5,0.1-1,0.2-1.4,0.4c-1,0.3-2,0.7-2.9,1.1c-0.5,0.2-1,0.5-1.5,0.7s-1,0.5-1.5,0.8
			c-10.1,5.8-18.9,17.8-23.6,30.6l10.8,6.2c4.7-12.8,13.5-24.7,23.6-30.6C148.5,100.9,154.7,100.4,159.5,102.8z"/>
		<path class="st2" d="M141.7,104.9l-1.6,1.1c-0.5,0.3-1.1,0.7-1.6,1.1c-1,0.8-2.1,1.6-3,2.5s-1.9,1.7-2.8,2.7l-1.3,1.4l-1.2,1.5
			c-6.6,8-11.3,17.4-13.9,27.4c-0.3,1.2-0.5,2.5-0.8,3.8s-0.3,2.6-0.5,3.8s-0.2,2.6-0.2,3.9l-0.1,3.9l-0.1-3.9c0-1.3,0-2.6,0.1-3.9
			s0.2-2.6,0.4-3.9s0.4-2.6,0.7-3.9c2.3-10.2,7.1-19.7,14-27.7C133.1,110.8,137.1,107.4,141.7,104.9z"/>
		<g class="st24">
			<path class="st22" d="M141.7,104.9l-1.6,1.1c-0.5,0.3-1.1,0.7-1.6,1.1c-1,0.8-2.1,1.6-3,2.5s-1.9,1.7-2.8,2.7l-1.3,1.4l-1.2,1.5
				c-6.6,8-11.3,17.4-13.9,27.4c-0.3,1.2-0.5,2.5-0.8,3.8s-0.3,2.6-0.5,3.8s-0.2,2.6-0.2,3.9l-0.1,3.9l-0.1-3.9c0-1.3,0-2.6,0.1-3.9
				s0.2-2.6,0.4-3.9s0.4-2.6,0.7-3.9c2.3-10.2,7.1-19.7,14-27.7C133.1,110.8,137.1,107.4,141.7,104.9z"/>
		</g>
	</g>
</g>
<g id="freepik--Road--inject-28">
	<g id="freepik--road--inject-28">
		<path class="st21" d="M20.3,392.6l118,68.2c32.4,18.7,72.3,18.7,104.7,0l90.8-52.5l-85.6-49.5l-35.5,20.7
			c-13.6,7.8-30.3,7.8-43.9,0l-62.8-36.3c-15-8.6-39.5-8.7-54.4,0l-31.2,18C5.3,369.8,5.3,383.9,20.3,392.6z"/>
		<path class="st1" d="M239,410.1l-14.3,8.2c-3,1.7-6.1,3.2-9.3,4.5l4.8,4.1c3.6-1.4,7.2-3.1,10.6-5.1l14.3-8.2L239,410.1z"/>
		<polygon class="st1" points="287.9,381.8 269.9,392.2 276,395.7 294,385.3 		"/>
		<path class="st1" d="M152.1,415.8l-6.1,3.5l4.4,2.6c7.4,4.3,15.5,7.3,23.9,9l2.9-4.7c-7.3-1.5-14.3-4.1-20.7-7.9L152.1,415.8z"/>
		<polygon class="st1" points="78.2,373.1 54.7,359.6 48.6,363.1 72.1,376.6 		"/>
		<polygon class="st1" points="91.2,387.7 114.7,401.2 120.8,397.7 97.3,384.2 		"/>
	</g>
</g>
<g id="freepik--Car--inject-28">
	<g id="freepik--car--inject-28_00000001665847813848614480000006254019052026219392_">
		<path id="freepik--shadow--inject-28_00000057137273802377570870000007475633854777125298_" class="st19" d="M67.8,345.7l-44.9,26
			c-6.3,3.7-6.3,9.6,0,13.2l84.5,48.6c31.7,18.4,93.3-25,67.9-39.2l-84.6-48.7C84.4,342,74.1,342,67.8,345.7z"/>
		<g id="freepik--car--inject-28">
			<g id="freepik--Interiors--inject-28">
				<path class="st3" d="M64.5,320.6c7.2-2.3,15.1-1.4,21.7,2.4c2.5,1.4,7.6,4.3,13.8,8c4.9,4.9,10.4,9.1,16.5,12.4
					c17.5,9.1,29.3,14.6,29.3,14.6c-0.3,0.3-0.7,0.5-1.1,0.6c-5.2,2.1-17.5,13.4-26,10.4C108.8,365.5,64.5,320.6,64.5,320.6z"/>
				<path class="st9" d="M138.5,354.7c0,0-20.7-9.1-23.7-10.9c-2.3-1.4-4.4-3-6.4-4.7c-1-0.9-0.7,2.2,4.4,5
					C119.7,348,138.5,354.7,138.5,354.7z"/>
				<path class="st5" d="M107.2,333c0,0.9-0.1,2.1-0.2,3.8c-0.2,1.8,0.2,3.5,1.2,5c0.9,1.3,2,2.3,3.3,3.1
					c10.3,6.3,34.2,13.2,34.2,13.2l-1.1,0.6l-28.5-3.2l-12.4-8.2l-0.3-13.4l1.9-1L107.2,333z"/>
				<path class="st2" d="M103.4,333.8v0.7c0.2,0.8,0.7,1.5,1.3,2c0.3,0.2,0.7,0.3,1.1,0.3c0.7,0,1.3-0.4,1.3-0.9v-0.5
					c0.1-1.1,0.1-1.8,0.1-2.4l-1.9-0.2L103.4,333.8z"/>
				<path class="st25" d="M103.4,333.8v0.7c0.2,0.8,0.7,1.5,1.3,2c0.3,0.2,0.7,0.3,1.1,0.3c0.7,0,1.3-0.4,1.3-0.9v-0.5
					c0.1-1.1,0.1-1.8,0.1-2.4l-1.9-0.2L103.4,333.8z"/>
				<path class="st3" d="M60.1,324.8c2.1-4.9,5.8-4.9,12.1-4c0.7,0.1,16.6,3.4,25.5,6.8c6.7,2.6,8.7,4.5,9.2,4.8
					c1.2,0.7-0.8,1.9-2.2,1.3c0,1.1,0,2,0,2.8c0.2,4.8,1,5.5,3.3,8.1c1,1.1,3.8,2.5,5.4,3.4c2.9,1.6,2.8,0.4,10.5,3.3
					c3.3,1.3,19.2,7.2,20.9,7.2l-42.3,26.5l-13.4,10l-61.4-49L60.1,324.8z"/>
				<polygon class="st2" points="104.7,333.7 99.7,330.4 58.9,352.7 65.4,356.4 65.4,381.6 104.7,358.9 				"/>
				<polygon class="st26" points="104.7,333.7 99.7,330.4 57.8,351.2 47.3,352.5 50,360.9 65.4,381.6 104.7,358.9 				"/>
				<path class="st27" d="M93.2,326.6c3.3,1,5.5,1.6,4.7,2.1s-21.8-5.3-25.9-6s-7.3-1.1-2.2-2.2c4.5-1,7.4-0.7,10.2,0.2
					c2.7,1.1,5.3,2.3,7.8,3.7c0,0-13.1-3.2-13.6-3.3s-1.7,0,1.3,0.9S90,325.6,93.2,326.6z"/>
				<path class="st25" d="M115.4,372.2c0,0-0.7-13.5-1.2-23.7c3.3,1.7,2.6,0.1,9.6,2.8c2.9,1.1,15.3,5.8,19.6,7l1.3,0.3l-24.8,15.5
					L115.4,372.2z"/>
			</g>
			<g id="freepik--back-car--inject-28">
				<polygon class="st2" points="21.2,369.4 37.9,359.8 28.6,354.5 19.6,360.1 				"/>
				<polygon class="st28" points="21.2,369.4 37.9,359.8 28.6,354.5 19.6,360.1 				"/>
				<path class="st5" d="M28.2,367.1l-2.4-4.8l5.7-3.3l0,0c1.8-1,4.2-0.9,6.9,0.6c5.6,3.3,10.2,11.6,10.2,18.7
					c0,3.7-1.2,6.3-3.2,7.5l0,0h-0.1l0,0l-5.8,3.4l-2.5-5C32.1,380.7,28.4,373.5,28.2,367.1z"/>
				<path class="st14" d="M28.2,367.1l-2.4-4.8l5.7-3.3l0,0c1.8-1,4.2-0.9,6.9,0.6c5.6,3.3,10.2,11.6,10.2,18.7
					c0,3.7-1.2,6.3-3.2,7.5l0,0h-0.1l0,0l-5.8,3.4l-2.5-5C32.1,380.7,28.4,373.5,28.2,367.1z"/>
				<path class="st5" d="M22.3,370.1c0.3,6.5,3.1,12.7,7.9,17.1l0,0c0.7,0.6,1.4,1.1,2.2,1.6c5.6,3.2,10.2,0.1,10.2-6.9
					c-0.2-5.7-2.4-11.2-6.3-15.5l0,0c-1.1-1.2-2.4-2.3-3.8-3.2C26.9,359.9,22.3,363,22.3,370.1z"/>
				<path class="st6" d="M32.5,367.4c-3.6-2.1-6.5,0.1-6.5,4.8s2.9,10.2,6.5,12.3s6.5-0.1,6.5-4.8S36,369.5,32.5,367.4z"/>
				<path class="st1" d="M29.6,374.6c0.2,2.4,1.7,4.9,3.3,5.6c0.6,0.3,1.3,0.3,1.8-0.1c0.7-0.8,0.9-1.8,0.7-2.8
					c-0.2-2.4-1.7-4.9-3.3-5.6c-0.4-0.2-0.8-0.2-1.2-0.2l0,0C30,371.8,29.4,372.9,29.6,374.6z"/>
				<path class="st21" d="M30.1,374.3c0.2,2.4,1.7,4.9,3.3,5.6c0.4,0.2,0.8,0.2,1.2,0.2c0.7-0.8,0.9-1.8,0.7-2.8
					c-0.2-2.4-1.7-4.9-3.3-5.6c-0.4-0.2-0.8-0.2-1.2-0.2l0,0C30.2,372.3,29.9,373.3,30.1,374.3z"/>
				<path class="st6" d="M22.3,370.1c0.3,6.5,3.1,12.7,7.9,17.1c-3.1-3.6-5.4-7.9-6.5-12.5c-0.9-4.1-0.5-9.9,3-11.4s8.1,1.6,9.6,3.1
					c-1.1-1.2-2.4-2.3-3.8-3.2C26.9,359.9,22.3,363,22.3,370.1z"/>
				<path class="st3" d="M19.5,346.3c2.1-4.9,10.7-9.9,14.3-8.1c1.1,0.6,4.4,2.5,8.5,4.9c0,0,13.5,8.1,14.7,8.9c0,0-6.4-0.1-7.9,0.4
					c-0.8,0.2-1.3,1-1.1,1.9c0,0.1,0,0.1,0.1,0.2l0.7,2.4c1.7,8.1,14.4,11.5,17.1,14.5c0.9,1,2.1,1.8,3.3,2.4
					c1.6,0.9,11.2,6.3,12.6,7.1c2.5,1.4,6.5,3.2,6.5,3.2v24l-42.3-24.3c0-0.7,0-1.3-0.1-2C45,374,39.3,365,33.2,361.4
					c-6.6-3.8-12-0.2-12,8l-1.1-0.6C16.3,366.5,17.5,351.2,19.5,346.3z"/>
				<path d="M43,352.1c2.6,0,2.7,1.4,3.6,4c0.7,2.1,1.7,4,0.4,3.4s-5.6-5.2-6.4-6C39,351.8,41.8,352.1,43,352.1z"/>
				<path class="st3" d="M30.4,338c1.2-0.3,2.4-0.3,3.6,0.2c1.1,0.6,4.4,2.5,8.5,4.9l5.5,3.2l29.4-16.9c0,0-11.4-5.8-15.5-7.4
					S31.5,335,30.4,338z"/>
				<path class="st9" d="M87.4,385.6l-22.7-13c-0.5,0.4-0.7,0.9-0.7,1.5L87.4,385.6z"/>
				<path class="st5" d="M68.1,377.8c0.1,0,0.2,0,0.2-0.1c0,0,0,0,0-0.1V377c0-0.5-0.7-1.3-1.6-1.8l-1.3-0.8c-0.9-0.5-1.6-0.5-1.6,0
					v0.5c0,0.2,0.1,0.4,0.3,0.5L68.1,377.8z"/>
				<path class="st9" d="M52,365.1c1.2,0.9,7.8,4.8,8.7,5.4c-0.5,0.5-0.9,1.2-1.2,1.9c0,0-23.5-13.6-29.3-18.7s-8.9-9.8-4.5-12.3
					c1.4-0.8,2.6-1.8,4.2-1.1c0.1,0,0.2,0.1,0.3,0.2c0.1,0.2,0.2,0.4,0.3,0.6c1.3,5.1,5.4,8.9,8.8,12.7
					C43.3,357.9,47.5,361.7,52,365.1z"/>
				<path class="st19" d="M95.3,329c0,0-27.9-7.9-29.9-6.7s24.4,12.8,24.4,12.8L95.3,329z"/>
				<path class="st19" d="M84.8,401.9c1,0.5,1.2-1.6,1.8-5.8c0.4-3.7,0.5-7.4,0.5-11.1c0.7,3.1,0.4,10.7,0,15.5s-1.3,4.4-2.3,3.7
					l-22.5-13.8L84.8,401.9z"/>
				<path class="st19" d="M63.3,371.6c-1,1.4-1.4,3.1-1.3,4.8c0,4,0,13.4,0,13.4s-0.7-10.5-1.2-13.7c-0.3-1.8,0.1-3.7,1.2-5.1
					L63.3,371.6z"/>
				<path class="st19" d="M37.9,364c0.3-1.4,0.7-2.7,1.4-3.9c0.8-1.1,5.1-1.6,5.1-1.6s-3.4,1.2-4.3,2.2
					C39.2,361.7,38.5,362.8,37.9,364z"/>
				<path class="st19" d="M25.3,360.2c0,0-4.3-2.5-5.2-4.1s-1.3-7-1.3-7s-0.4,6.2,0.7,7.7S25.3,360.2,25.3,360.2z"/>
				<path class="st3" d="M35.6,347.5c3.6-3.5,8.1-6,12.4-8.6s8.5-5.2,12.8-7.7c3.5-2.1,7.1-4.1,10.8-5.9c1-0.5,2-1,3-1.4
					c0.1-0.1,0.3-0.1,0.4-0.1l0,0c0.5-0.2,1.2-0.4,1.9-0.5c5.2-1.4,10.5-2,15.9-1.8c4.9,0.3,29.8,12.2,32.6,15.4
					c1.3,1.4,2.5,3,3.6,4.5c0,0-3.4-2.6-5.1-2c-1.3,0.5-11,9.2-17.5,12.6c-7.7,4-18.4,8-21,9.3s-1,4.4-1,4.4c-0.9-1.6-2-3.1-3.4-4.3
					c-2.7-2.3-13.9-8.1-14-8.2c-1.6-0.8-3.3-1.3-5-1.4l-11.6,0.4l-13.3-2.8c-0.7,0-1.4-0.2-2-0.6C35,348.3,35.3,347.8,35.6,347.5z"
					/>
				<path class="st19" d="M40.3,349.1c2.1-0.2,4.1-0.6,6.1-1c2.3-0.4,4.6-1,6.8-2c2.9-1.5,5.7-3.1,8.5-4.7c7.7-4.4,15-8.6,22.7-13.7
					c7.2-4.8,8.2-6.2,11.1-5.7c-0.9-0.3-1.8-0.5-2.8-0.6c-6-0.2-12,0.6-17.8,2.4c-1.2,0.4-2.3,0.9-3.4,1.5
					c-3.7,1.8-7.2,3.9-10.8,5.9c-4.3,2.5-8.6,5.1-12.8,7.7s-8.7,5.2-12.4,8.6c-0.3,0.3-0.7,0.8-0.5,1.2c1,0.5,2.2,0.8,3.4,0.6
					C39.1,349.2,39.7,349.2,40.3,349.1z"/>
				<path class="st5" d="M43.9,347.5c4.9-0.9,9.6-2.6,13.9-5.2c3.1-1.8,17.7-10.6,23-13.7s6.9-4.6,4.2-4.7c-2.1,0.1-4.2,0.4-6.2,0.8
					c-3,0.5-5.8,1.5-8.3,3.1c-7,4-13.4,8-22.5,13.2C33.1,349.5,37.7,348.5,43.9,347.5z"/>
				<path class="st14" d="M48.1,357.2c0.7,2.7,1.3,3.8,3.2,5.4c3.8,3.1,13.8,9.2,14.5,9.7s0.9,0.6,1.6,1l16.3,9.4
					c0,0,11.1,5.7,10.7,3.6s-7.8-17.2-9.1-20s-1.7-4.6-4.4-6.1s-11.8-6.9-13.5-7.9c-0.1-0.1-0.3-0.2-0.4-0.2
					c-2.3-1.2-4.9-1.7-7.5-1.5c-3.2,0.1-10.3,0.2-12.1,1.3C46.3,352.7,47.2,354,48.1,357.2z M65.6,369.1v-14.1c0-0.3,0-0.6,0-0.8
					c0-0.3,0.3-0.6,0.6-0.5c0.1,0,0.2,0,0.3,0.1l0,0c1.7,1,10.6,6,13.5,7.6c1.3,0.7,2.3,2.4,3.3,4.8s6.4,13.8,8.3,18.5
					c-0.1,0-9.2-4.3-15.4-8c-4.8-2.9-8.1-4.5-9.3-5.3C66,371.1,65.5,370.1,65.6,369.1z M62.1,352.3c1.5,0.2,1.9,1,1.9,2.8
					c0,3.4,0,9.4,0,12.3c0,1.1-0.2,2.1-1.3,1.4c-2.7-1.7-9.8-6.2-11.1-7.2c-1.6-1.3-2.8-6.8-3.1-8.1C48,351.7,60.2,352,62.1,352.3z"
					/>
				<path class="st14" d="M66.9,371.6c1.2,0.8,4.5,2.4,9.3,5.3c6.2,3.7,15.4,7.9,15.4,8c-1.9-4.7-7.3-16.1-8.3-18.5s-2-4.1-3.3-4.8
					c-2.9-1.6-11.8-6.6-13.5-7.6l0,0c-0.3-0.2-0.7-0.1-0.8,0.2c0,0.1-0.1,0.2-0.1,0.3c0,0.2,0,0.5,0,0.8v14.1
					C65.5,370.2,66.1,371.1,66.9,371.6z"/>
				<path class="st14" d="M48.4,353.4c0.3,1.3,1.5,6.8,3.1,8.1c1.3,1,8.5,5.5,11.1,7.2c1,0.7,1.3-0.2,1.3-1.4c0-2.9,0-8.9,0-12.3
					c0.1-1.8-0.4-2.5-1.9-2.8C60.2,352,48,351.7,48.4,353.4z"/>
				<path class="st29" d="M66.9,371.6c1.2,0.8,4.5,2.4,9.3,5.3c6.2,3.7,15.4,7.9,15.4,8c-1.9-4.7-7.3-16.1-8.3-18.5s-2-4.1-3.3-4.8
					c-2.9-1.6-11.8-6.6-13.5-7.6l0,0c-0.3-0.2-0.7-0.1-0.8,0.2c0,0.1-0.1,0.2-0.1,0.3c0,0.2,0,0.5,0,0.8v14.1
					C65.5,370.2,66.1,371.1,66.9,371.6z"/>
				<path class="st29" d="M48.4,353.4c0.3,1.3,1.5,6.8,3.1,8.1c1.3,1,8.5,5.5,11.1,7.2c1,0.7,1.3-0.2,1.3-1.4c0-2.9,0-8.9,0-12.3
					c0.1-1.8-0.4-2.5-1.9-2.8C60.2,352,48,351.7,48.4,353.4z"/>
			</g>
			<g id="freepik--front-car--inject-28">
				<path class="st6" d="M96.4,385.4c7.5-5.6,15.2-10.7,23.2-15.5c8-4.6,16.4-8.3,25.1-11.3c-0.4,1.3-2.4,3.4-5.2,5.7
					c-2,1.6-4.2,3.3-6.8,5c-6.1,4.3-11.9,7.2-14,8.5c-10.5,5.7-21.2,10.1-22.9,8L96.4,385.4z"/>
				<path class="st5" d="M95.7,385.7c0.5-0.3,17.1-10.5,24.8-15.2c7.3-4.4,22.4-11.2,24.2-12c-8.7,2.9-17.1,6.7-25.1,11.3
					C111.4,374.7,103.4,380,95.7,385.7z"/>
				<path class="st30" d="M142.1,354.1L142.1,354.1l0.4,1.6c0.9,1.6,2.8,3.6,3.4,3.5s1-1,1.2-2.1l0,0c0.1-0.5,0.1-1.1,0.1-1.6
					c0.1-1.7-0.7-5.8-3.1-6.8c-0.5-0.2-1.1-0.1-1.4,0.3c-0.3,0.3-0.6,0.7-0.7,1.1C141.8,351.4,141.9,352.8,142.1,354.1z"/>
				<path class="st30" d="M142.5,355.6c0.9,1.6,2.8,3.6,3.4,3.5s1-1,1.2-2.1l0,0c0.1-0.5,0.1-1.1,0.1-1.6c0.1-1.7-0.7-5.8-3.1-6.8
					c-0.5-0.2-1.1-0.1-1.4,0.3l0.3,0.7c1.7,0.7,2.1,3.3,2,5.3S143.5,356.7,142.5,355.6z"/>
				<path class="st5" d="M142.1,350c0.6-0.6,2.1-0.7,3.4,1.1c1.1,1.8,1.6,3.8,1.7,5.9c0.1-0.5,0.1-1.1,0.2-1.6
					c0.1-1.7-0.7-5.8-3.1-6.8C143.2,348.1,142.4,349.1,142.1,350z"/>
				<polygon class="st2" points="88.2,408 104.9,398.4 95.7,393 88.2,397.3 				"/>
				<polygon class="st28" points="88.2,408 104.9,398.4 95.7,393 88.2,397.3 				"/>
				<path class="st5" d="M95.1,405.6l-2.4-4.8l5.7-3.3l0,0c1.8-1,4.2-0.9,6.9,0.6c5.6,3.2,10.2,11.6,10.2,18.7
					c0,3.7-1.2,6.3-3.2,7.5l0,0l-0.1,0l0,0l-5.8,3.4l-2.5-5C99,419.1,95.3,411.9,95.1,405.6z"/>
				<path class="st14" d="M95.1,405.6l-2.4-4.8l5.7-3.3l0,0c1.8-1,4.2-0.9,6.9,0.6c5.6,3.2,10.2,11.6,10.2,18.7
					c0,3.7-1.2,6.3-3.2,7.5l0,0l-0.1,0l0,0l-5.8,3.4l-2.5-5C99,419.1,95.3,411.9,95.1,405.6z"/>
				<path class="st5" d="M89.2,408.5c0.2,6.5,3.1,12.7,7.9,17.1l0,0c0.7,0.6,1.4,1.1,2.2,1.6c5.6,3.2,10.2,0.1,10.2-6.9
					c-0.2-5.7-2.5-11.2-6.3-15.5l0,0c-1.1-1.2-2.4-2.3-3.8-3.2C93.7,398.4,89.2,401.5,89.2,408.5z"/>
				<path class="st6" d="M99.3,405.9c-3.6-2.1-6.5,0.1-6.5,4.8s2.9,10.2,6.5,12.3s6.5-0.1,6.5-4.8S102.9,407.9,99.3,405.9z"/>
				<path class="st1" d="M96.4,413.1c0.2,2.3,1.8,4.8,3.4,5.5c0.6,0.3,1.3,0.3,1.8-0.1c0.7-0.8,0.9-1.8,0.7-2.8
					c-0.2-2.4-1.8-4.8-3.4-5.6c-0.4-0.2-0.8-0.2-1.2-0.1l0,0C96.8,410.2,96.2,411.4,96.4,413.1z"/>
				<path class="st21" d="M97,412.8c0.2,2.4,1.8,4.8,3.4,5.6c0.4,0.2,0.8,0.2,1.2,0.1c0.7-0.8,0.9-1.8,0.7-2.8
					c-0.2-2.4-1.8-4.8-3.4-5.6c-0.4-0.2-0.8-0.2-1.2-0.1l0,0C97.1,410.8,96.8,411.8,97,412.8z"/>
				<path class="st6" d="M89.2,408.5c0.2,6.5,3.1,12.7,7.9,17.1c-3.1-3.6-5.4-7.9-6.5-12.5c-0.9-4.1-0.5-9.9,3-11.4s8.1,1.6,9.6,3.1
					c-1.1-1.2-2.4-2.3-3.8-3.2C93.7,398.4,89.2,401.5,89.2,408.5z"/>
				<path class="st3" d="M88.2,384c0,0,1-0.2,0.7-1c0,0,5.7,2.6,6.9,3c2.6,0.9,12.4-2.6,22.9-8.3c2.1-1.2,7.9-4.2,14-8.5
					c2.6-1.7,4.8-3.4,6.8-5c1.7-1.4,3.2-2.9,4.6-4.5c0.6-0.7,0.8-1.6,0.6-2.5c20.8,14.8,32.2,20.9,29.8,37.8
					c-0.1,1.3-0.3,2.5-0.5,3.7c-0.7,3.8-2.7,10.3-8,14c-3.7,2.7-7.6,5.1-11.6,7.1c-7.3,3.9-15.5,5.9-23.9,5.8
					c-9.6-0.3-18.1-4-18.3-6.2c-0.1-1-0.3-2-0.5-3c-0.6-2.5-1.6-5-2.8-7.3c-1.8-3.4-4.3-6.3-7.4-8.6c-0.4-0.3-0.7-0.5-1.1-0.7
					c-6.2-3.6-11.3-0.7-11.9,6.4c-0.1,0.5-0.1,1-0.1,1.6L88.2,384z"/>
				<path class="st6" d="M145.2,421c5.2-1.4,10.1-3.5,14.6-6.4c3.3-1.8,6.2-4.1,8.6-6.9c1.5-1.9,2.4-4.3,1.5-4
					c-2.3,2-4.6,3.9-7.1,5.5c-6.5,3.9-13.4,8.8-24,9c-0.7,0-1.3,0-2,0.2C134.2,419.3,141.1,422.1,145.2,421z"/>
				<path class="st6" d="M123.4,416.2c0.6-0.1,2.1,0.3,4.6,1s3.1,0.8,4,1.4s2.9,2.2,3.9,2.8c1.6,0.8,0,1.4-4.5,1.4s-6-1.3-7-2.7
					S122,416.4,123.4,416.2z"/>
				<path class="st6" d="M174.4,396.2L174.4,396.2c-0.1,0.6-0.2,1.5-0.4,2.6c-0.3,1.9-0.9,3.7-1.6,5.5c-0.2,0.3-0.5,0.4-0.8,0.5
					c-0.8,0-0.1-1.4,0.4-3.3S173.9,397.6,174.4,396.2z"/>
				<path class="st31" d="M162,390.7c-5.9,4.3-12.3,8-19,11c-0.9,0.3-1.3,1.3-1,2.2c0,0.1,0.1,0.2,0.2,0.3c1,1.3,2.2,2.4,3.6,3.2
					c1.2,0.5,2.5,0.5,3.7,0c5.2-1.9,10-4.6,14.3-8.2c1-0.8,1.6-2,1.8-3.2c0.1-1.7-0.2-3.4-0.7-5C164.4,389.9,162.9,390.1,162,390.7z
					"/>
				<path class="st2" d="M147.4,406.5c0.6,0,1.1-0.1,1.6-0.3c5.1-1.8,9.8-4.5,14-8c0.7-0.6,1.2-1.5,1.4-2.4c0.1-1.5-0.2-3-0.6-4.5
					c-0.2-0.4-0.8,0.1-1,0.3c-6,4.3-12.5,8.1-19.2,11.1c-0.2,0.1-0.4,0.3-0.4,0.5c0,0.1,0,0.2,0.1,0.3c0.9,1.2,2,2.1,3.2,2.8
					C146.7,406.4,147,406.5,147.4,406.5z"/>
				<path class="st29" d="M147.4,406.5c0.6,0,1.1-0.1,1.6-0.3c5.1-1.8,9.8-4.5,14-8c0.7-0.6,1.2-1.5,1.4-2.4c0.1-1.5-0.2-3-0.6-4.5
					c-0.2-0.4-0.8,0.1-1,0.3c-6,4.3-12.5,8.1-19.2,11.1c-0.2,0.1-0.4,0.3-0.4,0.5c0,0.1,0,0.2,0.1,0.3c0.9,1.2,2,2.1,3.2,2.8
					C146.7,406.4,147,406.5,147.4,406.5z"/>
				<path class="st2" d="M156.5,403.3l1.1-0.3c-0.6-2.4-1.5-4.7-2.7-6.9l-1,0.6C155.1,398.8,155.9,401,156.5,403.3z"/>
				<path class="st31" d="M156.5,403.3l1.1-0.3c-0.6-2.4-1.5-4.7-2.7-6.9l-1,0.6C155.1,398.8,155.9,401,156.5,403.3z"/>
				<path class="st2" d="M142.7,403.7c4.3-1.8,8.4-3.8,12.4-6.1c4.6-2.8,9.1-6,9.1-6.1l-0.1-0.2c-0.1,0-4.6,3.3-9.1,6.1
					c-4,2.3-8.1,4.4-12.3,6.1L142.7,403.7z"/>
				<path class="st2" d="M143.3,404.3c4.2-1.7,8.3-3.7,12.2-6c4.6-2.8,8.8-5.9,8.8-5.9l-0.1-0.2c0,0-4.2,3.1-8.8,5.9
					c-3.9,2.3-8,4.3-12.1,6L143.3,404.3z"/>
				<path class="st2" d="M143.9,404.8c4.1-1.7,8.2-3.7,12-5.9c4.6-2.8,8.4-5.7,8.5-5.7l-0.1-0.1c0,0-3.9,2.9-8.5,5.7
					c-3.8,2.3-7.9,4.2-12,5.9L143.9,404.8z"/>
				<path class="st2" d="M144.5,405.4c4.1-1.6,8-3.6,11.8-5.8c4.6-2.8,8.1-5.5,8.2-5.5l-0.1-0.2c0,0-3.6,2.7-8.1,5.5
					c-3.8,2.2-7.7,4.2-11.8,5.8L144.5,405.4z"/>
				<path class="st2" d="M145.1,405.9c4-1.6,7.9-3.5,11.6-5.7c4.6-2.8,7.8-5.3,7.9-5.3l-0.1-0.2c0,0-3.3,2.5-7.8,5.3
					c-3.7,2.2-7.6,4.1-11.6,5.7L145.1,405.9z"/>
				<path class="st2" d="M145.6,406.5c4-1.6,7.8-3.4,11.4-5.6c2.6-1.6,5.1-3.3,7.5-5.1l-0.1-0.2c-2.4,1.8-4.9,3.6-7.5,5.1
					c-3.6,2.2-7.5,4-11.4,5.6L145.6,406.5z"/>
				<path class="st2" d="M146.2,407c3.9-1.5,7.7-3.4,11.2-5.5c2.5-1.5,4.9-3.2,7.2-5l-0.1-0.1c-5.6,4.3-11.8,7.9-18.4,10.4
					L146.2,407z"/>
				<g class="st32">
					<path class="st22" d="M142.7,403.7c4.3-1.8,8.4-3.8,12.4-6.1c4.6-2.8,9.1-6,9.1-6.1l-0.1-0.2c-0.1,0-4.6,3.3-9.1,6.1
						c-4,2.3-8.1,4.4-12.3,6.1L142.7,403.7z"/>
					<path class="st22" d="M143.3,404.3c4.2-1.7,8.3-3.7,12.2-6c4.6-2.8,8.8-5.9,8.8-5.9l-0.1-0.2c0,0-4.2,3.1-8.8,5.9
						c-3.9,2.3-8,4.3-12.1,6L143.3,404.3z"/>
					<path class="st22" d="M143.9,404.8c4.1-1.7,8.2-3.7,12-5.9c4.6-2.8,8.4-5.7,8.5-5.7l-0.1-0.1c0,0-3.9,2.9-8.5,5.7
						c-3.8,2.3-7.9,4.2-12,5.9L143.9,404.8z"/>
					<path class="st22" d="M144.5,405.4c4.1-1.6,8-3.6,11.8-5.8c4.6-2.8,8.1-5.5,8.2-5.5l-0.1-0.2c0,0-3.6,2.7-8.1,5.5
						c-3.8,2.2-7.7,4.2-11.8,5.8L144.5,405.4z"/>
					<path class="st22" d="M145.1,405.9c4-1.6,7.9-3.5,11.6-5.7c4.6-2.8,7.8-5.3,7.9-5.3l-0.1-0.2c0,0-3.3,2.5-7.8,5.3
						c-3.7,2.2-7.6,4.1-11.6,5.7L145.1,405.9z"/>
					<path class="st22" d="M145.6,406.5c4-1.6,7.8-3.4,11.4-5.6c2.6-1.6,5.1-3.3,7.5-5.1l-0.1-0.2c-2.4,1.8-4.9,3.6-7.5,5.1
						c-3.6,2.2-7.5,4-11.4,5.6L145.6,406.5z"/>
					<path class="st22" d="M146.2,407c3.9-1.5,7.7-3.4,11.2-5.5c2.5-1.5,4.9-3.2,7.2-5l-0.1-0.1c-5.6,4.3-11.8,7.9-18.4,10.4
						L146.2,407z"/>
				</g>
				<path class="st9" d="M146.9,361.7c0.9-0.2,15,10.2,16.9,12.1s1,1.8-0.5,4.8c-1.9,3.7,0.3,6.9-1,6.7c-0.7-0.1-3.5-6-7.7-11.8
					S145.3,362,146.9,361.7z"/>
				<path class="st31" d="M124.3,407.3c-0.8-1-1.3-2.1-0.7-3.1c0.9-1,2.1-1.7,3.4-1.9c3.5-1,7.2-0.6,10.4,1.2
					c0.7,0.4,1.4,0.9,1.9,1.5c0.5,0.6,0.8,1.5,0.7,2.3c-0.5,3.8-6.1,4.3-9,3.8c-1.9-0.3-3.7-1.1-5.2-2.3
					C125.3,408.3,124.8,407.8,124.3,407.3z"/>
				<path class="st22" d="M129.2,403.5c-1.2,0-4,0-3.8,1.9c0.2,1.7,2.8,3.1,4.3,3.3c1.9,0.3,2.7-2.1,2.1-3.6
					C131.4,404.1,130.3,403.4,129.2,403.5z"/>
				<path class="st22" d="M135,406.8c-1,0-2.4,0.3-2.5,1.6c0,1,1.5,1,2.2,0.8C136.4,408.6,136.3,406.8,135,406.8z"/>
				<path class="st22" d="M136.6,404.7c0.3,0.1,0.5,0.2,0.7,0.5c0.2,0.4,0.2,1.1-0.3,1.2c-0.8-0.1-1.6-0.4-2.2-0.9
					c-0.5-0.8,1.2-0.9,1.6-0.8L136.6,404.7z"/>
				<path class="st31" d="M170,391c-0.2,0.1-0.5,0.2-0.7,0.2c-0.7,0-1.3-0.2-1.8-0.7c-0.5-0.5-0.8-1-1.1-1.6
					c-1.5-2.6-4.9-9.8,0-10.9c1.6-0.4,3.3,1.1,4.1,2.3c1.3,1.8,1.9,3.9,1.7,6.1C172,387.9,171.5,390.3,170,391z"/>
				<path class="st22" d="M168.3,379.4c-0.8-0.5-1.9-0.5-2.7-0.1c-1.7,1.4,1.8,4,2.9,4.5c1.8,0.8,2.5-0.4,1.8-2
					C169.9,380.9,169.2,380,168.3,379.4L168.3,379.4z"/>
				<path class="st22" d="M170.7,386.1c-0.3-0.2-0.7,0-1.1,0.9c-0.3,0.6-0.7,2.3,0.5,2.2C171.6,389.1,171.4,386.6,170.7,386.1z"/>
				<path class="st22" d="M166.3,385.5c0.1,0.7,0.6,1.2,1.3,1.4c1.5,0.2,0.4-3.6-0.9-2.5C166.3,384.7,166.2,385.1,166.3,385.5z"/>
				<path class="st19" d="M122.6,407.1c-4.5,0.4-8.7,2.4-11.7,5.6C114.4,410.2,118.4,408.3,122.6,407.1z"/>
				<path class="st19" d="M143,363.2c7.3,7,13.4,15.1,18.2,24L143,363.2z"/>
				<path class="st19" d="M140.4,399.2c0,0-16.1-8.3-39.7-11.4L140.4,399.2z"/>
				<path class="st19" d="M174.5,392.8c-1.3,3.6-5.7,9.1-12.3,13s-15.1,9.2-24.8,9.5s-16.3-6.9-16.3-6.9s5,7.9,16.3,8.2
					s18.4-4.8,25.1-8.9C169.6,403.4,173.7,397.4,174.5,392.8z"/>
				<path class="st9" d="M113.1,410.2c-2.3-5.9-6.7-10.4-10.3-11.7c3.9,0.3,9.2,4.4,11.2,11.1C114,409.6,113.4,410,113.1,410.2z"/>
				<path class="st9" d="M114.3,411c0.5,2.4,0.6,4.8,0.3,7.3c0-2.3-0.4-4.6-1.1-6.9L114.3,411z"/>
				<path class="st9" d="M123.2,401.9c-2.7,1.3-3,3.1-5,1.5s-16.7-12.1-20.2-13.6c-3.9-1.7-0.3-1.9,8.5,0.9s24.3,6.9,24.9,7.8
					S128.5,399.4,123.2,401.9z"/>
				<path class="st5" d="M82.6,361.5L94,386.4c2.2,3.9,26.1-8.2,40.4-18.3c6.9-4.8,11.5-9.2,10.4-11.1c-5.8-7.4-12.3-14.1-19.4-20.2
					c-0.7,0.8-1.5,1.5-2.3,2.2c-1.9,1.7-3.9,3.4-5.9,4.9C107.9,350.8,96.2,356.6,82.6,361.5z M85.6,364.3c-0.4-1,0-2.2,1-2.6
					c0,0,0,0,0,0c12.9-5,23.2-10.4,31.4-16.5c2.1-1.6,4.1-3.2,6-5l0,0c0.8-0.7,1.9-0.7,2.6,0c6,5.4,11.6,11.3,16.6,17.6
					c-0.1,0.5-1.2,3-9.9,9.1c-13.4,9.5-32,18.7-37.6,18.7c-0.2,0-0.4,0-0.6-0.1L85.6,364.3z"/>
				<path class="st14" d="M95.3,385.5c0.2,0,0.4,0.1,0.6,0.1c5.6,0,24.2-9.3,37.6-18.7c8.7-6.1,9.8-8.6,9.9-9.1
					c-5-6.3-10.6-12.2-16.6-17.6c-0.8-0.7-1.9-0.7-2.6,0l0,0c-1.9,1.8-3.9,3.4-6,5c-8.2,6.1-18.5,11.5-31.4,16.5
					c-1,0.4-1.5,1.6-1.1,2.6c0,0,0,0,0,0L95.3,385.5z"/>
				<path class="st9" d="M133.5,366.8c-2.2,1.5-4.5,3-6.8,4.5c-4.8-7.9-12-18.3-14.8-22c2.2-1.4,4.2-2.8,6.2-4.2
					c1.2-0.9,2.4-1.9,3.6-2.8c7.1,6.6,13.7,16.6,16.4,21C136.9,364.4,135.3,365.5,133.5,366.8z"/>
				<path class="st9" d="M107.5,352c0.9-0.5,1.7-1,2.6-1.5c5.3,7.1,10.2,14.4,14.7,22c-1,0.6-1.9,1.1-2.9,1.7
					C118.8,369.1,113.3,360.4,107.5,352z"/>
				<path class="st33" d="M109.7,380.1c-6.8,3.2-13.8,5.5-14.4,4s-5.5-11.4-6.9-15.3s-1.7-4.4-0.8-5.5s6.1-3.1,14.4-7
					s16.1-11,16.1-11c-8.2,6.1-18.5,11.5-31.4,16.5c-1,0.4-1.5,1.6-1.1,2.6c0,0,0,0,0,0l9.7,21.2c0.2,0,0.4,0.1,0.6,0.1
					c5.6,0,24.2-9.3,37.6-18.7C130.7,368.9,116.5,376.9,109.7,380.1z"/>
				<path class="st30" d="M93.7,388.1c-1.1,0.4-2.2,0.6-3.3,0.6c-3,0.1-7.1-0.7-7.9-4.3c-0.5-2.6,0.6-3.4,2.4-3.4
					c3,0.1,7.8,2.9,8.8,4.2C94.4,386,94.9,387.4,93.7,388.1z"/>
				<path class="st5" d="M82.5,384.3c0.8,3.7,4.8,4.5,7.9,4.4c-2.6,0-5.1-1.4-6.4-3.7c-0.9-1.9-0.2-3.8,0.8-4
					C83.1,380.9,82,381.8,82.5,384.3z"/>
			</g>
		</g>
	</g>
</g>
</svg>
