<?xml version="1.0" encoding="utf-8"?>
<!-- Generator: Adobe Illustrator 26.1.0, SVG Export Plug-In . SVG Version: 6.00 Build 0)  -->
<svg version="1.1" id="freepik_stories-marketing-consulting" xmlns:svgjs="http://svgjs.com/svgjs"
	 xmlns="http://www.w3.org/2000/svg" xmlns:xlink="http://www.w3.org/1999/xlink" x="0px" y="0px" viewBox="0 0 750 500"
	 style="enable-background:new 0 0 750 500;" xml:space="preserve">
<style type="text/css">
	.st0{fill:#E0E0E0;}
	.st1{fill:#EBEBEB;}
	.st2{fill:#F5F5F5;}
	.st3{fill:#FFFFFF;}
	.st4{fill:#263238;}
	.st5{fill:#FAFAFA;}
	.st6{fill:#B0BEC5;}
	.st7{fill:#3CBDA1;}
	.st8{fill:#455A64;}
	.st9{opacity:0.3;}
	.st10{fill-rule:evenodd;clip-rule:evenodd;fill:#FFFFFF;}
	.st11{fill:#FFBF9D;}
	.st12{fill:#FF9A6C;}
	.st13{fill:#1A5446;}
	.st14{opacity:0.6;}
	.st15{fill:#AE7461;}
	.st16{fill:#6F4439;}
</style>
<g id="freepik--background-complete--inject-6">
	<path id="ely3w2v6espld" class="st0" d="M438.9,405h39.8c2.7,0,4.9,2.2,4.9,4.9l0,0v48.2c0,2.7-2.2,4.9-4.9,4.9l0,0h-39.8
		c-7.4,0-13.3-6-13.3-13.3v-31.4C425.6,410.9,431.5,405,438.9,405z"/>
	<path id="el7cd4kviw8mm" class="st1" d="M419.2,405h49.9c2.2,0,4,1.8,4,4V459c0,2.2-1.8,4-4,4h-49.9c-2.2,0-4-1.8-4-4V409
		C415.2,406.8,417,405,419.2,405z"/>
	<polygon id="eljckyoc39ch" class="st0" points="446.7,448.7 429.1,436.9 433.2,430.8 445,438.7 459.6,419.3 465.5,423.7 	"/>
	<path id="eld9y9taxp8m" class="st1" d="M264.4,418.5c0.3,22.4-17.6,40.7-40,41c-22.4,0.3-40.7-17.6-41-40
		c-0.3-22.3,17.5-40.6,39.8-41C245.7,378.3,264.1,396.2,264.4,418.5z M204.6,419.5c0.2,10.7,9.1,19.2,19.8,19s19.2-9.1,19-19.8
		c-0.2-10.7-9-19.1-19.7-19C212.9,400,204.4,408.8,204.6,419.5L204.6,419.5z"/>
	<path id="el1kg0vog034x" class="st0" d="M264.4,418.5c0.4,22.4-17.4,40.9-39.8,41.3l-0.3-21.2c10.7-0.3,19.2-9.3,18.8-20.1
		c-0.3-10.5-8.9-18.8-19.4-18.8l-0.3-21.2C245.7,378.3,264.1,396.2,264.4,418.5z"/>
	<path id="el81df9oyup1e" class="st2" d="M228.2,463.1c-26.1,0.4-47-19.9-47.4-46.1l24.7-0.4c0.2,12.5,9.7,20.4,22.2,20.2
		L228.2,463.1z"/>
	<path id="el4ug2t15b1jn" class="st1" d="M696.9,66.8c0.2,17.5-13.8,31.8-31.2,32c-17.5,0.2-31.8-13.8-32-31.2
		c-0.2-17.4,13.7-31.7,31.1-32C682.3,35.3,696.6,49.3,696.9,66.8z M650.2,67.6c0.2,8.3,7.1,15,15.4,14.8s15-7.1,14.8-15.4
		c-0.2-8.3-7-14.9-15.3-14.8C656.7,52.3,650,59.2,650.2,67.6L650.2,67.6z"/>
	<path id="el8rf6ou93bur" class="st0" d="M696.9,66.8c0.3,17.5-13.6,31.9-31.1,32.3l-0.3-16.6c8.4-0.1,15.1-7,14.9-15.4
		c-0.1-8.4-7-15.1-15.4-14.9l-0.3-16.6C682.3,35.3,696.6,49.3,696.9,66.8z"/>
	<path id="el3cxakgs376j" class="st2" d="M668.6,101.6c-19.9,0.5-36.5-15.3-37-35.2c0-0.3,0-0.5,0-0.8l19.3-0.3
		c0.2,9.8,7.6,16,17.4,15.8L668.6,101.6z"/>
	<path id="elp9edm5e97rj" class="st1" d="M54.1,218.1h7.4v-18.5h5.2l0.6-6.2h-5.7v-3.5c0-1.5,0.3-2,1.7-2h4v-6.4h-5.1
		c-5.5,0-8,2.4-8,7.1v4.9h-3.8v6.3h3.8V218.1z"/>
	<path id="elk8769hnatid" class="st2" d="M205.9,56.6l29.8-4.6c2.5,16.5-8.8,31.8-25.2,34.4s-31.8-8.8-34.4-25.2
		c-2.5-16.5,8.8-31.8,25.2-34.4c2.6-0.4,5.3-0.5,7.9-0.2L205.9,56.6z"/>
	<path id="eliddw45u29m" class="st0" d="M215.6,26.7l-3.6,23.1l22.7-4.3C234.6,45.5,231.3,32.6,215.6,26.7z"/>
	<path id="elayvjurszojg" class="st3" d="M110.8,274.7H45.1c-9.7,0-17.5,7.8-17.5,17.5v39.8c0,9.7,7.8,17.5,17.5,17.5h24.1L78,362
		l8.8-12.6h24.1c9.7,0,17.5-7.8,17.5-17.5v-39.7C128.4,282.5,120.5,274.7,110.8,274.7C110.9,274.7,110.9,274.7,110.8,274.7z"/>
	<path id="elxygtrhp5jkm" class="st0" d="M110.8,274.7c0.8,0,1.5,0,2.3,0.1c2.2,0.3,4.3,0.9,6.3,2c1.4,0.8,2.7,1.8,3.9,2.9
		c1.4,1.4,2.5,2.9,3.4,4.7c1,2,1.6,4.2,1.8,6.4c0.1,2.4,0.1,4.9,0.1,7.5c0,5.3,0,11.1,0,17.4c0,3.1,0,6.4,0,9.8c0,1.7,0,3.4,0,5.1
		c0.1,1.8-0.1,3.6-0.4,5.3c-1.8,7.8-8.5,13.5-16.5,13.8c-8,0.1-16.3,0-24.9,0.1l0.3-0.1l-8.8,12.6l-0.3,0.4l-0.3-0.4l-8.7-12.6
		l0.3,0.1H47.4c-1.4,0-2.9,0-4.3-0.1c-2.9-0.3-5.6-1.4-8-3c-2.3-1.6-4.3-3.8-5.7-6.3c-1.3-2.5-2-5.2-2.1-8v-31.4c0-2.5,0-5,0-7.4
		c-0.1-2.4,0.2-4.9,1-7.2c2.3-6.7,8.4-11.4,15.5-11.9c2.2-0.1,4.3,0,6.3,0H62l35.8,0.1l9.7,0.1h2.5
		C110.6,274.6,110.9,274.6,110.8,274.7l-0.8-0.1h-2.5l-9.7,0.1L62,274.8H50.1c-2,0-4.2-0.1-6.3,0.1c-6.8,0.5-12.7,5.1-14.9,11.5
		c-0.7,2.3-1.1,4.6-1,7c0,2.4,0,4.9,0,7.4c0,10,0,20.5,0,31.4c0.1,2.8,0.8,5.4,2.1,7.9c1.3,2.4,3.2,4.4,5.4,6c2.3,1.6,5,2.5,7.7,2.9
		c1.4,0.1,2.8,0.2,4.2,0.1h22l0.1,0.1l8.8,12.6h-0.6l8.8-12.6l0.1-0.1h0.2c8.6,0,17,0,24.9,0c7.7-0.3,14.3-5.8,16-13.3
		c0.4-1.7,0.5-3.5,0.4-5.2c0-1.8,0-3.5,0-5.1c0-3.4,0-6.6,0-9.8c0-6.3,0-12.1,0-17.4c0-2.6,0.1-5.1-0.1-7.5
		c-0.2-2.2-0.8-4.3-1.7-6.3c-0.8-1.7-2-3.3-3.3-4.6c-1.1-1.1-2.4-2.1-3.8-2.9c-1.9-1.1-4-1.8-6.2-2.1c-0.6-0.1-1.1-0.1-1.7-0.2
		L110.8,274.7z"/>
	<path id="el06nxagb4hwv5" class="st0" d="M64.4,313c0,3.1-2.5,5.7-5.7,5.7c-3.1,0-5.7-2.5-5.7-5.7c0-3.1,2.5-5.7,5.7-5.7
		c0,0,0,0,0,0C61.9,307.4,64.4,309.9,64.4,313z"/>
	<path id="elucb6oxufjwk" class="st0" d="M83,313c0,3.1-2.5,5.7-5.7,5.7s-5.7-2.5-5.7-5.7c0-3.1,2.5-5.7,5.7-5.7
		C80.5,307.4,83,309.9,83,313z"/>
	<path id="elhslppw2hbx5" class="st0" d="M101.6,313c0,3.1-2.5,5.7-5.7,5.7c-3.1,0-5.7-2.5-5.7-5.7c0-3.1,2.5-5.7,5.7-5.7
		c0,0,0,0,0,0C99.1,307.4,101.6,309.9,101.6,313z"/>
	<path id="elmmzswp2ieof" class="st3" d="M623.8,118.1h-52.1c-7.7,0-13.9,6.2-13.9,13.9c0,0,0,0,0,0v31.5c0,7.7,6.2,13.9,13.9,13.9
		h19.1l7,10l7-10h19.1c7.6,0,13.9-6.2,13.9-13.8c0,0,0,0,0,0V132c0-7.6-6.2-13.9-13.8-13.9C623.8,118.1,623.8,118.1,623.8,118.1z"/>
	<path id="elmdib338hpe" class="st0" d="M623.8,118.1c0.6,0,1.2,0,1.8,0.1c1.8,0.2,3.5,0.7,5,1.6c1.1,0.6,2.1,1.4,3.1,2.3
		c1.1,1.1,2,2.3,2.7,3.7c0.8,1.6,1.3,3.3,1.4,5.1c0.1,1.9,0,3.9,0.1,5.9c0,4.2,0,8.8,0,13.8c0,2.5,0,5.1,0,7.8v4.1
		c0.1,1.4-0.1,2.8-0.3,4.2c-1.4,6.2-6.7,10.7-13.1,11c-6.3,0.1-12.9,0-19.8,0l0.2-0.1l-6.9,10l-0.2,0.3l-0.2-0.3l-7-10l0.2,0.1
		h-17.2c-1.1,0-2.3,0-3.4-0.1c-2.3-0.3-4.5-1.1-6.4-2.4c-1.9-1.3-3.4-3-4.5-5c-1-2-1.6-4.2-1.7-6.4v-30.7c-0.1-1.9,0.2-3.9,0.8-5.7
		c1.8-5.3,6.7-9,12.3-9.4c1.7-0.1,3.4,0,5,0h9.4l28.4,0.1h7.7h2L623.8,118.1L623,118h-2h-7.7l-28.4,0.1h-9.4c-1.6,0-3.3,0-5,0.1
		c-5.4,0.4-10.1,4-11.8,9.1c-0.6,1.8-0.8,3.7-0.8,5.5c0,1.9,0,3.9,0,5.9c0,7.9,0,16.2,0,24.9c0.1,2.1,0.6,4.2,1.6,6.1
		c1.1,1.9,2.5,3.5,4.3,4.8c1.8,1.2,3.9,2,6.1,2.3c1.1,0.1,2.2,0.1,3.4,0.1h17.4l0.1,0.1l7,10h-0.5l7-10l0.1-0.1h0.1
		c6.8,0,13.5,0,19.7,0c3.1-0.1,6-1.3,8.3-3.3c2.2-1.9,3.7-4.4,4.4-7.3c0.3-1.4,0.4-2.7,0.3-4.1c0-1.4,0-2.8,0-4.1c0-2.7,0-5.3,0-7.8
		c0-5,0-9.6,0-13.8c0-2.1,0.1-4.1,0-5.9c-0.1-1.7-0.6-3.4-1.4-5c-0.7-1.3-1.5-2.6-2.6-3.7c-0.9-0.9-1.9-1.6-3-2.3
		c-1.5-0.9-3.2-1.4-4.9-1.7c-0.4-0.1-0.9-0.1-1.3-0.1L623.8,118.1z"/>
	<path id="elxpa61vk418" class="st0" d="M586.9,148.5c0,2.5-2,4.5-4.5,4.5c-2.5,0-4.5-2-4.5-4.5c0-2.5,2-4.5,4.5-4.5l0,0
		C584.9,144,586.9,146.1,586.9,148.5z"/>
	<path id="elzccucknpqfr" class="st0" d="M601.7,148.5c0,2.5-2,4.5-4.5,4.5c-2.5,0-4.5-2-4.5-4.5c0-2.5,2-4.5,4.5-4.5l0,0
		C599.7,144,601.7,146.1,601.7,148.5z"/>
	<path id="el9j89ryr135h" class="st0" d="M616.5,148.5c0,2.5-2.1,4.5-4.5,4.4c-2.5,0-4.5-2.1-4.4-4.5c0-2.5,2.1-4.5,4.5-4.4
		C614.5,144,616.5,146,616.5,148.5C616.5,148.5,616.5,148.5,616.5,148.5z"/>
	<path id="elev8pxx1o2xl" class="st1" d="M674.4,167.4c3,1.9,6.5,3,10.1,2.9c12.2,0,19.1-10.3,18.7-19.6c1.3-0.9,2.4-2.1,3.3-3.4
		c-1.2,0.5-2.5,0.9-3.8,1c1.4-0.8,2.4-2.1,2.9-3.6c-1.3,0.8-2.7,1.3-4.2,1.6c-2.5-2.7-6.6-2.8-9.3-0.3c-1.7,1.6-2.5,4-1.9,6.3
		c-5.3-0.3-10.2-2.8-13.5-6.9c-1.7,3-0.9,6.8,2,8.8c-1.1,0-2.1-0.3-3-0.8c-0.1,3.2,2.2,6,5.4,6.6c-1,0.3-2,0.3-3,0.1
		c0.9,2.7,3.3,4.5,6.1,4.6C681.4,166.8,677.9,167.8,674.4,167.4z"/>
</g>
<g id="freepik--Floor--inject-6">
	<path id="elndi3k39jgk" class="st4" d="M709.6,463.6h-1.7h-5l-19-0.2l-70-0.5c-29.6-0.2-64.8-0.3-103.9-0.4L383,462.6l-231,0.8
		l-70,0.2H63h-5c-1.1,0-1.7,0-1.7,0H58l5,0l19-0.1l70-0.4c59.1-0.3,140.8-0.8,231-1c45-0.1,88-0.1,127.1-0.1s74.3,0.2,103.9,0.5
		l39.9,0.4l30.1,0.4l19,0.3l5,0.1L709.6,463.6z"/>
</g>
<g id="freepik--speech-bubble--inject-6">
	<path id="ely9frsqvdsgp" class="st5" d="M110.5,126.4l-2.4-8c8.1-13.2,4-30.4-9.1-38.5s-30.4-4-38.5,9.1s-4,30.4,9.1,38.5
		c9.9,6.1,22.6,5.5,31.8-1.7l0,0L110.5,126.4z"/>
	<path id="elrztpvqnzjpf" class="st4" d="M110.5,126.4c0,0-0.2,0-0.6,0l-1.7-0.1l-6.8-0.3c-0.1,0-0.1-0.1-0.1-0.1c0,0,0,0,0,0
		c0,0,0,0,0-0.1l0,0l0.2,0.2c-9,7-21.2,7.9-31.1,2.2c-13.5-7.7-18.2-24.8-10.5-38.3c0.9-1.6,2-3.2,3.3-4.6c3-3.5,6.8-6.1,11.1-7.8
		c4.1-1.6,8.5-2.1,12.8-1.7c15,1.5,26.1,14.6,25.2,29.6c-0.3,4.6-1.7,9.1-4.2,13v-0.1l1.7,6c0.2,0.7,0.3,1.2,0.4,1.5
		S110.5,126.4,110.5,126.4c-0.1-0.1-0.1-0.2-0.2-0.6l-0.5-1.6c-0.4-1.4-1-3.3-1.8-5.9c0,0,0-0.1,0-0.1c8-13,3.9-30.1-9.2-38.1
		c-7.3-4.5-16.3-5.3-24.3-2.2c-4.2,1.6-8,4.2-10.9,7.6c-10.1,11.5-8.9,28.9,2.6,39c3.9,3.4,8.7,5.7,13.9,6.5c2.9,0.5,5.9,0.5,8.8,0
		c4.5-0.7,8.8-2.6,12.5-5.4c0,0,0.1,0,0.2,0c0,0,0,0,0,0c0,0,0,0.1,0,0.2l0,0l-0.1-0.2l6.7,0.5l1.8,0.1L110.5,126.4z"/>
	<path id="elhxdqtygfmic" class="st4" d="M76.5,103.8c0,1.6-1.2,2.8-2.8,2.9c-1.6,0-2.8-1.2-2.9-2.8c0-1.6,1.2-2.8,2.8-2.9
		c0,0,0,0,0,0C75.2,101,76.5,102.2,76.5,103.8z"/>
	<path id="elh0h50vb1tia" class="st4" d="M87.8,103.8c0,1.6-1.2,2.8-2.8,2.9c-1.6,0-2.8-1.2-2.9-2.8c0-1.6,1.2-2.8,2.8-2.9
		c0,0,0,0,0.1,0C86.5,101,87.8,102.2,87.8,103.8z"/>
	<path id="elpceg81ljqqr" class="st4" d="M99.1,102.4c0.8,1.3,0.4,3.1-1,3.9c-1.3,0.8-3.1,0.4-3.9-1c-0.8-1.3-0.4-3.1,1-3.9
		c0,0,0,0,0,0C96.6,100.6,98.3,101,99.1,102.4z"/>
</g>
<g id="freepik--Board--inject-6">
	<path id="el4xwylt49xsk" class="st3" d="M221.9,68.4h283c8.8,0,16,7.2,16,16v230.3c0,8.8-7.2,16-16,16h-283c-8.8,0-16-7.2-16-16
		V84.4C205.9,75.5,213.1,68.4,221.9,68.4z"/>
	<path id="el71hpz9i2r4m" class="st4" d="M504.9,331.2h-283c-9.1,0-16.5-7.4-16.5-16.5V84.4c0-9.1,7.4-16.5,16.5-16.5h283
		c9.1,0,16.5,7.4,16.5,16.5v230.3C521.4,323.8,514,331.2,504.9,331.2z M221.9,68.9c-8.6,0-15.5,6.9-15.5,15.5v230.3
		c0,8.6,7,15.5,15.5,15.5h283c8.6,0,15.5-6.9,15.5-15.5V84.4c0-8.6-7-15.5-15.5-15.5L221.9,68.9z"/>
	<rect id="elqcet93zbvln" x="255.8" y="263.3" class="st6" width="6.7" height="46.1"/>
	<rect id="elu4tekxzxr9" x="243.1" y="297.9" class="st6" width="6.7" height="11.5"/>
	<rect id="elqvrikmdys5h" x="267.3" y="286.4" class="st6" width="6.7" height="23.1"/>
	<rect id="el188ty8n4uje" x="278.6" y="273" class="st6" width="6.7" height="36.5"/>
	<rect id="eliqcskavmeos" x="291.7" y="299.7" class="st6" width="6.7" height="9.8"/>
	<path id="elrfcwb6zdhu" class="st6" d="M500.5,298.7c-0.3-0.3-0.4-0.7-0.4-1.1c0-0.4,0.1-0.8,0.4-1.1c0.2-0.3,0.6-0.4,1-0.4
		c0.4,0,0.7,0.1,1,0.4c0.5,0.7,0.5,1.6,0,2.2c-0.5,0.5-1.3,0.6-1.9,0.1C500.6,298.8,500.6,298.7,500.5,298.7L500.5,298.7z
		 M502,298.3c0.1-0.2,0.2-0.5,0.2-0.7c0-0.3,0-0.5-0.2-0.7c-0.1-0.2-0.3-0.3-0.5-0.3c-0.2,0-0.4,0.1-0.5,0.3
		c-0.1,0.2-0.2,0.5-0.2,0.7c0,0.3,0,0.5,0.2,0.7c0.1,0.2,0.3,0.3,0.5,0.3C501.7,298.6,501.9,298.5,502,298.3L502,298.3z
		 M504.9,296.1h0.8l-3.9,5.6H501L504.9,296.1z M504.2,301.4c-0.3-0.3-0.4-0.7-0.4-1.1c0-0.4,0.1-0.8,0.4-1.1
		c0.5-0.5,1.3-0.6,1.9-0.1c0,0,0.1,0.1,0.1,0.1c0.3,0.3,0.4,0.7,0.4,1.1c0,0.4-0.1,0.8-0.4,1.1C505.7,301.9,504.8,301.9,504.2,301.4
		C504.3,301.4,504.2,301.4,504.2,301.4z M505.7,301c0.1-0.2,0.2-0.5,0.2-0.7c0-0.3,0-0.5-0.2-0.7c-0.1-0.2-0.3-0.3-0.5-0.3
		c-0.2,0-0.4,0.1-0.5,0.2c-0.1,0.2-0.2,0.5-0.2,0.7c0,0.3,0,0.5,0.2,0.7c0.2,0.3,0.6,0.3,0.9,0.1C505.6,301.1,505.7,301,505.7,301
		L505.7,301z"/>
	<path id="eld3z74h5mbn4" class="st1" d="M467.7,270.5h22c0.6,0,1-0.4,1.1-0.9c0-0.3-0.1-0.6-0.3-0.8l-11-11.2
		c-0.4-0.4-1-0.4-1.4-0.1c0,0,0,0-0.1,0.1l-11,11.2c-0.4,0.4-0.4,1-0.1,1.4C467.1,270.4,467.4,270.5,467.7,270.5z"/>
	<rect id="elpz0fkajmtg" x="472" y="268.4" class="st1" width="14.1" height="22.4"/>
	<path id="el84rs4hu8s7k" class="st6" d="M481.4,309.5v4.6h-14v-3.6l6.3-5.8c0.4-0.4,0.8-0.8,1.1-1.3c0.2-0.3,0.3-0.7,0.3-1.1
		c0-0.4-0.1-0.8-0.4-1c-0.4-0.3-0.8-0.4-1.3-0.4c-1.1,0-2.1,0.6-2.6,1.6l-4.4-2.2c0.7-1.2,1.7-2.3,2.9-3c1.4-0.8,3-1.1,4.6-1.1
		c1.3,0,2.5,0.2,3.7,0.7c1,0.4,1.9,1.1,2.5,1.9c0.6,0.8,0.9,1.8,0.9,2.9c0,0.9-0.2,1.9-0.6,2.7c-0.6,1.1-1.4,2.1-2.4,2.9l-2.5,2.3
		L481.4,309.5z"/>
	<path id="elyucklzayyd" class="st6" d="M486.4,313.4c-1.2-0.7-2.2-1.8-2.8-3.1c-1.3-3.1-1.3-6.7,0-9.8c0.6-1.3,1.6-2.4,2.8-3.1
		c2.5-1.4,5.7-1.4,8.2,0c1.2,0.8,2.2,1.8,2.8,3.1c1.3,3.1,1.3,6.7,0,9.8c-0.6,1.3-1.6,2.4-2.8,3.1
		C492,314.8,488.9,314.8,486.4,313.4z M492.4,305.4c0-2.9-0.7-4.4-2-4.4c-1.3,0-2,1.5-2,4.4c0,2.9,0.7,4.4,2,4.4
		C491.8,309.8,492.4,308.3,492.4,305.4L492.4,305.4z"/>
	<path id="el92eofi7lsd6" class="st6" d="M270.7,172.9c-0.3-0.3-0.4-0.7-0.4-1.1c0-0.4,0.1-0.8,0.4-1.1c0.5-0.6,1.3-0.6,1.9-0.1
		c0,0,0.1,0.1,0.1,0.1c0.5,0.7,0.5,1.6,0,2.2c-0.5,0.6-1.3,0.6-1.9,0.1C270.8,173,270.8,173,270.7,172.9L270.7,172.9z M272.2,172.5
		c0.1-0.2,0.2-0.5,0.2-0.7c0-0.3,0-0.5-0.2-0.7c-0.1-0.2-0.3-0.3-0.5-0.3c-0.2,0-0.4,0.1-0.5,0.3c-0.1,0.2-0.2,0.5-0.2,0.7
		c0,0.3,0,0.5,0.2,0.7c0.1,0.2,0.3,0.3,0.5,0.3C271.9,172.8,272.1,172.7,272.2,172.5L272.2,172.5z M275.1,170.3h0.8L272,176h-0.8
		L275.1,170.3z M274.4,175.6c-0.3-0.3-0.4-0.7-0.4-1.1c0-0.4,0.1-0.8,0.4-1.1c0.2-0.3,0.6-0.4,1-0.4c0.4,0,0.7,0.1,1,0.4
		c0.3,0.3,0.4,0.7,0.4,1.1c0,0.4-0.1,0.8-0.4,1.1c-0.3,0.3-0.6,0.4-1,0.4C275,176,274.7,175.9,274.4,175.6L274.4,175.6z
		 M275.9,175.2c0.1-0.2,0.2-0.5,0.2-0.7c0-0.3,0-0.5-0.2-0.7c-0.2-0.3-0.6-0.3-0.9-0.1c0,0-0.1,0.1-0.1,0.1
		c-0.1,0.2-0.2,0.5-0.2,0.7c0,0.3,0,0.5,0.2,0.7c0.1,0.2,0.3,0.3,0.5,0.3C275.6,175.5,275.8,175.4,275.9,175.2L275.9,175.2z"/>
	<path id="el4n56fpx9176" class="st1" d="M216.7,171.6h20.1c0.5,0,0.9-0.4,0.9-0.9c0-0.2-0.1-0.5-0.3-0.6l-10.1-10.3
		c-0.4-0.4-1-0.4-1.3,0c0,0,0,0,0,0L216,170c-0.4,0.4-0.3,1,0,1.3C216.2,171.5,216.4,171.6,216.7,171.6z"/>
	<rect id="el5ar9w0xz726" x="220.6" y="169.7" class="st1" width="12.9" height="20.4"/>
	<path id="el1li92lf6z7y" class="st6" d="M250.9,171.1v17.4H245v-13h-3v-4.4H250.9z"/>
	<path id="elqin8ch4825i" class="st6" d="M256.9,187.8c-1.2-0.8-2.2-1.8-2.8-3.1c-1.3-3.1-1.3-6.7,0-9.8c0.6-1.3,1.6-2.4,2.8-3.1
		c2.5-1.4,5.7-1.4,8.2,0c1.2,0.8,2.2,1.8,2.8,3.1c1.3,3.1,1.3,6.7,0,9.8c-0.6,1.3-1.6,2.4-2.8,3.1
		C262.5,189.3,259.3,189.3,256.9,187.8L256.9,187.8z M262.9,179.8c0-2.9-0.7-4.4-2-4.4s-2,1.5-2,4.4s0.7,4.4,2,4.4
		S262.9,182.7,262.9,179.8L262.9,179.8z"/>
	<path id="elnrrzqkzrapr" class="st4" d="M302,309.7c0,0.1-13.6,0.3-30.3,0.3s-30.3-0.1-30.3-0.3s13.6-0.3,30.3-0.3
		S302,309.5,302,309.7z"/>
</g>
<g id="freepik--Tab--inject-6">
	<path id="el0ghd3za1j4mh" class="st3" d="M414.4,20.9h134.2c4.5,0,8.1,3.6,8.1,8.1v71.4c0,4.5-3.6,8.1-8.1,8.1H414.4
		c-4.5,0-8.1-3.6-8.1-8.1V29.1C406.2,24.6,409.9,20.9,414.4,20.9z"/>
	<path id="elqnr5pvq908b" class="st4" d="M548.6,108.6c0,0,0.4,0,1.2-0.1c3.1-0.5,5.6-2.7,6.5-5.7c0.3-1.2,0.4-2.4,0.3-3.6
		c0-1.3,0-2.7,0-4.1c0-11.7,0-28.6-0.1-49.5c0-5.2,0-10.7,0-16.4c0-2.9-1.6-5.6-4.1-7c-1.3-0.7-2.7-1-4.2-1h-4.6h-39.3h-90
		c-4,0-7.4,3-7.8,7c-0.1,3.9,0,7.8,0,11.7c0,7.8,0,15.4,0,23V85c0,3.6,0,7.2,0,10.8c0,1.8,0,3.5,0,5.3c0.2,3.5,2.7,6.4,6.1,7.1
		c0.8,0.2,1.6,0.2,2.5,0.2h31.6h34.2l49.5,0.1l13.5,0.1h3.5h1.2h-1.2h-3.5h-13.5l-49.5,0.1h-34.2h-31.5c-0.9,0-1.7,0-2.6-0.2
		c-3.6-0.8-6.2-3.9-6.5-7.6c-0.1-1.8,0-3.5,0-5.3V85c0-7.2,0-14.6,0-22.2v-23c0-3.9-0.1-7.8,0-11.8c0.5-4.3,4.1-7.5,8.4-7.5h90h39.3
		h4.6c1.5-0.1,3.1,0.3,4.4,1c2.7,1.5,4.3,4.3,4.3,7.4c0,5.7,0,11.2,0,16.4c0,20.9-0.1,37.8-0.1,49.5c0,1.5,0,2.8,0,4.1
		c0.1,1.2-0.1,2.4-0.4,3.6c-0.6,1.8-1.8,3.4-3.4,4.5c-1,0.6-2.1,1.1-3.3,1.2c-0.3,0-0.6,0.1-0.9,0.1L548.6,108.6z"/>
	<rect id="els8hpbrzho2b" x="425.5" y="76.4" class="st7" width="4.3" height="15.7"/>
	<rect id="ela5u174p7ued" x="440.9" y="63.7" class="st7" width="4.3" height="28.3"/>
	<rect id="eljqtn8o9eem" x="432.7" y="45.1" class="st8" width="5.3" height="46.9"/>
	<rect id="elkhkqehplifl" x="456.2" y="81.3" class="st7" width="4.3" height="10.7"/>
	<rect id="elv4cst0klps" x="448.6" y="81.3" class="st8" width="4.3" height="10.7"/>
	<rect id="elc6xn81wjdt9" x="471.6" y="74.5" class="st7" width="4.3" height="17.6"/>
	<rect id="elc3x6rthm0b9" x="463.9" y="59.2" class="st8" width="4.3" height="32.8"/>
	<rect id="elebqejhqmglj" x="494.7" y="59.2" class="st8" width="4.3" height="32.8"/>
	<rect id="elmygfyuthub" x="479.3" y="42.6" class="st8" width="4.3" height="49.4"/>
	<rect id="elqxvvlqfujp" x="487" y="79.8" class="st7" width="4.3" height="12.2"/>
	<rect id="elv8k85mkjp1h" x="525.4" y="83.1" class="st8" width="4.3" height="9"/>
	<rect id="elbzu79tc6xla" x="510.1" y="43.6" class="st8" width="4.3" height="48.5"/>
	<rect id="elk6h4ii68ztg" x="517.8" y="53.5" class="st7" width="4.3" height="38.6"/>
	<rect id="elluehk37d9f7" x="502.4" y="52.1" class="st7" width="4.3" height="40"/>
	<rect id="elwh8k3hx1q0q" x="533.1" y="59.2" class="st7" width="4.3" height="32.8"/>
	<path id="elabcd1lrqyqb" class="st0" d="M426.2,96.7h8.9c0.3,0,0.6,0.3,0.6,0.6v0.6c0,0.3-0.3,0.6-0.6,0.6h-8.9
		c-0.3,0-0.6-0.3-0.6-0.6v-0.6C425.6,97,425.9,96.7,426.2,96.7z"/>
	<path id="el16ft5ynzybr" class="st0" d="M455.6,96.7h8.9c0.3,0,0.6,0.3,0.6,0.6v0.6c0,0.3-0.3,0.6-0.6,0.6h-8.9
		c-0.3,0-0.6-0.3-0.6-0.6v-0.6C455,97,455.3,96.7,455.6,96.7z"/>
	<path id="el302nn2192gu" class="st0" d="M481.5,96.7h8.9c0.3,0,0.6,0.3,0.6,0.6v0.6c0,0.3-0.3,0.6-0.6,0.6h-8.9
		c-0.3,0-0.6-0.3-0.6-0.6v-0.6C480.9,97,481.2,96.7,481.5,96.7z"/>
	<path id="elbodgqex98pc" class="st0" d="M508.3,96.7h8.9c0.3,0,0.6,0.3,0.6,0.6v0.6c0,0.3-0.3,0.6-0.6,0.6h-8.9
		c-0.3,0-0.6-0.3-0.6-0.6v-0.6C507.7,97,507.9,96.7,508.3,96.7z"/>
	<path id="elcuhp9cwpec4" class="st0" d="M530.9,96.7h8.9c0.3,0,0.6,0.3,0.6,0.6v0.6c0,0.3-0.3,0.6-0.6,0.6h-8.9
		c-0.3,0-0.6-0.3-0.6-0.6v-0.6C530.3,97,530.6,96.7,530.9,96.7z"/>
	<path id="elv8fzss8y41l" class="st4" d="M543,92.1c0,0.2-27.8,0.3-62,0.3s-62-0.1-62-0.3s27.8-0.3,62-0.3S543,91.9,543,92.1z"/>
	<circle id="els2tj73gsgl" class="st0" cx="420.6" cy="33.3" r="2.4"/>
	<path id="elr940hjzmssm" class="st0" d="M429.4,33.3c0,1.3-1,2.4-2.3,2.4c-1.3,0-2.4-1-2.4-2.3c0-1.3,1-2.4,2.3-2.4c0,0,0,0,0,0
		C428.3,31,429.4,32,429.4,33.3z"/>
	<circle id="elsukgv3owp3i" class="st0" cx="433.4" cy="33.3" r="2.4"/>
</g>
<g id="freepik--Speaker--inject-6">
	<path id="ele15xp83mnnr" class="st4" d="M305.7,224.4l14.7,30.7l7.7-2l49.2,42.2l14.5-27.5c0,0-29.3-13.5-34.6-24.3
		s-0.3-10.5-0.3-10.5l-12.2-18.9L305.7,224.4z"/>
	<path id="elsy6gnsj136" class="st0" d="M324.7,183.4c0,0,15.5-4.5,40.2-22c18.1-12.8,32.2-28,38.5-35.3c3-3.5,8.2-4,11.8-1.1
		c5.4,4.6,12.9,16.1,21.1,45.3c14.4,51.5,4.1,61.3-0.3,60.6s-32.8-10.2-51.6-11s-47.3,4.8-47.3,4.8L324.7,183.4z"/>
	<path id="elfeky78hcz3r" class="st4" d="M324.7,183.4c0,0.2,0.1,0.5,0.2,0.7c0.1,0.5,0.3,1.2,0.6,2.1l2.3,8.1
		c2.1,7.1,5.1,17.5,9,30.5l0.1,0.3l0.3-0.1c8.1-1.5,17.4-2.9,27.7-3.9c5.1-0.5,10.5-0.9,16.1-0.8c5.8,0.1,11.6,0.7,17.3,1.8
		c11.9,2.1,24.1,5.7,37,9.2l0.6,0.1h0.7c0.5,0,1-0.1,1.4-0.3c0.4-0.2,0.8-0.5,1.2-0.7l1-1c1.1-1.4,1.9-3,2.4-4.7
		c1-3.4,1.5-6.9,1.5-10.4c0-7.2-0.7-14.3-2.1-21.3c-0.3-1.6-0.6-3.2-0.9-4.7s-0.7-3.1-1-4.7c-0.7-3.1-1.5-6.2-2.3-9.2
		c-1.5-6.1-3.3-12-5.3-17.7c-1.9-5.7-4.1-11.2-6.6-16.6c-2.5-5.2-5.4-10.3-9.4-14.3c-1-1-2.2-1.9-3.5-2.4c-2.7-1-5.7-0.6-8.1,1
		c-1.1,0.8-2.1,1.7-2.9,2.8c-3.5,3.9-7,7.6-10.4,11.1c-6.4,6.5-13.2,12.5-20.4,18.2c-10.4,8.1-21.5,15.2-33.2,21.3
		c-4.1,2.1-7.5,3.6-9.7,4.5c-1.1,0.5-2,0.8-2.6,1C325.3,183.2,325.1,183.3,324.7,183.4c0.4-0.1,0.7-0.1,1-0.2
		c0.6-0.2,1.5-0.5,2.6-0.9c2.3-0.9,5.6-2.3,9.8-4.3c11.8-6,23-13,33.5-21.1c7.2-5.6,14.1-11.7,20.5-18.1c3.5-3.5,7-7.2,10.5-11.1
		c0.8-1,1.7-1.9,2.7-2.7c1.1-0.7,2.3-1.1,3.5-1.3c2.6-0.3,5.2,0.7,7,2.7c3.9,3.9,6.7,8.9,9.2,14.1c2.5,5.4,4.7,10.9,6.5,16.5
		c1.9,5.7,3.7,11.6,5.2,17.7c0.8,3,1.6,6.1,2.3,9.1c0.3,1.6,0.7,3.1,1,4.6s0.6,3.1,0.9,4.7c1.4,7,2.1,14.1,2,21.2
		c0,3.4-0.5,6.8-1.4,10.1c-0.5,1.6-1.2,3.1-2.2,4.4l-0.8,0.8c-0.3,0.2-0.6,0.4-1,0.6c-0.7,0.3-1.4,0.3-2.1,0.1
		c-12.8-3.5-25.2-7.1-37.1-9.1c-5.7-1.1-11.6-1.7-17.4-1.7c-5.6,0-11,0.4-16.2,0.9c-10.3,1-19.6,2.5-27.8,4.1l0.4,0.2l-9.2-30.2
		c-1.1-3.5-1.9-6.2-2.5-8.1c-0.3-0.9-0.5-1.6-0.7-2.1S324.7,183.4,324.7,183.4z"/>
	<polygon id="elsry8yq5wwqn" class="st6" points="284.4,227.1 294.4,225.5 288.7,212.2 280.2,216.7 	"/>
	<path id="elkokg71e1p8m" class="st7" d="M287.3,210.9l4.5,10.4l2.5,5.7c3.3,7.8,12.1,11.5,20,8.5l40.7-11.2l-16.6-51.6l-41.2,15.2
		C288.4,191.8,284.1,201.8,287.3,210.9z"/>
	<g id="el13o89db19t2j">
		<g id="elohllktsy24" class="st9">
			<path id="elxizlzi4vo1f" d="M432.9,173.1c7.5,27.5,8.6,51.1,2.6,52.8s-17-19.2-24.5-46.7s-8.6-51.1-2.6-52.8
				S425.4,145.6,432.9,173.1z"/>
		</g>
	</g>
	<path id="elw8ribybh7dr" class="st3" d="M407.1,163.1c0,0,14.5-6.2,19,13.1s-10,20.1-10,20.1C411.6,185.6,408.6,174.5,407.1,163.1z
		"/>
	<path id="elthha5zj2xmc" class="st4" d="M330.3,192.7c0.1,0.3-6.9,2.9-15.6,5.8s-15.9,5.1-15.9,4.8s6.9-2.9,15.6-5.8
		S330.2,192.5,330.3,192.7z"/>
	<path id="elpr9opv6v34" class="st4" d="M332.1,198.4c0.1,0.3-6.9,2.9-15.6,5.8s-15.9,5.1-15.9,4.8s6.9-2.9,15.6-5.8
		S332,198.1,332.1,198.4z"/>
	<path id="elyshytqq9gx" class="st4" d="M333.9,204.1c0.1,0.3-6.9,2.9-15.6,5.8s-15.9,5.1-15.9,4.8s6.9-2.9,15.6-5.8
		S333.8,203.8,333.9,204.1z"/>
	<path id="elg7eu6la83gk" class="st4" d="M335.7,209.8c0.1,0.3-6.9,2.9-15.6,5.8s-15.9,5.1-15.9,4.8s6.9-2.9,15.6-5.8
		S335.6,209.5,335.7,209.8z"/>
	<path id="elqxaba2l4ean" class="st4" d="M458.8,187.8c-0.1,0.2,8.3,3.3,18.8,6.9s18.9,6.5,19,6.3s-8.4-3.3-18.8-6.9
		S458.8,187.6,458.8,187.8z"/>
	<path id="elyj2joda294i" class="st4" d="M455.4,168c0,0.2,13.4-1.7,30-4.2s29.9-4.7,29.9-4.8s-13.4,1.7-30,4.2
		S455.4,167.9,455.4,168z"/>
	<path id="elpf6aja58df" class="st4" d="M452.4,147.8c0.1,0.1,4.8-4.1,10.5-9.4s10.2-9.7,10-9.9s-4.8,4.1-10.5,9.4
		S452.3,147.7,452.4,147.8z"/>
	<path id="ellqi8zfqqh8" class="st4" d="M405.5,129.4c-0.1,0.3-0.2,0.7-0.1,1c-0.1,0.8-0.1,1.7-0.2,2.9s-0.1,2.7-0.1,4.6
		s-0.1,3.8,0,6c0.1,5.2,0.5,10.5,1.2,15.6c0.9,6.4,2.1,12.7,3.7,18.9c1.6,6.2,3.6,12.3,6,18.2c1.9,4.9,4.1,9.6,6.6,14.2
		c1,2,2.1,3.7,2.9,5.2s1.7,2.8,2.4,3.9l1.6,2.4c0.2,0.3,0.4,0.6,0.6,0.8c-0.1-0.3-0.2-0.6-0.4-0.9c-0.4-0.7-0.9-1.5-1.4-2.5
		s-1.4-2.4-2.2-4s-1.8-3.3-2.8-5.3c-2-4-4.2-8.8-6.4-14.2c-2.3-5.9-4.3-12-5.9-18.2c-1.6-6.2-2.8-12.4-3.7-18.7
		c-0.8-5.8-1.2-11.1-1.4-15.6c-0.1-2.2-0.1-4.2-0.2-6s0-3.3,0-4.5s0-2.1,0-2.9C405.6,130,405.5,129.7,405.5,129.4z"/>
</g>
<g id="freepik--icon-4--inject-6">
	<path id="elvuekw4cehn" class="st6" d="M425.2,355.5L425.2,355.5c-19.5,0-35.4-15.8-35.4-35.4l0,0l0,0c0-19.5,15.8-35.4,35.4-35.4
		l0,0c19.5,0,35.4,15.8,35.4,35.4l0,0C460.6,339.7,444.8,355.5,425.2,355.5C425.2,355.5,425.2,355.5,425.2,355.5z"/>
	<path id="el0sqr41vx8mfr" class="st3" d="M409.2,332.5c3,1.9,6.5,3,10.1,3c12.2,0,19.1-10.3,18.7-19.5c1.3-0.9,2.4-2.1,3.3-3.4
		c-1.2,0.5-2.5,0.9-3.8,1c1.4-0.8,2.4-2.1,2.9-3.6c-1.3,0.8-2.7,1.3-4.2,1.6c-2.5-2.6-6.7-2.8-9.3-0.3c-1.7,1.6-2.4,4-1.9,6.3
		c-5.3-0.3-10.2-2.8-13.5-6.9c-1.7,3-0.9,6.8,2,8.8c-1.1,0-2.1-0.3-3-0.8c0,3.2,2.2,5.9,5.3,6.5c-1,0.3-2,0.3-3,0.1
		c0.9,2.7,3.3,4.5,6.1,4.6C416.1,331.9,412.7,332.9,409.2,332.5z"/>
	<g id="elqiw4nxitrr">
		<rect id="elwqisidqvugp" x="416.7" y="258.4" class="st6" width="1" height="33"/>
	</g>
	<path id="ela2wh29ujyuv" class="st6" d="M415.8,258.4c0,1.8-1.5,3.3-3.3,3.3s-3.3-1.5-3.3-3.3s1.5-3.3,3.3-3.3l0,0
		C414.3,255.1,415.8,256.6,415.8,258.4z"/>
</g>
<g id="freepik--icon-3--inject-6">
	<path id="elam7g7xrz21" class="st6" d="M540.4,257.3L540.4,257.3c-19.5,0-35.4-15.8-35.4-35.4c0,0,0,0,0,0l0,0
		c0-19.5,15.8-35.4,35.4-35.4l0,0c19.5,0,35.4,15.8,35.4,35.4c0,0,0,0,0,0l0,0C575.7,241.4,559.9,257.3,540.4,257.3
		C540.4,257.3,540.4,257.3,540.4,257.3z"/>
	<path id="elp0ysbd9jc2o" class="st3" d="M557.1,214.6c0-1.4-0.3-2.8-0.8-4.1c-0.4-1.1-1.1-2.2-2-3c-0.8-0.9-1.9-1.5-3-1.9
		c-1.3-0.5-2.7-0.8-4.1-0.8c-1.8-0.1-2.4-0.1-7-0.1s-5.2,0-7,0.1c-1.4,0-2.8,0.3-4.1,0.8c-2.3,0.9-4.1,2.7-4.9,4.9
		c-0.5,1.3-0.8,2.7-0.8,4.1c-0.1,1.8-0.1,2.4-0.1,6.9s0,5.2,0.1,7c0,1.4,0.3,2.8,0.8,4.1c0.9,2.3,2.7,4.1,4.9,4.9
		c1.3,0.5,2.7,0.8,4.1,0.8c1.8,0.1,2.4,0.1,7,0.1s5.2,0,7-0.1c1.4,0,2.8-0.3,4.1-0.8c1.1-0.4,2.2-1.1,3-1.9c0.9-0.8,1.6-1.9,2-3
		c0.5-1.3,0.8-2.7,0.8-4.1c0.1-1.8,0.1-2.4,0.1-7S557.2,216.4,557.1,214.6z M554.1,228.4c0,1.1-0.2,2.1-0.6,3.1
		c-0.6,1.5-1.7,2.6-3.2,3.2c-1,0.4-2.1,0.6-3.1,0.6c-1.8,0.1-2.3,0.1-6.8,0.1s-5,0-6.8-0.1c-1.1,0-2.1-0.2-3.1-0.6
		c-0.7-0.3-1.4-0.7-1.9-1.3c-0.6-0.5-1-1.2-1.3-1.9c-0.4-1-0.6-2.1-0.6-3.1c-0.1-1.8-0.1-2.3-0.1-6.8s0-5,0.1-6.8
		c0-1.1,0.2-2.1,0.6-3.1c0.6-1.5,1.7-2.6,3.2-3.2c1-0.4,2.1-0.6,3.1-0.6c1.8-0.1,2.3-0.1,6.8-0.1l6.8,0.1c1.1,0,2.1,0.2,3.1,0.6
		c0.7,0.3,1.4,0.7,1.9,1.3c0.6,0.5,1,1.2,1.3,1.9c0.4,1,0.6,2.1,0.6,3.1c0.1,1.8,0.1,2.3,0.1,6.8S554.2,226.6,554.1,228.4
		L554.1,228.4z"/>
	<path id="elk9c7z9gp3cd" class="st3" d="M540.4,212.9c-4.8,0-8.7,3.9-8.7,8.7s3.9,8.7,8.7,8.7c4.8,0,8.7-3.9,8.7-8.7c0,0,0,0,0,0
		C549,216.8,545.2,212.9,540.4,212.9z M540.4,227.2c-3.1,0-5.6-2.5-5.6-5.6s2.5-5.6,5.6-5.6c3.1,0,5.6,2.5,5.6,5.6
		S543.5,227.2,540.4,227.2L540.4,227.2L540.4,227.2z"/>
	<path id="el6lg73kbqtc4" class="st3" d="M549.4,210.5c-1.1,0-2,0.9-2,2s0.9,2,2,2s2-0.9,2-2S550.5,210.5,549.4,210.5z"/>
	<g id="ely0btwbgtg6g">
		<rect id="elc47ku1e3fzf" x="485.3" y="199.4" class="st6" width="1" height="46.9"/>
	</g>
	<path id="elaln86e1ggc8" class="st6" d="M464.3,219.9c1.5,1.1,1.7,3.2,0.7,4.6c-1.1,1.5-3.2,1.7-4.6,0.7c-1.5-1.1-1.7-3.2-0.7-4.6
		c0,0,0,0,0,0C460.8,219.1,462.8,218.9,464.3,219.9z"/>
</g>
<g id="freepik--icon-2--inject-6">
	<path id="elgivvq12bk5" class="st6" d="M338,103.3L338,103.3c-20,0-36.2-16.2-36.2-36.2c0,0,0,0,0,0l0,0c0-20,16.2-36.2,36.2-36.2
		l0,0l0,0c20,0,36.2,16.2,36.2,36.2l0,0C374.3,87,358.1,103.2,338,103.3C338.1,103.3,338.1,103.3,338,103.3z"/>
	<path id="elrws6bacur3k" class="st3" d="M333.4,83.2h7.4V64.7h5.2l0.5-6.2h-5.7V55c0-1.5,0.3-2,1.7-2h4v-6.5h-5.1
		c-5.5,0-8,2.4-8,7.1v5h-3.9v6.3h3.9L333.4,83.2z"/>
	<rect id="eldfq1uv43ek7" x="338.4" y="96.7" class="st6" width="1" height="42.4"/>
	<path id="elgww4eta57l" class="st6" d="M335.5,140c0.5-1.8,2.2-2.8,4-2.4c1.8,0.5,2.8,2.2,2.4,4c-0.5,1.7-2.2,2.8-4,2.4
		C336.1,143.5,335.1,141.8,335.5,140z"/>
</g>
<g id="freepik--icon-1--inject-6">
	<path id="el27ss9yhs5gd" class="st6" d="M253.3,161.4L253.3,161.4c-19.5,0-35.4-15.8-35.4-35.4l0,0l0,0c0-19.5,15.8-35.4,35.4-35.4
		l0,0l0,0c19.5,0,35.4,15.8,35.4,35.4l0,0C288.6,145.6,272.8,161.4,253.3,161.4z"/>
	<path id="eli8tvhyzxvhm" class="st10" d="M272.5,124.6c-0.3-10.5-9.1-18.8-19.6-18.5c-9.9,0.3-18,8.2-18.5,18.1c0,0.3,0,0.6,0,0.8
		c0,3.4,0.9,6.8,2.7,9.8l-2.1,6.3c-0.4,1,0.1,2.2,1.1,2.6c0.5,0.2,1,0.2,1.4,0l6.7-2.1c9.2,5.1,20.8,1.7,25.9-7.5
		c1.5-2.8,2.3-5.9,2.4-9L272.5,124.6z M253.5,141c-3.1,0-6.2-0.9-8.8-2.6l-6.1,2l2-5.9c-2-2.7-3-6-3-9.3c0-0.5,0-1,0.1-1.5
		c0.8-8.8,8.6-15.3,17.4-14.5c7.8,0.7,13.9,7,14.5,14.8c0,0.4,0,0.8,0,1.2C269.5,134,262.3,141.1,253.5,141L253.5,141z"/>
	<path id="elmegd8bi3rl" class="st10" d="M262.2,128.9c-0.5-0.2-2.8-1.3-3.2-1.5s-0.7-0.2-1.1,0.2s-1.2,1.5-1.5,1.8s-0.5,0.3-1,0.1
		c-1.4-0.5-2.7-1.3-3.8-2.3c-1-0.9-1.9-2-2.6-3.2c-0.3-0.5,0-0.7,0.2-0.9s0.5-0.6,0.7-0.8l0.2-0.2c0.1-0.2,0.2-0.4,0.3-0.6
		c0.1-0.3,0.1-0.6,0-0.8c-0.1-0.2-1.1-2.5-1.4-3.4s-0.8-0.8-1.1-0.8s-0.6-0.1-0.9-0.1c-0.5,0-0.9,0.2-1.2,0.6
		c-1.1,1-1.7,2.4-1.6,3.9c0,0.5,0.1,1.1,0.2,1.6c0.4,1.2,0.9,2.2,1.7,3.2c0.2,0.3,3.2,5.1,8,7s4.8,1.2,5.6,1.1
		c1.3-0.2,2.5-1,3.1-2.2c0.3-0.7,0.4-1.5,0.3-2.2C263,129.3,262.7,129.2,262.2,128.9z"/>
	<g id="elbbbxo3kli0q">
		<rect id="eliqqcpz64h5" x="278.7" y="140.6" class="st6" width="1" height="33"/>
	</g>
	<path id="eliv3fb5h261j" class="st6" d="M287.3,171.6c-0.8-1.6,0-3.6,1.6-4.3c1.6-0.8,3.6,0,4.3,1.6c0.8,1.6,0,3.6-1.6,4.3
		C290,174,288.1,173.3,287.3,171.6z"/>
</g>
<g id="freepik--character-2--inject-6">
	<path id="elvqbalglb098" class="st8" d="M590.3,378.5h65c2.7,0,4.9,2.2,4.9,4.9l0,0v73.4c0,2.7-2.2,4.9-4.9,4.9l0,0h-65
		c-7.3,0-13.3-6-13.3-13.3v-56.6C577,384.5,583,378.5,590.3,378.5z"/>
	<g id="eloyzcmuljwh">
		<g id="el6omwcbf7c1p" class="st9">
			<path id="eluwrdnvaqkb" d="M590.3,378.5h65c2.7,0,4.9,2.2,4.9,4.9l0,0v73.4c0,2.7-2.2,4.9-4.9,4.9l0,0h-65
				c-7.3,0-13.3-6-13.3-13.3v-56.6C577,384.5,583,378.5,590.3,378.5z"/>
		</g>
	</g>
	<path id="elobz9llmz8im" class="st8" d="M566.1,378.5h70.8c2.2,0,4,1.8,4,4v75.1c0,2.2-1.8,4-4,4h-70.8c-2.2,0-4-1.8-4-4v-75.1
		C562,380.3,563.9,378.5,566.1,378.5z"/>
	<path id="elukzagz148pj" class="st11" d="M552.2,278.2c0,0-8.8-7.6-11.1-9s-6.4-0.5-9.9-1.1s-8.6-2.9-9.9-2.2
		c-1.5,0.8,0.1,4.3,5.5,6.4l-1.6-0.1l-3.9,0.3c0,0-1.4-2.1-2.7-2.1c-1.7,0-1.7,1.5-1.7,1.5s-2.7-3.1-3.5,0.2c0,0-3.1-1.2-3.3,1.2
		c0,0-0.7,1.9,6,2.4c0,0,5.7,5.3,7,5.9s6.2-0.2,6.2-0.2s1.4,2,2.9,2.1c2.8,0.2,10-0.3,10-0.3l2.8,3.4L552.2,278.2z"/>
	<path id="eloi9xtgrmizc" class="st12" d="M529.5,281.4c-0.2-0.4-0.4-0.8-0.7-1.1c-0.7-1-1.1-2.1-1.3-3.2c-0.1-1.7,0.5-3.4,1.7-4.7
		c0.3-0.4,0.6-0.8,1-1.1c0.3-0.4,0.7-0.8,1.1-1.1c0.3-0.3,0.9-0.3,1.2,0c0.4,0.4,0.5,0.9,0.5,1.4c-0.1,1.4-0.8,2.8-1.9,3.6l-0.2,0.2
		l0.2,0.2c0.7,0.6,1.3,1.3,1.8,2l0.1,0.2l0.2-0.1c1.9-1.2,3.9-2.1,6.1-2.6c1.6-0.3,2.6-0.3,2.6-0.4c-0.2,0-0.5,0-0.7,0
		c-0.6,0-1.3,0.1-1.9,0.2c-2.3,0.4-4.4,1.2-6.3,2.5l0.3,0.1c-0.5-0.8-1.2-1.5-1.9-2.2v0.4c1.3-1,2-2.4,2.1-4
		c0.1-0.7-0.2-1.3-0.6-1.8c-0.3-0.2-0.6-0.4-0.9-0.4c-0.3,0-0.6,0.1-0.9,0.3c-0.4,0.4-0.8,0.7-1.2,1.2c-0.4,0.4-0.7,0.8-1,1.2
		c-1.2,1.4-1.8,3.2-1.7,5c0.2,1.2,0.8,2.3,1.5,3.3C529,280.8,529.2,281.1,529.5,281.4z"/>
	<path id="elf3cwv52ghj" class="st12" d="M520.8,272c0.7,1.3,1.6,2.5,2.7,3.5c0.4,0.5,0.8,0.9,1.2,1.3c0.4,0.4,0.8,0.6,1.3,0.7
		c0.3,0,0.7,0,1-0.1c0.2-0.1,0.3-0.1,0.3-0.2s-0.1,0-0.3,0c-0.3,0-0.6,0-0.9,0c-0.4-0.1-0.8-0.3-1.1-0.6c-0.3-0.4-0.7-0.8-1.1-1.3
		C523,274.1,522,273,520.8,272z"/>
	<path id="eli6wwcxz681m" class="st12" d="M523.5,280.8c0.1-0.1-1.6-2-3.5-4.5s-3-4.8-3.2-4.8C518.3,275.1,520.6,278.3,523.5,280.8
		L523.5,280.8z"/>
	<path id="el5ax5u50bkne" class="st12" d="M517.9,277.4c-0.7-1-1.4-1.9-2.3-2.8c-0.7-1-1.5-1.9-2.4-2.7c0.5,1.1,1.2,2.1,2,3
		C516,275.9,516.9,276.7,517.9,277.4z"/>
	<path id="el1q1c7og6ont" class="st12" d="M528.4,272.6c0-0.1-0.8-0.3-1.8-0.4s-1.8,0-1.8,0.1s0.8,0.3,1.8,0.4
		S528.4,272.7,528.4,272.6z"/>
	<path id="elk7e2z7w7y3h" class="st13" d="M602.7,254.7c0,0-9.4-0.7-14.8,10.2c-3.6,7.2-14.5,26.7-14.5,26.7l-21.5-18l-12.6,13.6
		c0,0,21.5,25.6,29.9,27.6s18.2-3.7,21.3-8.1s13.3-15,13.3-15L602.7,254.7z"/>
	<path id="elodgg8neznda" class="st4" d="M605.2,277.8l1.5-24.1c0-18.8-1.9-40.4,0.4-46.6c4.2-11.3,19.4-13.8,19.4-13.8
		c20.5-2.1,24.7,13.6,27.2,27.9c0.4,2.4,1.6,6.7,3.1,11.7c3.4,10.4,7.5,21,15.3,27.8c3,2.7,5,6.3,5.8,10.3c0.8,3.9-1.2,8.7-5.1,9.5
		c3.7,3.3,4.1,9.1,0.7,12.8c-0.5,0.6-1.1,1.1-1.7,1.5c-3.2,2.2-7.4,2-11.3,1.7s-7.9-0.9-11-3.2s-4.8-6.1-6-9.7
		c-1.5-4.4-2.8-8.9-3.6-13.5L605.2,277.8z"/>
	<path id="elgwt46mfyqvs" class="st11" d="M625.9,198.6l1.5-1l12.9,7.7c1.9,0.4,3.2,2.3,3,4.3l-8.4,44.4c-0.5,3,0,5.9-2.2,8
		l-15.1,14.2c-5.3,5.1-2.9-7.6-5.4-14.5c-0.2-0.5,1.1-2,1.1-2.3c0-0.3,0-0.7,0-1c0.2-3.7,0.6-6.8,0.6-6.8c0.4-4,0.5-5.6,0.5-5.6
		s-8.3-2.3-8.9-13.4c-0.3-5.6,1.1-12.9,2.5-20.1C609.8,202.4,617.8,197.4,625.9,198.6z"/>
	<path id="elelgct7dcxz8" class="st4" d="M622.7,221.8c-0.1,0.8,0.5,1.5,1.2,1.6c0.7,0.1,1.4-0.4,1.6-1.1c0,0,0,0,0,0
		c0.1-0.8-0.5-1.5-1.2-1.6C623.5,220.5,622.8,221,622.7,221.8C622.7,221.8,622.7,221.8,622.7,221.8z"/>
	<path id="elol2va8yg8sk" class="st4" d="M608.9,219.6c-0.1,0.8,0.5,1.5,1.2,1.6c0.7,0.1,1.4-0.3,1.6-1.1c0,0,0,0,0,0
		c0.1-0.8-0.4-1.5-1.2-1.6C609.8,218.4,609.1,218.9,608.9,219.6C608.9,219.6,608.9,219.6,608.9,219.6z"/>
	<path id="el8nmqif9m28y" class="st4" d="M608.8,216c0.2,0.2,1.3-0.5,2.8-0.3s2.5,1,2.7,0.9s-0.1-0.4-0.5-0.8
		c-0.6-0.5-1.4-0.8-2.2-0.9c-0.8-0.1-1.6,0.1-2.3,0.5C608.9,215.6,608.7,215.9,608.8,216z"/>
	<path id="elxy7p0rkjnkl" class="st4" d="M623.4,218c0.2,0.2,1.2-0.6,2.8-0.6s2.6,0.8,2.8,0.6s-0.1-0.4-0.6-0.8
		c-0.7-0.5-1.4-0.7-2.2-0.7c-0.8,0-1.6,0.3-2.2,0.7C623.5,217.6,623.3,217.9,623.4,218z"/>
	<path id="eln1mtl3qgtge" class="st4" d="M617.1,228.1c-0.8-0.3-1.6-0.6-2.4-0.7c-0.4-0.1-0.7-0.2-0.8-0.5c0-0.4,0.1-0.8,0.4-1.1
		l1.5-2.8c2-4,3.5-7.4,3.4-7.4s-1.9,3.1-4,7.1l-1.4,2.9c-0.3,0.4-0.4,1-0.4,1.5c0.1,0.3,0.3,0.5,0.6,0.6c0.2,0.1,0.4,0.1,0.7,0.2
		C615.4,228,616.3,228.1,617.1,228.1z"/>
	<path id="elv5a4irdd64q" class="st12" d="M614.2,245.9c5.2,0.6,10.4-0.2,15.1-2.4c0,0-4.5,7.2-15.4,5.1L614.2,245.9z"/>
	<path id="elogi783uhyij" class="st4" d="M623.6,211.8c0.1,0.4,1.7,0.3,3.4,0.5s3.2,0.8,3.5,0.4c0.1-0.2-0.1-0.6-0.7-1
		c-0.8-0.5-1.6-0.9-2.5-1c-0.9-0.1-1.8-0.1-2.7,0.2C623.9,211.3,623.5,211.6,623.6,211.8z"/>
	<path id="elwvyyd3euakk" class="st4" d="M609.8,209.9c0.2,0.4,0.5,0.3,2,0.6s3.7,1,4,0.7c0.2-0.1,0.1-0.5-0.4-1
		c-0.6-0.6-1.4-1-2.3-1.1c-0.8-0.2-1.7-0.2-2.5,0.1C609.9,209.4,609.7,209.7,609.8,209.9z"/>
	<path id="elb5lzgd8ipmq" class="st4" d="M640,228.6c0,0-6.8,1.2-13-17.5c-1.3-4.5-2.1-9.2-2.2-13.9l2.6-0.4c0,0,14.5,6.6,14.8,6.9
		s2.6,8.4,2.6,8.4L640,228.6z"/>
	<path id="elnppupqsdprm" class="st11" d="M638.2,227.6c0.1-0.8,1.2-2.6,2-2.7c2.2-0.1,6.1,0.5,5.5,6c-0.7,7.5-8.1,5.2-8.1,5
		S637.9,230.4,638.2,227.6z"/>
	<path id="elvh55si0jwt" class="st12" d="M640.3,233.2c0,0,0.1,0.1,0.3,0.2c0.3,0.2,0.7,0.2,1,0.1c1-0.5,1.7-1.6,1.8-2.8
		c0.1-0.6,0-1.3-0.2-1.9c-0.1-0.5-0.4-0.9-0.9-1.1c-0.3-0.1-0.6,0-0.8,0.3c-0.1,0.2-0.1,0.4-0.1,0.4s-0.1-0.1,0-0.4
		c0.1-0.2,0.2-0.3,0.3-0.4c0.2-0.1,0.5-0.2,0.7-0.1c0.6,0.2,1.1,0.7,1.2,1.3c0.3,0.7,0.3,1.4,0.2,2.1c-0.2,1.5-1.1,2.9-2.2,3
		c-0.4,0.1-0.8,0-1.2-0.3C640.3,233.4,640.3,233.3,640.3,233.2z"/>
	<path id="ellygx1awpg3m" class="st8" d="M641.6,236.7c0,1.1-0.8,1.9-1.9,2s-1.9-0.8-2-1.9c0-1,0.8-1.9,1.9-2
		C640.7,234.7,641.6,235.5,641.6,236.7C641.6,236.6,641.6,236.6,641.6,236.7z"/>
	<path id="elzvg3w5bg939" class="st4" d="M665,201.8c-2.2-2.6-5.6-3.7-8.9-3c-3.2,0.8-5.9,3.1-6.9,6.3l-0.9,18.9
		c1.7,0.8,3.7,0,4.5-1.7c0.4-0.9,0.4-1.9,0-2.7c0.9,1.5,2.7,2.3,4.4,2c1.7-0.4,2.9-1.9,3-3.6c0-1.4-0.9-2.7-2.2-3.2
		c3,0.5,6-0.9,7.6-3.5C667.4,208.1,667.1,204.4,665,201.8z"/>
	<path id="el5jrfg8iqaog" class="st8" d="M651.5,219.6c-0.1,0.1-0.2,0.2-0.3,0.2c-0.3,0.2-0.7,0.4-1,0.5c-1.3,0.5-2.7,0.9-4.1,1
		c-2.1,0.2-4.2,0-6.3-0.6c-2.5-0.7-4.8-2-6.8-3.7c-1.9-1.7-3.5-3.8-4.7-6.1c-1-1.9-1.7-3.9-2.1-6c-0.3-1.4-0.5-2.8-0.5-4.2
		c0-0.5,0-0.9,0-1.1c0-0.1,0-0.3,0-0.4c0.1,0.5,0.1,1,0.1,1.5c0.1,1.4,0.3,2.8,0.6,4.2c0.5,2,1.2,4,2.1,5.8c1.2,2.3,2.7,4.3,4.6,6
		c1.9,1.7,4.2,2.9,6.6,3.6c2,0.6,4.1,0.8,6.1,0.7C647.9,220.8,649.8,220.4,651.5,219.6z"/>
	<path id="el0tzieky97hl" class="st8" d="M651.8,222c0,0-0.2,0.5-0.7,1.1c-1.4,1.6-3.3,2.7-5.4,2.9c-0.4,0.1-0.9,0-1.3-0.1
		C647.3,225.6,650,224.2,651.8,222z"/>
	<path id="elqtqak2pydh" class="st8" d="M653.6,221.4c-0.2-0.8-0.4-1.7-0.5-2.5c-0.3-1.6-0.8-3.8-1.4-6.1s-1.3-4.5-1.8-6
		c-0.3-0.8-0.6-1.6-0.8-2.5c0.4,0.8,0.8,1.6,1.1,2.4c0.8,2,1.4,4,1.9,6c0.5,2,0.9,4.1,1.2,6.2C653.6,219.7,653.7,220.6,653.6,221.4z
		"/>
	<path id="eligv6apodg2h" class="st12" d="M621.3,233c0-0.5-0.2-1.1-0.6-1.5c-0.7-0.8-1.8-1-2.7-0.5c-1,0.6-1.6,1.6-1.5,2.7l0,0
		c0.4,0.7,1,1.2,1.8,1.4l0.4,0.1c0.6,0.1,1.3-0.1,1.8-0.4C621,234.3,621.3,233.7,621.3,233z"/>
	<path id="elmg3dc8mn5i" class="st4" d="M620.8,230.2c-0.2,0-0.4,1.6-1.8,2.6s-3.1,0.7-3.2,0.9s0.3,0.3,1.1,0.4
		c0.9,0.1,1.9-0.2,2.6-0.7c0.7-0.5,1.3-1.3,1.4-2.2C621,230.6,620.9,230.2,620.8,230.2z"/>
	<path id="el74s9zj1q58e" class="st7" d="M601.6,254.7c0,0-11.5,15.6-12.5,21s1.7,40.3,3.1,46.4l-8.9,20.1l15.3,3.6l50.8-0.9
		l-2.1-33.4l5.1-22.2l0.5-29.2l-18.1-6c-4.7,9.6-20.3,6.4-21.2-1.2L601.6,254.7z"/>
	<path id="elsogm23xe0nj" class="st13" d="M652.8,260c4.3,1.9,7.8,5.2,9.8,9.4c2.9,5.8,10.8,30.8,12.7,37.1c2.2,7,2.8,12.9-1.1,17.7
		c-1.1,1.4-1.3,3-9.6,6.5s-30,10-30,10l-4.6-11.3l26.8-16.4l-7.7-20.9L652.8,260z"/>
	<path id="elos1c68tkio" class="st4" d="M654.8,281.4c0.1,0-1.5,6.7-3.6,15s-4,14.9-4.1,14.8s1.5-6.7,3.6-15
		S654.7,281.4,654.8,281.4z"/>
	<path id="elasu80qxbgs5" class="st11" d="M607,332.6l2.2-1l-0.8,1c-0.6,0.6-0.9,1.5-0.7,2.4c0.3,1.2,2.6,1.5,2.6,1.5
		c-0.1,0.9,0.1,1.7,0.7,2.4c0.8,1.1,3.8,0.3,3.8,0.3l-0.4,0.9c-0.5,1,0.7,2.2,1.3,2.3c1.3-0.1,2.6-0.5,3.8-1.1
		c1-0.7,4.7-0.4,4.7-0.4s4.6,1.5,6.6,0.8c1.1-0.3,2-1.1,2.5-2.1c0,0-0.3-8.6-3.2-10c-1.4-0.7-9.8-3.9-12.3-5
		c-0.8-0.4-1.8-0.4-2.7-0.1c-2.7,1-7.6,3.1-8.9,4c0,0-2.2,1.4-1.7,2.6C604.7,332.3,605.9,332.9,607,332.6
		C607,332.6,607,332.6,607,332.6z"/>
	<path id="elkgzqd9it4v" class="st12" d="M613.4,328.7c-0.7,0.6-1.4,1.2-2.2,1.7c-0.7,0.6-1.5,1.1-2.3,1.5c0.7-0.6,1.4-1.2,2.2-1.7
		C611.8,329.7,612.6,329.2,613.4,328.7z"/>
	<path id="el18aipkjh3io" class="st12" d="M615.6,333.5c0,0.1-1.2,0.6-2.7,1.5s-2.6,1.6-2.7,1.5c0.2-0.2,0.5-0.4,0.7-0.6
		c0.5-0.3,1.1-0.8,1.8-1.2c0.6-0.4,1.3-0.7,1.9-1C615,333.6,615.3,333.5,615.6,333.5z"/>
	<path id="elduuxskfw1en" class="st12" d="M618.7,337c-0.7,0.5-1.3,0.9-2.1,1.3c-0.7,0.4-1.4,0.8-2.2,1.1c0.7-0.5,1.3-0.9,2.1-1.3
		C617.2,337.7,617.9,337.3,618.7,337z"/>
	<path id="elj2y4x0ttzyp" class="st4" d="M591.4,266.7c0,0.2,0,0.3,0,0.5c0,0.4-0.1,0.9-0.2,1.4c-0.2,1.2-0.4,3-0.6,5.2
		c-1.1,11.4-1,22.9,0.3,34.4c0.3,2.2,0.5,4,0.7,5.2c0.1,0.6,0.1,1,0.2,1.4c0,0.2,0,0.3,0,0.5c-0.1-0.2-0.1-0.3-0.1-0.5
		c-0.1-0.4-0.2-0.8-0.3-1.4c-0.2-1.2-0.5-3-0.8-5.2c-1.6-11.4-1.7-23-0.3-34.4c0.3-2.2,0.5-4,0.7-5.2c0.1-0.6,0.2-1,0.2-1.4
		C591.3,267,591.3,266.8,591.4,266.7z"/>
	<path id="el1ulfyb4mpha" class="st8" d="M567.1,449.1l11.2,17.2c0,0-13.1,17.2-11.3,20.5l33-20.6l-16.5-27.4L567.1,449.1z"/>
	<path id="el91whtapsee9" class="st0" d="M587.6,458.4c0.8-0.2,1.6,0.2,1.9,1c0.2,0.8-0.2,1.6-0.9,1.9c-0.8,0.2-1.7-0.3-2-1.1
		c-0.2-0.8,0.4-1.8,1.2-1.9"/>
	<path id="eldugdfxe38vo" class="st4" d="M600,466.2l-1.8-2.7l-30.9,20.7c0,0-1.1,1.6-0.3,2.5L600,466.2z"/>
	<path id="el43vqettq3qc" class="st3" d="M577.7,466.4c0.1,0.2,1-0.3,2.1-0.2s2,0.5,2.1,0.3s-0.7-1-2.1-1S577.6,466.3,577.7,466.4z"
		/>
	<path id="elfda7d41rz47" class="st3" d="M575.1,470.1c0.1,0.2,0.9,0,1.9,0.4s1.6,1,1.7,0.9s-0.3-1.1-1.5-1.5S575,469.9,575.1,470.1
		z"/>
	<path id="elwugprfgx0pe" class="st3" d="M575.8,475.6c0.2,0-0.1-1-1.1-1.7s-1.9-0.5-1.9-0.4s0.8,0.4,1.6,0.9
		S575.6,475.7,575.8,475.6z"/>
	<path id="elqj9usm4vs1q" class="st3" d="M575.5,462.2c0.2,0.1,0.8-0.6,1.7-1.1s1.8-0.6,1.8-0.8s-1-0.4-2.2,0.2
		S575.4,462.2,575.5,462.2z"/>
	<path id="el3xxnq6w835c" class="st4" d="M601,344.9c0,0-54.1,18-63,25.2c-7.2,5.8-6.2,22.4-2.1,29c1.7,2.7,39.1,65.4,39.1,65.4
		l18.6-10.1l-25-61.2c0,0,61-11.9,72.3-16.9c14-6.3,9.5-20.8,9.5-20.8l-2.5-10.5L601,344.9z"/>
	<path id="elh1glhegraij" class="st8" d="M580.9,432.1l11.2,17.2c0,0-13.1,17.2-11.3,20.5l32.9-20.6l-16.5-27.5L580.9,432.1z"/>
	<path id="elv2rxw446vx" class="st0" d="M601.4,441.4c0.8-0.2,1.6,0.2,1.9,1c0.2,0.8-0.2,1.6-0.9,1.9c-0.8,0.2-1.7-0.3-2-1.1
		c-0.2-0.8,0.4-1.8,1.2-1.9"/>
	<path id="el2lw46ro78uk" class="st4" d="M613.8,449.2l-1.8-2.7l-30.9,20.7c0,0-1.1,1.6-0.2,2.5L613.8,449.2z"/>
	<path id="el6vstm6f8myd" class="st3" d="M592.1,449.4c0.1,0.2,1-0.3,2.1-0.2s2,0.5,2.1,0.3s-0.7-1-2.1-1S592,449.3,592.1,449.4z"/>
	<path id="elcik4w2uouhn" class="st3" d="M589.5,453.1c0.1,0.2,0.9,0,1.9,0.4s1.6,1,1.7,0.9s-0.3-1.1-1.5-1.5S589.4,453,589.5,453.1
		z"/>
	<path id="elcqiogwmg6z" class="st3" d="M590.2,458.7c0.2,0-0.1-1-1.1-1.7s-1.9-0.5-1.9-0.4s0.8,0.4,1.6,0.9S590,458.8,590.2,458.7z
		"/>
	<path id="elmycdm6qank" class="st3" d="M590.3,446.3c0.2,0.1,0.8-0.6,1.7-1.1s1.8-0.6,1.8-0.9s-1-0.4-2.2,0.2
		S590.2,446.2,590.3,446.3z"/>
	<path id="el5sumuh6ofcf" class="st4" d="M542.7,346.4c-3.1,2.9-7.9,12.3-2.8,23.3c3.2,7,47.5,75.5,47.5,75.5l18-11.8
		c0,0-15.4-32.3-20.6-47.4c-3.9-11.5-12.6-29.2-13.2-30.4l0,0l27.9-10.2c0,0-29.8-9.5-40.7-7.1S542.7,346.4,542.7,346.4z"/>
	<path id="elsex731qxzzs" class="st8" d="M542.7,346.4c0.2-0.3,0.5-0.5,0.8-0.8c0.8-0.7,1.6-1.4,2.5-2c3.3-2.3,7-4,10.9-5.1l2-0.5
		c0.7-0.1,1.4-0.2,2.1-0.3c1.5-0.1,3-0.1,4.5,0c3.4,0.2,6.8,0.7,10.2,1.3c8.1,1.6,16.2,3.6,24.1,6.1l0.6,0.2l-0.5,0.2l-27.9,10.3
		l0.1-0.3c2.2,4.4,4.3,9,6.4,13.8s4.2,9.7,6.1,14.8s3.8,10.4,6,15.6s4.5,10.5,6.9,15.9c2.7,6,5.5,11.9,8.2,17.7l0.1,0.2l-0.2,0.1
		l-18,11.8l-0.2,0.1l-0.1-0.2c-8.9-13.8-17.2-26.8-24.6-38.4s-13.9-22-19.1-30.6c-1.3-2.2-2.5-4.2-3.6-6.3c-0.9-1.9-1.6-4-2-6.1
		c-0.3-1.8-0.4-3.7-0.3-5.5c0.1-1.5,0.4-3.1,0.8-4.6c0.6-2,1.5-4,2.8-5.7C541.6,347.5,542.1,346.9,542.7,346.4c0,0-0.2,0.2-0.4,0.4
		c-0.4,0.4-0.7,0.8-1,1.3c-1.2,1.8-2.1,3.7-2.7,5.7c-0.4,1.5-0.7,3-0.8,4.5c-0.1,1.8,0,3.7,0.3,5.5c0.4,2.1,1.1,4.1,2,6
		c1,2,2.3,4.1,3.6,6.2c5.3,8.7,11.8,19,19.2,30.6s15.7,24.5,24.7,38.4l-0.3-0.1l18-11.8l-0.1,0.3c-2.7-5.8-5.5-11.7-8.2-17.7
		c-2.4-5.3-4.7-10.6-6.9-15.9s-4.3-10.5-6-15.6s-4-10.1-6.1-14.8s-4.3-9.4-6.4-13.8l-0.1-0.2l0.2-0.1l27.9-10.2v0.4
		c-7.9-2.5-15.9-4.5-24-6.1c-3.3-0.7-6.7-1.1-10.1-1.4c-1.5-0.1-3-0.1-4.5,0c-0.7,0.1-1.4,0.2-2.1,0.3l-1.9,0.5
		c-3.9,1-7.6,2.7-10.9,5c-0.9,0.6-1.7,1.2-2.5,1.9C543,346.1,542.8,346.3,542.7,346.4z"/>
	<path id="eltuz9dcv1z1" class="st8" d="M565.1,349c2.8,1.7,5.1,4.1,6.7,7c-0.1,0.1-1.4-1.7-3.2-3.6S565,349.1,565.1,349z"/>
	<path id="ello6uq9rvq1e" class="st4" d="M580.9,432.1l0.3-0.2l0.8-0.5l3.2-2.1l12-7.7l0.2-0.1l0.1,0.2c4.4,7.3,10.1,16.8,16.5,27.4
		l0.1,0.2l-0.2,0.1l-13.5,8.4L581,470l-0.2,0.1l-0.1-0.2c-0.2-0.6-0.3-1.2-0.1-1.8c0.1-0.6,0.3-1.1,0.5-1.6c0.4-1,0.9-2,1.4-3
		c1-1.9,2.1-3.6,3.2-5.3c2.2-3.4,4.3-6.4,6.4-9v0.2l-8.2-12.6c-0.9-1.5-1.7-2.6-2.2-3.4l-0.5-0.9C581,432.3,581,432.2,580.9,432.1
		c0.1,0,0.1,0.1,0.3,0.3s0.3,0.5,0.6,0.9l2.3,3.4c2,3,4.8,7.2,8.3,12.5l0.1,0.1l-0.1,0.1c-2,2.7-4.1,5.7-6.3,9
		c-1.1,1.7-2.2,3.4-3.2,5.3c-0.5,0.9-1,1.9-1.4,2.9c-0.2,0.5-0.4,1-0.5,1.5c-0.2,0.5-0.2,1,0,1.5l-0.3-0.1l19.5-12.2l13.5-8.4
		l-0.1,0.4l-16.4-27.5l0.3,0.1l-12,7.5l-3.3,2l-0.9,0.5C581.1,432,581,432.1,580.9,432.1z"/>
	<g id="eln7n0273k29">
		<g id="elhfffhrpyo54" class="st9">
			<polygon id="el2ozce8l83k1" points="544.4,344.9 585.5,346.8 649.4,351 647.9,344.9 649.3,344.9 649.2,342.8 547.3,342.8 			"/>
		</g>
	</g>
	<path id="eluygyjbvklcn" class="st4" d="M652.1,300.4c0.2,0.3,0.3,0.6,0.4,0.9l1,2.6c0.9,2.3,2.1,5.5,3.5,9.1l0.1,0.2l-0.2,0.1
		l-7,4.3c-5.1,3.1-9.7,6-13.1,8l-4,2.4c-0.5,0.3-1,0.6-1.5,0.8c0.4-0.4,0.9-0.7,1.4-1l3.9-2.5c3.3-2.1,7.9-5,13-8.1l7-4.3l-0.1,0.3
		l-3.3-9.2c-0.4-1.1-0.7-2-0.9-2.6C652.2,301.1,652.2,300.7,652.1,300.4z"/>
	<path id="el5bujm3l2218" class="st0" d="M536.9,294.9l54.5,2.7c1.8,0.1,3.4,1,3.6,2.8l4.3,40l28.1,1.2c0.9,0.1,1.6,0.9,1.5,1.8
		c-0.1,0.8-0.8,1.4-1.6,1.5l-27.6-1.1l-5.2-0.2l-56.9-2.4l-4.4-42.2c-0.2-2,1.2-3.7,3.2-3.9C536.5,294.8,536.7,294.8,536.9,294.9z"
		/>
	<path id="elmwtv5bvztbq" class="st4" d="M536.9,294.9c-0.3,0-0.6,0-0.9,0c-0.8,0.2-1.6,0.6-2.1,1.3c-0.4,0.5-0.7,1.1-0.8,1.7
		c0,0.8,0,1.5,0.1,2.2c0.2,1.6,0.3,3.5,0.6,5.6c0.8,8.4,2.1,20.5,3.6,35.3v0.1h0.2l87,3.7l2.3,0.1c0.4,0.1,0.9,0,1.2-0.2
		c0.4-0.2,0.7-0.5,0.9-0.9c0.4-0.8,0-1.8-0.8-2.3c-0.4-0.2-0.8-0.3-1.2-0.3h-1.2l-9.1-0.4l-17.5-0.7l0.2,0.2
		c-1.6-14.3-3-27.7-4.3-39.7c0-0.8-0.3-1.6-0.9-2.1c-0.6-0.5-1.3-0.9-2-1c-0.7-0.1-1.5-0.2-2.2-0.2l-2.1-0.1l-8.2-0.4l-14.6-0.7
		l-20.8-1l-5.5-0.2l-1.4,0L536.9,294.9l0.5,0l1.4,0.1l5.5,0.3l20.8,1.1l14.6,0.8l8.2,0.4l2.1,0.1c0.7,0,1.4,0.1,2.1,0.2
		c0.7,0.1,1.3,0.4,1.9,0.9c0.5,0.5,0.8,1.2,0.8,1.9c1.3,12,2.7,25.4,4.2,39.7v0.2h0.2l17.5,0.7l9.1,0.4h1.2c0.3,0,0.7,0.1,1,0.2
		c0.6,0.4,0.8,1.1,0.6,1.8c-0.1,0.3-0.4,0.6-0.7,0.7c-0.3,0.1-0.7,0.2-1,0.1l-2.3-0.1l-87-3.6l0.2,0.1c-1.6-14.8-2.9-26.9-3.7-35.3
		c-0.2-2.1-0.4-3.9-0.6-5.6c-0.1-0.7-0.2-1.5-0.1-2.2c0.2-1.5,1.3-2.7,2.8-3C536.6,294.8,536.9,294.9,536.9,294.9z"/>
	<path id="elq10d3p8x4dc" class="st3" d="M566.5,318.6c-0.1,1.9-1.7,3.4-3.6,3.3c-1.9-0.1-3.4-1.7-3.3-3.6c0.1-1.9,1.7-3.4,3.6-3.3
		c0,0,0,0,0,0C565.1,315.2,566.6,316.8,566.5,318.6z"/>
	<path id="elgq204kor0sk" class="st4" d="M597,343.1c-0.1,0-1.4-10.2-2.9-22.8s-2.7-22.8-2.7-22.8s1.4,10.2,2.9,22.8
		S597.1,343.1,597,343.1z"/>
</g>
<g id="freepik--character-1--inject-6">
	<path id="el1kfbms2ijmhg" class="st4" d="M162,432.4l-0.8,20.2c0,0,20.2,7.5,20.5,11.3l-39.2-0.1l-0.1-31.5L162,432.4z"/>
	<path id="elom6uc0oebg" class="st0" d="M149.1,450.9c-0.8,0.2-1.3,1-1.1,1.8c0.2,0.8,1,1.3,1.8,1.1c0.8-0.3,1.3-1.1,1.2-1.9
		c-0.3-0.8-1.2-1.2-2-1"/>
	<path id="elz9yilxaj3x" class="st8" d="M142.5,463.8l0.1-3.2l37.5,1.3c0,0,1.7,0.8,1.5,2L142.5,463.8z"/>
	<path id="el4jgyn4h99tk" class="st3" d="M161.8,452.4c0,0.2-1,0.3-1.9,0.9s-1.4,1.4-1.6,1.3s0.1-1.2,1.3-1.9
		S161.9,452.2,161.8,452.4z"/>
	<path id="el2947j1t31za" class="st3" d="M166,454.1c0,0.2-0.8,0.5-1.4,1.3s-0.8,1.7-1,1.6s-0.3-1.1,0.5-2.1S165.9,453.9,166,454.1z
		"/>
	<path id="elfj036lkjfgd" class="st3" d="M168.3,459c-0.2,0-0.4-0.9,0-2s1.4-1.5,1.5-1.3s-0.5,0.7-0.9,1.6S168.5,459,168.3,459z"/>
	<path id="el8n957yr4g4w" class="st3" d="M161.5,447.8c-0.1,0.2-1-0.1-2,0s-1.9,0.4-2,0.2s0.7-0.8,2-0.9S161.6,447.6,161.5,447.8z"
		/>
	<path id="elzysxdwesmk" class="st4" d="M114,429.7l-2.1,24.3l3.9,19.7c0.3,1.4-0.6,2.7-1.9,3c-0.1,0-0.1,0-0.2,0l0,0
		c-0.8,0.1-1.6-0.2-2.2-0.8c-3.5-3.8-16.3-17.9-16-19.6c0.3-2,0.5-25.8,0.5-25.8L114,429.7z"/>
	<path id="eltrpek0hd98h" class="st8" d="M113.6,476.7l-18-22.1l-0.1,1c-0.1,0.9,0.2,1.8,0.7,2.5c1.4,1.9,5.5,7.1,15.2,17.8
		C112,476.5,112.9,476.8,113.6,476.7L113.6,476.7z"/>
	<g id="elx2692e3cli8">
		<g id="elz1nyqxds27" class="st14">
			<path id="elw4cpg2l1jup" class="st3" d="M101.1,447.1c0.6,0.5,0.7,1.4,0.3,2c-0.5,0.6-1.4,0.8-2,0.3c-0.6-0.5-0.7-1.4-0.3-2.1
				c0.6-0.6,1.5-0.6,2.1-0.1"/>
		</g>
	</g>
	<path id="el1njr1ppky0i" class="st3" d="M108.8,465.7c0.1,0.1,0.8-1.2,2.3-1.8c0.9-0.3,1.9-0.4,2.8-0.4c0,0-0.3-0.3-0.8-0.4
		c-0.7-0.1-1.5,0-2.2,0.2c-0.7,0.3-1.3,0.8-1.7,1.4C108.8,465.3,108.7,465.7,108.8,465.7z"/>
	<path id="elwykjg54z1qd" class="st3" d="M110.3,469.1c0.7-0.3,1.5-0.6,2.2-0.9c0.8-0.1,1.6-0.2,2.4-0.2c-0.7-0.5-1.7-0.7-2.5-0.4
		C110.9,468,110.2,469,110.3,469.1z"/>
	<path id="el9m22662j8u8" class="st3" d="M105.8,461.3c1.1-0.6,2.2-1.2,3.3-1.6c1.2-0.3,2.4-0.5,3.7-0.6c-1.2-0.4-2.6-0.4-3.8,0.1
		C107.7,459.5,106.6,460.2,105.8,461.3z"/>
	<path id="elvl2ljvkalc9" class="st3" d="M105.8,453.9c0.1,0.1,1.4-0.3,3.2-0.3s3.1,0.6,3.2,0.4
		C110.3,452.8,107.8,452.7,105.8,453.9z"/>
	<path id="elnmg4iy920e" class="st3" d="M106.3,446.7c1.1-0.3,2.2-0.4,3.3-0.4c1.1,0.2,2.2,0.5,3.2,1c0,0-0.2-0.4-0.8-0.7
		c-1.5-0.9-3.3-1.1-4.9-0.5C106.5,446.4,106.2,446.6,106.3,446.7z"/>
	<path id="eloz664xz0ap" class="st3" d="M109.6,445c0.1-0.3,0.1-0.6,0.1-0.9c0-0.9-0.2-1.7-0.6-2.5c-0.2-0.6-0.6-1.1-1.1-1.4
		c-0.4-0.2-0.8-0.1-1.1,0.1c-0.3,0.3-0.4,0.7-0.5,1.1c0,1.7,1.2,3.2,2.9,3.5c1.6,0.3,3.3-0.5,4.2-1.9c0.2-0.4,0.3-0.8,0.1-1.2
		c-0.2-0.4-0.6-0.6-1-0.6c-0.6,0.1-1.2,0.3-1.7,0.7c-0.7,0.5-1.3,1.1-1.8,1.8c-0.2,0.2-0.3,0.5-0.4,0.8c0.7-0.9,1.5-1.6,2.4-2.3
		c0.4-0.3,0.9-0.5,1.5-0.6c0.2,0,0.5,0.1,0.6,0.3c0.1,0.3,0,0.5-0.1,0.8c-0.8,1.2-2.2,1.8-3.6,1.6c-1.4-0.3-2.4-1.5-2.5-2.9
		c0-0.3,0.1-0.5,0.3-0.8c0.2-0.2,0.4-0.2,0.6-0.1c0.5,0.3,0.8,0.7,1,1.2C109.3,442.8,109.5,443.9,109.6,445z"/>
	<path id="elh6ygfjgosgk" class="st4" d="M180.8,262.4c1.9,8.4,2.5,17,1.9,25.5c-0.4,5.4-18.7,155.4-18.7,155.4h-24.7l6.9-140.9
		l-2,0.4c0,0-13.5,60.1-14.6,69.8c-1,8.8-12.4,72.3-12.4,72.3l-22.6,0.3l7.2-84.1l8.4-80.6l3.1-23.4L180.8,262.4z"/>
	<path id="eli6i761761m8" class="st8" d="M146.9,292.9c0,0,0,0.1,0.2,0.2c0.2,0.1,0.4,0.2,0.6,0.3c0.8,0.2,1.7,0,2.3-0.5
		c0.9-0.8,1.5-2,1.6-3.2c0.2-1.3,0.2-2.8,0.3-4.3c0.2-3,0.3-5.8,0.4-7.8c0.1-1.1,0.1-2.2,0-3.2c-0.2,1.1-0.3,2.1-0.3,3.2
		c-0.1,2-0.3,4.8-0.5,7.8c-0.1,1.5-0.1,3-0.3,4.3c0,1.1-0.5,2.2-1.4,3c-0.6,0.5-1.3,0.7-2.1,0.6
		C147.5,293.2,147.2,293.1,146.9,292.9z"/>
	<path id="eln1dn72cm9ng" class="st8" d="M110.6,278.4c0.2,0.1,0.4,0.2,0.7,0.2c0.7,0.2,1.3,0.3,2,0.3c2.2,0.2,4.4-0.2,6.5-1
		c2.1-0.8,3.9-2.1,5.4-3.8c0.4-0.5,0.8-1,1.2-1.6c0.2-0.4,0.4-0.6,0.3-0.7s-0.6,0.8-1.8,2c-3,3.2-7.2,4.9-11.6,4.7
		C111.6,278.6,110.6,278.4,110.6,278.4z"/>
	<path id="elfzq2m86cu3n" class="st8" d="M172.6,272.2c0,0.8,0.1,1.7,0.4,2.5c1,4,3.4,7.5,6.6,10c0.6,0.5,1.4,1,2.1,1.3
		C177,282.7,173.7,277.8,172.6,272.2L172.6,272.2z"/>
	<path id="eldiz2yp3jwgc" class="st4" d="M168.6,112.2c2.5,0.4,4.8-1.3,5.2-3.8c0.4-2.5-1.3-4.8-3.8-5.2c1.7-2,1.6-5-0.4-6.7
		c-1.1-1-2.7-1.4-4.1-1.1c-0.3-3.1-3-5.4-6.2-5.1c-0.9,0.1-1.8,0.4-2.6,0.9c-2.4-1.7-5.6-1.6-7.9,0.2c-2.5-0.3-4.8,1.4-5.1,3.9
		c-0.2,1.5,0.4,3,1.5,4"/>
	<path id="elxqgztrxjlo" class="st15" d="M148.2,96l1-0.1c10.1-0.5,18.8,6.8,20.2,16.8c1.2,9.3,2.4,19.6,2.6,24.6
		c0.4,10.4-9.9,12.5-9.9,12.5l1.5,12.4l-25.2,0.5l-4.5-45.1C132.4,107,137.4,97.2,148.2,96z"/>
	<path id="elmbiz5h0xjai" class="st16" d="M162.1,149.9c-4.8,0.2-9.6-0.9-13.8-3.3c0,0,3.7,7.5,14,6L162.1,149.9z"/>
	<path id="el2vegtok6c9d" class="st4" d="M167.1,122.7c0,0.8-0.6,1.5-1.4,1.6c-0.8,0.1-1.5-0.5-1.6-1.2c0,0,0,0,0,0
		c0-0.8,0.6-1.5,1.4-1.6C166.3,121.4,167,121.9,167.1,122.7C167.1,122.7,167.1,122.7,167.1,122.7z"/>
	<path id="elsag1jl16wjk" class="st4" d="M167.4,118c-0.2,0.2-1.3-0.6-2.9-0.5s-2.7,0.9-2.9,0.8s0.1-0.4,0.6-0.8
		c0.7-0.5,1.5-0.8,2.3-0.8c0.8,0,1.6,0.2,2.3,0.6C167.2,117.6,167.4,117.9,167.4,118z"/>
	<path id="eljz6awj80bec" class="st4" d="M153,123.3c0,0.8-0.6,1.5-1.4,1.6c-0.8,0.1-1.5-0.5-1.6-1.2c0,0,0,0,0,0
		c0-0.8,0.6-1.5,1.4-1.6C152.2,122,152.9,122.5,153,123.3C153,123.3,153,123.3,153,123.3z"/>
	<path id="elmgpy3kpx81k" class="st4" d="M152.4,119.1c-0.2,0.2-1.3-0.6-2.9-0.5s-2.7,0.9-2.9,0.8s0.1-0.4,0.6-0.8
		c0.7-0.5,1.5-0.8,2.3-0.8c0.8,0,1.7,0.2,2.4,0.6C152.3,118.6,152.5,119,152.4,119.1z"/>
	<path id="el8igal37s386" class="st4" d="M158.1,130.6c0.8-0.3,1.7-0.5,2.6-0.6c0.4-0.1,0.8-0.2,0.8-0.4c0-0.4-0.1-0.8-0.3-1.2
		c-0.4-1-0.9-2-1.4-3c-1.9-4.3-3.3-7.9-3.1-8s1.9,3.4,3.7,7.7c0.4,1.1,0.9,2.1,1.3,3.1c0.3,0.5,0.4,1,0.3,1.6
		c-0.1,0.3-0.3,0.5-0.6,0.6c-0.2,0.1-0.5,0.1-0.7,0.1C159.8,130.6,158.9,130.7,158.1,130.6z"/>
	<path id="el10sxq4f8neec" class="st4" d="M152.8,112.9c-0.2,0.4-1.6,0-3.3,0.1s-3.1,0.4-3.3,0c-0.1-0.2,0.2-0.6,0.8-0.9
		c0.8-0.4,1.6-0.7,2.5-0.7c0.9,0,1.7,0.2,2.5,0.6C152.6,112.3,152.9,112.7,152.8,112.9z"/>
	<path id="elrsdi2pmpyfp" class="st4" d="M167.1,111.4c-0.3,0.4-1.6,0.1-3.2,0.1s-2.9,0.4-3.2,0c-0.1-0.2,0-0.6,0.6-0.9
		c0.8-0.5,1.7-0.7,2.6-0.7c0.9,0,1.8,0.2,2.6,0.6C167,110.9,167.2,111.2,167.1,111.4z"/>
	<path id="elnnsv6pcyf8p" class="st4" d="M168.1,108.1c0,0-3.1-6.4-6.3-7.7c-3.9-1.7-5.3,2.6-9,1.8s-7.4-2.4-10.9,0.6
		c-3.9,3.3-1.9,5.3-1.9,9.9c-0.1,18.7-3.2,24.2-4.6,15.4c-0.2-1-2.9-1.6-3.5-5.6c-0.8-5.2-1.3-11.7-0.3-15.4c0.8-3.2,2.5-5.5,5.6-8
		c4.9-4.1,11.9-4.5,16.7-4.2S168.1,100,168.1,108.1z"/>
	<path id="el25e2eg0vud1" class="st15" d="M136,127.8c-0.1-1.6-1.5-2.7-3.1-2.6c0,0-0.1,0-0.1,0c-1.9,0.3-4,1.5-3.7,5.5
		c0.6,7.1,7.6,5,7.6,4.8S136.3,130.7,136,127.8z"/>
	<path id="elcxsn29bad8m" class="st16" d="M135,133c0,0-0.1,0.1-0.3,0.2c-0.3,0.1-0.6,0.2-0.9,0.1c-1-0.5-1.6-1.5-1.6-2.6
		c-0.1-0.6,0-1.2,0.2-1.8c0.1-0.5,0.4-0.8,0.9-1c0.3-0.1,0.6,0,0.8,0.3c0.1,0.2,0.1,0.3,0.1,0.3s0.1-0.1,0.1-0.4
		c-0.1-0.2-0.2-0.3-0.3-0.4c-0.2-0.1-0.5-0.2-0.7-0.1c-0.6,0.2-1,0.6-1.2,1.2c-0.3,0.6-0.3,1.3-0.3,2c0.2,1.4,1,2.7,2,2.9
		c0.4,0.1,0.8,0,1.1-0.3C135,133.1,135,133,135,133z"/>
	<path id="eld8gva0dhmtm" class="st4" d="M135.5,114c0.9,0.7,2,1.1,3.1,1.2c1.1,0.1,2.2-0.6,2.5-1.8c0.1-0.5-0.1-1.1,0.2-1.5
		s1.1-0.4,1.7-0.3c2.1,0.1,4.4-2.3,4.8-4.3c0.6,0.8,1.7,0.9,2.5,0.4c0.6-0.4,1.2-1,1.6-1.6c0.5-0.8,1.4-1.3,2.4-1.3
		c0.5,0.1,1,0.2,1.6,0.3c0.9-0.1,1.3-1.2,1.4-2.2s0.1-2,0.9-2.6c0.8-0.4,1.7-0.4,2.5-0.2c0.9,0.1,2-0.2,2.1-1
		c0.1-0.5-0.1-0.9-0.4-1.3c-1.3-1.7-3.6-2.3-5.5-1.5c-1.1-3.2-4.7-5-7.9-3.8c-1.6,0.5-2.8,1.7-3.6,3.2c-2.7-2.2-6.7-1.8-8.9,0.9
		c-0.5,0.6-0.8,1.2-1.1,1.9c-2.5-0.5-4.9,1.1-5.4,3.6c-0.2,1.2,0,2.4,0.6,3.4c-1.3,0.7-2.1,2.1-2.2,3.6c0,1.5,1.6,2.9,2.9,2.4
		c-0.5,1.3,0.1,2.8,1.3,3.3c1.2,0.5,2.5,0.1,3.2-1"/>
	<path id="elwmc1c5f0gat" class="st8" d="M157.6,98.4v0.1c0,0.1,0,0.3,0,0.4c-0.1,0.5-0.2,1-0.4,1.4c-0.4,0.7-0.9,1.3-1.5,1.8
		c-0.8,0.6-1.8,1-2.9,1l0.1-0.2c0.3,0.6,0.2,1.4-0.1,2c-0.3,0.7-0.7,1.3-1.1,1.8c-0.2,0.3-0.5,0.6-0.8,0.8c-0.3,0.2-0.7,0.4-1.1,0.5
		c-0.8,0.2-1.7-0.1-2.3-0.7l0.3-0.1c-0.1,1.5-0.9,2.9-2.1,3.8c-0.6,0.5-1.5,0.8-2.3,0.9c-0.8,0-1.6-0.1-2.3-0.4l0.2-0.1
		c-0.3,0.9-0.9,1.7-1.6,2.3c-0.7,0.6-1.5,0.9-2.4,0.8c-1.5-0.3-2.8-1.4-3.2-2.9l0.2,0.1c-0.7,0.4-1.6,0.6-2.4,0.5
		c-0.6-0.1-1.2-0.3-1.7-0.7c-0.3-0.2-0.6-0.5-0.8-0.8c-0.1-0.1-0.1-0.2-0.2-0.3c0.3,0.4,0.7,0.8,1.1,1.1c0.5,0.3,1.1,0.5,1.7,0.6
		c0.8,0.1,1.6-0.1,2.3-0.5l0.1-0.1v0.2c0.4,1.4,1.6,2.5,3,2.7c0.8,0.1,1.6-0.2,2.2-0.8c0.7-0.6,1.2-1.3,1.5-2.2v-0.1h0.1
		c0.7,0.3,1.5,0.4,2.2,0.4c0.8,0,1.5-0.3,2.1-0.8c1.1-0.9,1.9-2.2,2-3.6v-0.3l0.2,0.2c0.5,0.5,1.3,0.8,2.1,0.6c0.4,0,0.7-0.2,1-0.4
		c0.3-0.2,0.5-0.5,0.7-0.8c0.4-0.5,0.8-1.1,1.1-1.7c0.3-0.6,0.3-1.2,0.1-1.8l-0.1-0.2h0.2c1,0,2-0.3,2.8-0.9c0.6-0.4,1.1-1,1.5-1.7
		C157.3,99.7,157.5,99.1,157.6,98.4z"/>
	<path id="ell35gwpak2ts" class="st4" d="M158,136.1c-0.1-0.3-1.8,0.2-3.4-1s-1.9-3-2.1-3s-0.2,0.5,0,1.3c0.2,1,0.9,1.9,1.7,2.5
		c0.8,0.6,1.8,0.8,2.8,0.7C157.6,136.5,158,136.2,158,136.1z"/>
	<path id="elg4c7wd92o4c" class="st15" d="M214.3,236.3h4.4c1.1-1.6,2.2-2,4.5-3.3c5.8-3.4,13.6-6.2,15.2-4.9s-0.4,2.8-1,3.2
		s-6.2,2.6-6,4.4s18.5,5.1,19.3,6.9c1.1,2.4-0.9,3.3-8.6,2l-2.2-0.4c0,0,1.3,1.9-0.1,3.3s-2.6,0.8-2.6,0.8c0,1.1-0.6,2.1-1.6,2.5
		c-1.8,0.8-2.5,0-2.5,0s0.4,4.4-3.4,3.7c-3.5-0.6-5.9-0.6-9.3-1.3c-1-0.2-2-0.6-2.9-1.1l-4.3-1.7
		C212.4,247.3,213.9,237.1,214.3,236.3z"/>
	<path id="elpevnfhbiuj" class="st16" d="M237.2,248.2c-0.6-0.7-1.3-1.2-2.1-1.7c-0.7-0.4-1.6-0.9-2.5-1.5c-0.5-0.3-1-0.8-1.3-1.3
		c-0.2-0.3-0.2-0.7-0.2-1c0-0.4,0.2-0.7,0.4-1c0.5-0.5,1.2-0.7,1.9-0.6c0.6,0,1.2,0.2,1.8,0.3c1,0.3,1.9,0.6,2.7,1.1
		c0.6,0.3,1.1,0.7,1.6,1.2c0.3,0.3,0.5,0.5,0.5,0.6s-0.8-0.7-2.2-1.4c-0.9-0.4-1.8-0.8-2.7-1c-0.5-0.1-1.1-0.2-1.6-0.3
		c-0.6-0.1-1.1,0.1-1.5,0.5c-0.4,0.4-0.4,1-0.1,1.4c0.3,0.5,0.7,0.9,1.1,1.1c0.9,0.6,1.8,1.1,2.4,1.6c0.6,0.4,1.1,0.8,1.5,1.3
		C237.1,248,237.2,248.2,237.2,248.2z"/>
	<path id="el006gdw9g5was" class="st16" d="M229.9,236.9c0,0.6-0.1,1.1-0.4,1.7c-0.5,1.3-1.2,2.5-2.1,3.6c-0.9,1-2,1.9-3.2,2.6
		c-0.5,0.3-1,0.5-1.6,0.6C226,243.5,228.6,240.5,229.9,236.9L229.9,236.9z"/>
	<path id="elbbyowrsdc4j" class="st16" d="M233,250.7c-0.5-0.1-1-0.4-1.4-0.7c-0.5-0.3-0.9-0.6-1.4-1c-0.6-0.5-1-1.1-1.2-1.8
		c-0.3-0.7-0.2-1.5,0.2-2.2c0.3-0.5,0.9-0.9,1.5-1c1.1-0.1,1.6,0.5,1.5,0.5c-0.5-0.2-1-0.2-1.4-0.1c-0.5,0.1-0.9,0.4-1.2,0.9
		c-0.3,0.6-0.3,1.2-0.1,1.8c0.2,0.6,0.6,1.2,1.1,1.6c0.4,0.4,0.9,0.8,1.3,1.1C232.6,250.3,233,250.7,233,250.7z"/>
	<path id="el6pgqut6l76m" class="st16" d="M230.4,253.8c0,0.1-0.5-0.2-1.2-0.7c-1-0.5-1.8-1.4-2.2-2.4c-0.2-0.6-0.2-1.3,0-1.9
		c0.2-0.5,0.6-0.9,1.1-1.1c0.3-0.1,0.7-0.1,1,0c0.2,0.1,0.3,0.2,0.3,0.2c-0.4-0.1-0.8,0-1.2,0.1c-0.4,0.2-0.7,0.5-0.8,0.9
		c-0.2,0.5-0.2,1.1,0,1.6c0.4,0.9,1.1,1.7,2,2.3C230.1,253.4,230.4,253.8,230.4,253.8z"/>
	<path id="el4bg53l05o2c" class="st0" d="M198.4,229.5l-1.9-1.3l-6.7-47.2c-0.6-4.1-6.9-15-19.2-19.1l2.5,26.7l10.3,57.1
		c3.3,1.6,6.7,3,10.1,4.1c6.6,2.3,19.7,4.8,19.7,4.8l4.2-19.6L198.4,229.5z"/>
	<path id="eleukh2abbvp" class="st0" d="M116.2,164.9l18.2-7.6l2.2-8.3l22.5,10.6l3.8-6l2.9,6.6l4.9,1.6l11.5,20.2v43.1l2.3,37.2
		l-2.5,5.9l-20.6,3c-2.3,0.3-4.5,0.3-6.8,0l-41.8-6.8l-1.1-12.3l4.3-33.8L116.2,164.9z"/>
	<path id="el7o0kpmct4bo" class="st7" d="M157.6,204.4c-0.4-9.5,1.1-33.6,1.1-33.6l3.1-0.5c4,17.2,6.6,34.7,8,52.3
		c0.9,11.6,0.9,25.1,0.9,25.1l-6.3,13.4l-6.9-13.4C157.5,247.8,158,216,157.6,204.4z"/>
	<polygon id="elu85ehjxqkyf" class="st7" points="157.9,162.7 160.5,161.7 163,165 162.2,171.1 159.1,171.6 156,167.8 	"/>
	<path id="eldeuojqf0xke" class="st0" d="M116.7,164.9c0,0-11.9,3.1-15.3,14.8c-0.9,3-5.4,46.9-6.1,52.6s-2.8,14.1,4.2,19.9
		c4.3,3.6,40.3,7.3,40.3,7.3l7.3-17.4l-28.4-11.1l4.4-37.9L116.7,164.9z"/>
	<path id="elm7v1spsyskq" class="st4" d="M172.7,260.3l-18.9-18.9c-0.4-0.5-0.4-1.2,0-1.6l0,0c0.4-0.5,1.2-0.5,1.7,0c0,0,0,0,0,0
		l18.9,18.9c0.4,0.5,0.4,1.2,0,1.6l0,0C174,260.7,173.3,260.7,172.7,260.3C172.8,260.3,172.8,260.3,172.7,260.3z"/>
	<path id="elstw1q4mz8" class="st15" d="M146.1,242.1c0.1,0.1,8.3,0.4,10.8,0.9s8.5,2.1,10.4,3.4s5.8,6.3,4.8,7
		c-0.8,0.7-2,0.7-2.8,0c-0.5-0.5-5.2-4.1-5.2-4.1s-2.8-0.9-2.9-0.2s7,4.6,5.9,6.3s-4.2,1.3-4.2,1.3s0.9,2.8-0.1,4.1
		c-0.9,1-2.1,1.7-3.4,2.1c0.5,1.3-0.2,2.8-1.5,3.3c-1.7,0.7-4.2-1-4.2-1l-10.9-5.5l-3.1-0.2L146.1,242.1z"/>
	<path id="eljtf170amsqr" class="st4" d="M104.5,254.3h0.2l0.5,0.1l1.9,0.3l7.2,1.2l25.4,4.5l-0.3,0.1c2-5.7,4.1-11.9,6.4-18.5
		l0.1,0.3l-5.3-2.1l-23.4-9.1l-0.2-0.1v-0.2c1.6-10.5,2.9-19.3,3.8-25.6c0.5-3.1,0.9-5.6,1.1-7.3c0.1-0.8,0.2-1.5,0.3-1.9
		c0-0.2,0.1-0.4,0.1-0.5c0-0.1,0-0.1,0.1-0.2c0,0,0,0.1,0,0.2v0.5c-0.1,0.5-0.1,1.1-0.2,1.9c-0.2,1.7-0.6,4.2-1,7.3
		c-0.9,6.3-2.2,15.2-3.6,25.7l-0.2-0.3l23.4,9.1l5.3,2l0.2,0.1l-0.1,0.2l-6.4,18.5l-0.1,0.2h-0.2l-25.4-4.6l-7.2-1.4l-1.9-0.4
		l-0.5-0.1C104.6,254.3,104.5,254.3,104.5,254.3z"/>
	<path id="el1hn39nhwmtdi" class="st4" d="M117.4,231.1c-1.9,0.4-3.7,1.1-5.5,1.9c-1.7,1-3.2,2.2-4.6,3.5
		C109.5,233.1,113.3,231.1,117.4,231.1z"/>
	<path id="elu3zl5qxm74p" class="st4" d="M121.8,183.2c-0.1,0,0-0.9-0.1-2.4c-0.1-1.9-0.5-3.8-1.2-5.7c-0.7-1.8-1.7-3.5-2.9-5
		c-0.9-1.2-1.6-1.8-1.6-1.9c0.7,0.4,1.3,1,1.8,1.6c1.3,1.5,2.4,3.2,3.1,5.1c0.7,1.9,1.1,3.8,1.1,5.8
		C122.1,181.6,122,182.5,121.8,183.2z"/>
	<path id="el7o4j7cc3qfc" class="st4" d="M183,184.8c0.1,0,0.3,15,0.3,33.5s-0.1,33.5-0.3,33.5s-0.3-15-0.3-33.5
		S182.8,184.8,183,184.8z"/>
	<path id="el8s9lvc2v05l" class="st4" d="M165.6,160.3c-0.2,0.5-0.4,0.9-0.6,1.3c-0.5,0.9-1.1,2.1-1.8,3.5l-0.1,0.2l-0.2-0.2
		c-1.2-1.5-2.6-3.3-4.1-5.4l0.4-0.1l-3.4,8.9l-0.1,0.3l-0.3-0.1l-1-0.5c-5.6-2.9-10.6-5.6-14.2-7.6l-4.3-2.4
		c-0.5-0.3-1.1-0.6-1.5-0.9c0.6,0.2,1.1,0.4,1.7,0.7l4.4,2.2c3.7,1.9,8.7,4.5,14.3,7.5l1,0.5l-0.4,0.1c1.3-3.2,2.4-6.2,3.5-8.9
		l0.1-0.4l0.2,0.3l4,5.4h-0.3l2-3.4C165.1,161,165.4,160.6,165.6,160.3z"/>
</g>
</svg>
