<?xml version="1.0" encoding="utf-8"?>
<!-- Generator: Adobe Illustrator 26.1.0, SVG Export Plug-In . SVG Version: 6.00 Build 0)  -->
<svg version="1.1" id="Layer_1" xmlns="http://www.w3.org/2000/svg" xmlns:xlink="http://www.w3.org/1999/xlink" x="0px" y="0px"
	 viewBox="0 0 609.8 443.5" style="enable-background:new 0 0 609.8 443.5;" xml:space="preserve">
<style type="text/css">
	.st0{fill:#91DBA8;}
	.st1{opacity:0.7;fill:#3CBDA1;enable-background:new    ;}
	.st2{opacity:0.5;}
	.st3{opacity:0.4;fill:#3CBDA1;enable-background:new    ;}
	.st4{fill:#263238;stroke:#263238;stroke-width:1.3505;stroke-linecap:round;stroke-linejoin:round;}
	.st5{fill:#3CBDA1;stroke:#263238;stroke-width:1.3505;stroke-linecap:round;stroke-linejoin:round;}
	.st6{fill:#FFFFFF;stroke:#263238;stroke-width:1.3505;stroke-linecap:round;stroke-linejoin:round;}
	.st7{fill:none;stroke:#263238;stroke-width:1.3505;stroke-linecap:round;stroke-linejoin:round;}
	.st8{fill:#FFFFFF;}
	.st9{opacity:0.5;fill:#3CBDA1;enable-background:new    ;}
	.st10{fill:none;stroke:#FFFFFF;stroke-width:0.6752;stroke-linecap:round;stroke-linejoin:round;}
	.st11{fill:#263238;}
	.st12{fill:#3CBDA1;}
	.st13{fill:none;stroke:#263238;stroke-width:0.6752;stroke-linecap:round;stroke-linejoin:round;}
	.st14{fill:#FFFFFF;stroke:#263238;stroke-width:0.6752;stroke-linecap:round;stroke-linejoin:round;}
	.st15{fill:#FFFFFF;stroke:#263238;stroke-width:1.3505;stroke-miterlimit:10;}
	.st16{fill:none;stroke:#FFFFFF;stroke-width:1.0129;stroke-linecap:round;stroke-linejoin:round;}
</style>
<g id="freepik--background-simple--inject-68">
	<path class="st0" d="M475.6,101.1c0,0-30-41-84.1-41.8s-86.9,34.7-123.8,55c-19.3,10.6-43.2,9.9-64.4,16.3
		c-67.7,20.5-82.6,105.3-47.3,148.8c30.6,37.7,77.6,54,145.5,51.6s115.8-1.7,170.5-47.7S511.6,155.4,475.6,101.1z"/>
	<path class="st1" d="M475.6,101.1c0,0-30-41-84.1-41.8s-86.9,34.7-123.8,55c-19.3,10.6-43.2,9.9-64.4,16.3
		c-67.7,20.5-82.6,105.3-47.3,148.8c30.6,37.7,77.6,54,145.5,51.6s115.8-1.7,170.5-47.7S511.6,155.4,475.6,101.1z"/>
</g>
<g id="freepik--Shadow--inject-68" class="st2">
	<path class="st0" d="M551.7,392c0-6.5-57.9-11.7-129.4-11.7c-63.7,0-116.7,4.2-127.4,9.6h-7.3c-122.9,0-222.6,12-222.6,26.8
		s99.7,26.8,222.6,26.8s222.6-12,222.6-26.8c0-5.2-12.3-10-33.5-14.1C521,400.8,551.7,396.7,551.7,392z"/>
	<path class="st3" d="M551.7,392c0-6.5-57.9-11.7-129.4-11.7c-63.7,0-116.7,4.2-127.4,9.6h-7.3c-122.9,0-222.6,12-222.6,26.8
		s99.7,26.8,222.6,26.8s222.6-12,222.6-26.8c0-5.2-12.3-10-33.5-14.1C521,400.8,551.7,396.7,551.7,392z"/>
</g>
<g id="freepik--credit-card--inject-68">
	<path class="st4" d="M353.6,310.4l-200.2-36.6c-6-1.1-9.9-6.8-8.8-12.8l20.9-114c1.1-6,6.8-9.9,12.8-8.8l200.2,36.6
		c6,1.1,9.9,6.8,8.8,12.8l-20.9,114C365.2,307.5,359.5,311.5,353.6,310.4z"/>
	<path class="st5" d="M350.4,169.7c-14.3,7.9-31,14.5-48.5,15.5c-48,3-68.3-18.6-121.7-11.7c-6.9,0.9-13.7,2.3-20.4,4.3l-8.9,48.9
		c14.5-10.9,31.2-18.5,49-22.2c47.1-9.9,66.9,7.6,109.5,1.5c25.3-3.6,47.9-19.8,62-32.4L350.4,169.7z"/>
	<path class="st5" d="M162.2,164.7c1.9-0.5,3.8-1,5.8-1.4c47.1-9.9,66.9,7.6,109.5,1.5c6.5-1,12.8-2.6,18.9-5l-117-21.4
		c-6.6-1.2-13,3.2-14.2,9.8L162.2,164.7z"/>
	<path class="st6" d="M185.5,173.7l15.6,2.9c2.2,0.4,3.7,2.6,3.3,4.8l-2.7,14.8c-0.4,2.2-2.6,3.7-4.8,3.3l-15.6-2.9
		c-2.2-0.4-3.7-2.6-3.3-4.8l2.7-14.8C181.1,174.8,183.2,173.3,185.5,173.7z"/>
	<path class="st6" d="M190.1,182.7l3.4,0.6c1.1,0.2,1.8,1.3,1.6,2.4l-0.6,3.1c-0.2,1.1-1.3,1.8-2.4,1.6l-3.4-0.6
		c-1.1-0.2-1.8-1.3-1.6-2.4l0.6-3.1C188,183.3,189,182.5,190.1,182.7z"/>
	<path class="st7" d="M180.9,175.5l7,1.3c1.3,0.2,2.2,1.5,2,2.9c0,0,0,0,0,0l-0.5,2.9"/>
	<path class="st7" d="M204.7,179.9l-6.9-1.2c-1.4-0.2-2.7,0.6-2.9,2c0,0,0,0,0,0l-0.5,2.9"/>
	<path class="st7" d="M177.6,193.5l7,1.3c1.4,0.2,2.6-0.6,2.9-2l0.5-2.9"/>
	<path class="st7" d="M201.4,197.9l-6.9-1.3c-1.4-0.3-2.2-1.5-2-2.9l0.5-2.9"/>
	<line class="st7" x1="179.2" y1="185" x2="187.4" y2="186.5"/>
	<line class="st7" x1="194.5" y1="187.8" x2="202.7" y2="189.3"/>
	<path class="st8" d="M335.5,295.4c6.1,1.1,12-2.9,13.1-9.1s-2.9-12-9.1-13.1l0,0l-15.1-2.8c-6.1-1.1-12,2.9-13.1,9.1
		s2.9,12,9.1,13.1L335.5,295.4z"/>
</g>
<g id="freepik--Character--inject-68">
	<path class="st6" d="M332.1,159c0,0,40.2-6.6,45.6-6.3c5.3,0.3,50.2,11.8,50.2,11.8c0.7,2.7,1.1,5.5,1,8.2
		c-0.2,4.3-4.9,11.1-4.9,11.1L377.8,163l-42.4,2L332.1,159z"/>
	<path class="st9" d="M409.9,160l12.2,13.5l-7.7-3.1l5.5,5.9l-5.9-2.5l-2.8,2.1l-16.9-11.1l4.3,4.6c0,0-20.6-10.8-21.5-10.8
		s-40.3,5.9-40.3,5.9l3.5,0.3l37.5-1.8l46.2,20.9c0,0,4.7-6.9,4.9-11.1c0.1-2.8-0.2-5.6-1-8.2C428,164.5,419.7,162.4,409.9,160z"/>
	<path class="st6" d="M335.4,165c0,0-10,3.4-11.5,3.3c-1.1-0.1-6.6-0.4-9.4-0.5c-1,0-1.9,0-1.9-1l0,0c0-0.9,0.6-1.7,1.5-1.9l3.6-0.6
		c0,0-12.7-1.8-13.6-3.3s5.1-0.8,6.6-1.1c2.4-0.4,14.4-0.3,14.4-0.3l7-0.7L335.4,165z"/>
	<path class="st6" d="M393.3,130.3l-0.8,14.4l4.6,0.7c0,0,4.2,16.1,5.5,17.1c1.3,1,11.9-4.9,11.9-4.9l6.5,7.8l8.7-6l-4.7-7.3
		c0,0,3-27.3,2-33.3s-4.7-7.7-13-8.2c-5.1-0.3-10.2,0.6-15,2.4c0,0,2.6-5-6.2-4.6s-12.2,10-10.6,14.7S393.3,130.3,393.3,130.3z"/>
	<path class="st9" d="M425,152.1c0,0,3-27.3,2-33.3s-4.7-7.7-13-8.2c-5.1-0.3-10.2,0.6-15,2.4c0.5-1,0.4-2.3-0.3-3.2
		c-2.1,0.4-4.1,0.9-6.1,1.5c-2.9,1-6.3,2.1-9.2,3.1c-1.4,2.4-1.9,5.2-1.5,8l3,4.2c2.6,1.7,5.4,3,8.5,3.8l-0.2,2.8
		c1.7,0.4,3.5,0.6,5.3,0.6c3.1,0,7.7-2.5,7.7-2.5s-2.8,4.3,0.6,6.8c1.9,1.4,4.1,2.3,6.5,2.5c0,0,2.2,7.4,2.2,9.9
		c0,1.9-8.8,9.1-12.7,12.1c1.6,0.8,11.8-4.9,11.8-4.9l6.5,7.8l8.7-6L425,152.1z"/>
	<path class="st4" d="M427,118.8c-1-6.1-4.7-7.7-13-8.2c-5.1-0.3-10.2,0.6-15,2.4c0,0,2.6-5-6.2-4.6s-12.2,10-10.6,14.7
		s11.2,7.2,11.2,7.2s11.6-0.3,17.4-4.1c0,0-4,5.3-3.3,8.6c0.4,1.8,2.1,2.9,3.9,2.6c0,0,0.1,0,0.1,0l1.1,4.7c0,0,2.7,1.5,3.2,0.2
		c0.5-1.4,0.5-7.9,4-5.4s3.8,7.2,1.8,8.5c-1.9,1.3-3.3,0.3-2,3.1s5.4,3.6,5.4,3.6S428,124.8,427,118.8z"/>
	<path class="st10" d="M401,117.3c0,0-4.1-4.1-6.3,1.1s2.2,8.2,12.3,6.7s16.7-4.5,17.8-4.5"/>
	<path class="st10" d="M408,129.2c0,0,7.8,1.5,18.6-1.5"/>
	<path class="st11" d="M400.5,137.6c0.1,0.9-0.1,1.7-0.5,1.8s-0.9-0.6-1-1.5c-0.1-0.9,0.1-1.7,0.5-1.8S400.3,136.7,400.5,137.6z"/>
	<path class="st7" d="M402.3,152.8c0,0,3.8,0,5.3-2.8"/>
	<path class="st7" d="M397.5,131.8c1.2-0.6,2.7-0.4,3.8,0.4"/>
	<path class="st4" d="M446.4,246.7l1.8,5.5c0,0-32,21.4-40.4,29.9s-16.3,16.5-15.5,20.7s10.5,65.1,10.5,65.1l12.2-0.9
		c0,0,0.8-59.2,2.5-60.7s50.1-33.6,50.1-33.6s4.3-0.8,6.3,0.4s13.3,43.6,16.4,45.9s41.6,49.1,41.6,49.1l10.2-2.6c0,0-34-61.4-34-63
		c0.1-0.9-7.3-34-14.8-55.3c-5.6-16-12-21.9-12-21.9L446.4,246.7z"/>
	<path class="st10" d="M479.9,231.5c0,0,6.4,11.4,9.2,15.6s3.2,14.2,3.2,14.2s13.8,39,14.9,45.6s32.8,58.6,32.8,58.6"/>
	<polyline class="st10" points="449.9,264.9 467.6,272.8 455,271.2 	"/>
	<path class="st10" d="M425.6,292.6l-12.8,13.3c0,0-11-0.1-7.6,1.6c2.6,1.4,5,3.1,7.2,4.9v52.7"/>
	<path class="st10" d="M450.3,248.8c0,0,18.7-1.9,31.3-20.3"/>
	<line class="st10" x1="460.2" y1="242.4" x2="462" y2="246.5"/>
	<line class="st10" x1="471.2" y1="235" x2="473.5" y2="238.6"/>
	<path class="st6" d="M419.2,167.4c0,0-1.6,9.4,1.7,25s25.4,54.4,25.4,54.4l3.5-0.7c10-2.1,19-7.2,26-14.6l5.5-5.9
		c0,0-20-37.7-27.7-51.8c-7.7-14.2-20.3-14.9-24-15.1C426.1,158.3,418.8,165.2,419.2,167.4z"/>
	<g class="st2">
		<path class="st12" d="M453.8,173.6c-5.5-10.2-13.5-13.4-19-14.5c2.4,1.2,9.8,5.3,13.2,12.5c4,8.6-1.2,21.5-1.2,21.5s0-0.7-0.1-1.9
			c-2.7,9.9-7.2,24.8-10.5,34.4l4.1-10.4l1.8-6.8l13.6,5.3l-7.1-7.1c0,0,14.8,8.9,18.8,12.6c4,3.7,5.2,8.3,3.1,13.5
			c-1.2,2.4-2.7,4.6-4.4,6.6c3.6-2.3,7-5,9.9-8.1l5.5-5.9C481.5,225.5,461.4,187.8,453.8,173.6z"/>
	</g>
	<path class="st13" d="M443.2,198.8c0,0,8.3-7.9,12.4-11.5"/>
	<path class="st13" d="M456,198c0.8-0.2,1.6-0.4,2.5-0.7"/>
	<path class="st13" d="M440.7,199.1c4,0.2,8.1,0,12.1-0.5"/>
	<polygon class="st6" points="430.6,154.3 414.6,165.5 419,171.1 434,158.7 	"/>
	<path class="st6" d="M449,181.7c-0.6,5.4-14.6,51.8-16.4,53.1S373,251.6,373,251.6l-3.1-4.6l49.6-24.6l10.7-48.3"/>
	<path class="st9" d="M446.7,191.3c-0.1-3.6-0.5-11.3-1.5-9.9c-1.2,1.9-3.7,16.6-7.7,27.4s-11.7,15.4-10.2,15.7s2.8,5.2,2.8,5.2
		l-55.8,21.5c3.1-0.8,11.6-3.1,21.2-5.7l37.1-10.7l3.6-9.2C439.4,216.1,444,201.1,446.7,191.3z"/>
	<path class="st14" d="M373.3,251.9l-3.4-5l-16.6-3.3c-0.6-0.2-1.1,0.2-1.3,0.7s0.2,1.1,0.7,1.3l6.1,2.5l-4.4,3.6
		c-1.2,1-6.7,4.2-7.1,5.5c-0.8,2.4,2.5,0.4,3.3,0.1c1.8-0.6,2.9-1.4,5.9-2.6c0.6,0.8-6.1,4.5-6.9,5.2c-0.3,0.2-0.9,0.6-0.9,1
		c-0.1,1.9,3,0,3.8-0.4c2.1-0.9,4.2-1.9,6.2-2.7c-1.5,1.1-3.9,2.3-5.4,3.4c-0.7,0.4-1.3,0.8-1.9,1.3c-0.8,0.8-0.1,1.6,1,1.3
		c1.2-0.5,2.4-1.1,3.5-1.8c1.7-0.9,2.6-1.7,4.3-2.6c-1.2,1-1.8,1.6-3,2.6c-0.5,0.4-1.5,1-1.8,1.6c-0.8,2,3.7-0.8,4.2-1.1
		c1.7-1.2,3.8-2.3,5.4-3.6c0.2-0.2,2.7-2.6,2.7-2.6L373.3,251.9z"/>
	<line class="st13" x1="418.7" y1="181.2" x2="409.7" y2="168"/>
	<line class="st13" x1="417.8" y1="180.8" x2="407.8" y2="172.4"/>
	<path class="st6" d="M402.9,368l-0.9,1l-6.4,6.8c0,0-14.3,5.2-14.4,7.2s15.3,0.9,20,0.5s10.3-4.8,10.3-4.8s6,1,6.9-3.6
		s-3.2-7.9-3.2-7.9L402.9,368z"/>
	<path class="st6" d="M531.9,368.2c-1.8,3.9-3.4,7.8-4.8,11.8c-1.6,5.2-7.1,6.9-4.6,9.8s8.6,1.2,13.7-5.2s9.8-8.8,10-11.4
		s-4.1-7.5-4.1-7.5L531.9,368.2z"/>
	<path class="st13" d="M522.6,389.8c3.5-0.1,7-1.3,9.8-3.5c4.2-3.5,7.8-10.6,10.3-12.4l2.5-1.8"/>
	<path class="st13" d="M382.7,382.4c0,0,13.8-1.4,19.5-2.1s7.5-4.6,9.2-5s5.7-1.8,5.7-1.8"/>
</g>
<g id="freepik--Device--inject-68">
	<path class="st6" d="M67.1,307.8c0,0-13.6,15.6-11,37.2S81.6,378,81.6,378l28.1-55c0,0-14.2-14-4.2-31.8
		C105.5,291.2,82,294.1,67.1,307.8z"/>
	<path class="st9" d="M67.1,307.8c0,0-13.6,15.6-11,37.2S81.6,378,81.6,378l28.1-55c0,0-14.2-14-4.2-31.8
		C105.5,291.2,82,294.1,67.1,307.8z"/>
	<path class="st6" d="M188.3,267.2c0,0-17.7,0.5-23.6,3.4s-44.3,30.2-66.2,62c-7.4,10.8-10.2,16.8-11.1,19.7
		c-0.7,1.9-1.4,3.8-2.2,5.6c-2.4,5.3-6.5,16.2-5,27.5c2.1,15.9,11.4,31.4,47,37.9s49.2-20,50.1-31.3c0,0,86.6,6.2,140.4,12.3
		s71.7,2.7,89.7,9.8s22.4,11.7,30,11.9c7.6,0.1,29.5-24.4,30.1-31.5s-6.8-17.2-9.1-17.9s-30.5-42.4-30.5-42.4s-1.3-8.2-13.6-14.9
		s-73.7-25.2-107.3-34.5S205.5,267.1,188.3,267.2z"/>
	<path class="st9" d="M464,383.2c-7.5-3.8-15.4-6.8-23.6-8.9l-101.6-27.8L205,323.2c0,0-55.6-9-80.5,3c-17.7,8.6-35.7,36.5-44.6,52
		c-0.1,2.4,0,4.8,0.3,7.2c2.1,15.9,11.4,31.4,47,37.9s49.2-20,50-31.3c0,0,86.6,6.2,140.4,12.3s71.7,2.7,89.7,9.8s22.4,11.7,30,11.9
		s29.5-24.4,30.1-31.5C467.7,391,466,386.7,464,383.2z"/>
	<path class="st7" d="M88,363.6c0,0,25.5-40.9,51-43.6s106.4,9.2,106.4,9.2"/>
	<path class="st7" d="M253.8,330.8c0,0,49.9,7.2,115.3,23.7s91.8,25.7,95.4,28.8"/>
	<path class="st6" d="M302.5,295.4c0,0,106.8,27.7,113.6,30.5c4,1.6,7.4,4.2,10.1,7.5"/>
	<path class="st4" d="M168.9,272.8l-27.4,39.8c0,0,38.6-0.8,140.7,15.7l2.4-36.5c0,0-49.3-15.2-69.6-16.8S168.9,272.8,168.9,272.8z"
		/>
	<path class="st6" d="M141.9,312.6c2.1,0,11.2,0,29.2,1.5l-19-17l-1.2,1.8L141.9,312.6z"/>
	<path class="st6" d="M168.9,272.8l-5.2,7.6l45.3,37.5c11.5,1.4,24.7,3.1,39.7,5.3c5.3,0.6,10.8,1.2,16.5,1.9l-62.5-50.9
		C185.5,273.2,168.9,272.8,168.9,272.8z"/>
	<path class="st15" d="M286.3,299.4L286,321c5.3-0.3,13.6-0.1,19.6,3c0.6-7.4-0.6-14.8-3.3-21.6L286.3,299.4z"/>
	<path class="st15" d="M301.3,300c-1.1-2.4-2.5-4.7-4.1-6.8l-10.8-2.3l-0.1,6.8L301.3,300z"/>
	<path class="st15" d="M285.9,324l-0.1,6l18.4,2.8c0.6-2.2,1-4.4,1.2-6.6C302,324.8,295.8,323.1,285.9,324z"/>
	<path class="st6" d="M327.7,301.3c0,0-10.2-2.5-12-2.4s-2.2,3.1-2.2,3.1l3.7,7.2c0,0-0.6,1.2,4.8,2.9s10,2,10.6,1.3
		s0.5-2.7,0.8-4.4S330.2,301.5,327.7,301.3z"/>
	<path class="st6" d="M334.4,314c0,0-10.2-3.3-12-3.2s-3.5,3.7-3.5,3.7s1.3,9,2.5,10.1s12.4,3.7,14.1,3.8s2.4-2,2.6-4.3
		S336.4,314.6,334.4,314z"/>
	<path class="st6" d="M338.3,328.2c0,0-12.9-3.5-14.1-3.6s-3,3.2-2.8,4s-0.1,7.5-0.1,7.5l20.1,4l-1.5-9.3
		C339.8,330.8,339.9,330.3,338.3,328.2z"/>
	<path class="st6" d="M337.4,304l-1.4,2.6l4.4,8c0,0,0.1,1.5,4.3,2.6s11.7,2.7,11.7,2.7s2.2-2.3,1.8-3.4s-5-8.6-7-9.7
		S338,302.8,337.4,304z"/>
	<path class="st6" d="M344.6,317.3c-0.7,1-1.2,2.2-1.5,3.4c-0.1,1,1.3,9.1,3.4,11s14.2,3.3,15.9,3.5s2.2-2.6,2.3-4.5
		s-2.5-8.9-4.4-10s-12.9-3.7-12.9-3.7S345.5,315.9,344.6,317.3z"/>
	<path class="st6" d="M365.7,335.2c-0.4-0.3-0.8-0.5-1.2-0.7c-2.8-1-13.1-4.4-14.9-3.5c-2.1,1.1-2.8,3.8-2.7,6
		c0.1,1.6,0.3,3.2,0.6,4.8l21.4,5.9l-1.9-10.2C366.9,336.7,366.4,335.8,365.7,335.2L365.7,335.2z"/>
	<path class="st6" d="M359.6,309.7l-0.6,4.2c0,0,2.3,6.1,4.7,7.1s13.7,3.5,14.4,3.6s2.4-2.5,2.3-4s-4.4-8-6.8-9s-12.2-2.7-12.2-2.7
		S359.2,308.5,359.6,309.7z"/>
	<path class="st6" d="M368.9,321.6l-2.1,5.3c0,0,2.8,8.7,3.2,10s16.1,4.5,16.9,4s2.6-1,2.3-4.5s-5-11.8-7-12.2s-10.2-2.5-11-2.6
		S369.2,320.7,368.9,321.6z"/>
	<path class="st6" d="M374.9,338c0,0-2.6,5.3-2.1,7.8c0.4,1.7,0.9,3.3,1.6,4.9l21.2,5.4c0,0-2.5-9.1-3-12.2s-5.9-4.4-10.2-5.8
		S374.5,336.5,374.9,338z"/>
	<path class="st6" d="M381.9,314.5l-0.3,4.2c0,0,5.2,7.1,6.6,8.5s12.7,3.5,13.7,3.3s1.5-2.6,1.1-4.1s-5.9-7.9-8-8.8
		s-11.2-3.6-11.2-3.6S381.3,312.9,381.9,314.5z"/>
	<path class="st6" d="M391.6,327.6c0,0-1.4,5.6-0.7,6.2s3.8,8.8,5.5,9.6s13.9,3.6,15.4,3.2s1.8-3.4,1-5.9s-5.8-9.1-8.6-10.4
		c-2.1-0.9-10.2-2.8-10.2-2.8S392.2,326.4,391.6,327.6z"/>
	<path class="st6" d="M410.1,345.8c0,0-7.5-2.8-8.8-2.4s-2.8,4.5-2.9,5.2s2.7,9.7,2.7,9.7l19.9,5.8c0,0,0-0.5,0-3.7
		s-4.8-11.8-5.7-12.6S410.1,345.8,410.1,345.8z"/>
	<path class="st5" d="M405,321.2c-0.4,1.3-0.6,2.6-0.8,3.9c-0.1,1.5,4.2,6.3,6.4,7.7s12.6,4.2,13.4,4.3s2.7-2.3,1.4-4.6
		c-2.1-3.1-4.8-5.7-7.9-7.8C415,323.2,407.5,321.2,405,321.2z"/>
	<path class="st5" d="M415.7,334.5c-0.4,1-0.8,2.1-1,3.2c-0.1,1,4.8,8.8,5.9,10.2s11.9,3.7,13.1,3.8s4-0.2,3-3.7s-4-9.3-6.9-10.2
		s-8.2-2.6-10.7-3.3S415.7,334.5,415.7,334.5z"/>
	<path class="st5" d="M426.2,349.5c-1.1,1.8-1.9,3.7-2.2,5.8c-0.2,2.7,2,9.4,4.1,11s16.5,5.5,16.5,5.5s1.3-4.4,1.8-7.1
		s-6.8-11.2-7.5-12.3S427.9,349.4,426.2,349.5z"/>
	<path class="st4" d="M453.6,406.8c-5.1-1.4-13.1-2.5-16.1-7s-6.3-10.5-36.6-12.8s-234.7-31.1-255.5-32.2s-37.1,23.8-37.1,23.8
		s-12.7-1.5-20.6-4c-2.5-0.8-4.8-2.1-6.8-3.9c-1.1,4.8-1.3,9.8-0.7,14.7c2.1,15.9,11.4,31.4,47,37.9s49.2-20,50.1-31.3
		c0,0,86.6,6.2,140.4,12.3s71.7,2.7,89.7,9.8s22.4,11.7,30,11.9c4.6,0.1,14.4-8.9,21.6-17.5C456.9,407.8,455,407.2,453.6,406.8z"/>
	<path class="st16" d="M104.9,384.5c0,0-6.3,13.8-8.8,21.2"/>
	<path class="st16" d="M113.4,379.9c0,0,36.5,8.5,59.1,11.3"/>
	<path class="st6" d="M141.5,312.6c0,0-22.6-15.1-41.1-16.5s-33.3,11.8-33.3,11.8s45.5-39.8,57.9-41.2s28.8-3,43.8,6.3L141.5,312.6z
		"/>
</g>
</svg>
