<?xml version="1.0" encoding="utf-8"?>
<!-- Generator: Adobe Illustrator 26.1.0, SVG Export Plug-In . SVG Version: 6.00 Build 0)  -->
<svg version="1.1" id="Layer_1" xmlns="http://www.w3.org/2000/svg" xmlns:xlink="http://www.w3.org/1999/xlink" x="0px" y="0px"
	 viewBox="0 0 513 170" style="enable-background:new 0 0 513 170;" xml:space="preserve">
<path d="M58.1,77.6l0.1,51.2H45.8l-0.2-83.4l50.1,54.7L95.6,49h12.6l0.2,83.3L58.1,77.6z"/>
<path d="M181.6,128.5h-12.5L169,94.2l-31.8,0.1l0.1,34.3h-12.5L124.7,49h12.4l0.1,34l31.8-0.1l-0.1-34h12.5L181.6,128.5z"/>
<path d="M322,104.6c0.3,7.4-3.5,14.5-9.8,18.4c-5.5,3.5-12.9,5.3-21.9,5.3h-7.1h-10.5l-0.2-79.6H285h5.1c8.8,0,15.2,1.6,19.8,4.9
	c2.4,1.8,4.3,4.1,5.5,6.9c1.1,2.6,1.7,5.5,1.6,8.4c0,4.3-1.4,9.5-6.2,14.6c1.3,0.9,2.5,1.8,3.6,2.9C319.4,91,322.2,97.7,322,104.6z
	 M285,59.8l0.1,24.1c2.8-0.6,5.5-1.5,8.1-2.6c3.4-1.2,6.5-3.1,9.2-5.6c2.1-1.7,3.3-4.3,3.3-7c0-3.9-1.4-5.4-2.6-6.2
	c-3-2.2-8.8-2.8-13-2.8L285,59.8z M310.9,104.6c0.1-3.8-1.4-7.5-4.2-10.2c-1.8-1.7-3.9-3.1-6.1-4c-1.1,0.4-2.1,1-3.3,1.4
	c-3.9,1.6-8,2.8-12.1,3.7l0,21.5h5.1c6.8,0,12.2-1.2,15.8-3.5C309.2,111.6,311,108.2,310.9,104.6z"/>
<path d="M348.1,80.9l29.1-0.1v11.3l-29.1,0.1l0.1,24.7l35.3-0.1V128l-35.4,0.1h-12.3l-0.2-79.6h12.3l35.4-0.1v11.2L348,59.7
	L348.1,80.9z"/>
<path d="M450.7,127.9l-21.3-31.1L408.3,128h-15.7l28.9-42.7l-25.3-37h15.7l17.4,25.5l17.4-25.6h15.7l-25.2,37.1l29.2,42.5
	L450.7,127.9z"/>
<g id="_Group_">
	<path id="_Path_" d="M201.6,79.4c3.3-0.8,4.7-2.8,5.7-5.3c3-7.1,6.2-14.1,9.4-21.1c1.5-3.5,4.9-5.8,8.8-5.7h0.3
		c3.8-0.1,7.3,2.1,8.8,5.7c3.2,7,6.4,14.1,9.4,21.1c1,2.5,2.5,4.5,5.7,5.3c3,0.8,3.6,2.4,3.5,4.8c-0.6,11.1-1,22.3-1.5,33.4
		c-0.1,2.4-0.3,4.8-0.4,7.2c0,1-0.3,1.4-1.7,1.4c-5.2,0.2-5.2,0.3-7-3.7c-3.1-6.9-6.2-13.8-9.4-20.7c-1.9-4.1-6.8-5.9-11-4
		c-1.8,0.8-3.2,2.2-4,4c-3.2,6.9-6.3,13.8-9.4,20.7c-1.8,4-1.8,4-7,3.7c-1.4-0.1-1.7-0.5-1.7-1.4c-0.1-2.4-0.3-4.8-0.4-7.2
		c-0.5-11.1-0.8-22.3-1.5-33.4C197.9,81.8,198.5,80.1,201.6,79.4z"/>
</g>
</svg>