<?xml version="1.0" encoding="utf-8"?>
<!-- Generator: Adobe Illustrator 26.1.0, SVG Export Plug-In . SVG Version: 6.00 Build 0)  -->
<svg version="1.1" id="Layer_1" xmlns="http://www.w3.org/2000/svg" xmlns:xlink="http://www.w3.org/1999/xlink" x="0px" y="0px"
	 viewBox="0 0 500 500" style="enable-background:new 0 0 500 500;" xml:space="preserve">
<style type="text/css">
	.st0{fill:#00DEBE;}
	.st1{opacity:0.7;fill:#00DEBE;enable-background:new    ;}
	.st2{fill:#EBEBEB;}
	.st3{opacity:0.5;fill:#EBEBEB;enable-background:new    ;}
	.st4{fill:#C66668;}
	.st5{fill:#FFFFFF;stroke:#263238;stroke-linecap:round;stroke-linejoin:round;stroke-miterlimit:10;}
	.st6{fill:#263238;stroke:#263238;stroke-linecap:round;stroke-linejoin:round;stroke-miterlimit:10;}
	.st7{fill:#02A485;}
	.st8{fill:none;stroke:#FFFFFF;stroke-width:0.75;stroke-linecap:round;stroke-linejoin:round;stroke-miterlimit:10;}
	.st9{fill:none;stroke:#263238;stroke-linecap:round;stroke-linejoin:round;stroke-miterlimit:10;}
	.st10{fill:#2B454E;}
	.st11{fill:#FEA9A7;}
	.st12{fill:none;}
	.st13{fill:#564A4B;stroke:#263238;stroke-linecap:round;stroke-linejoin:round;stroke-miterlimit:10;}
	.st14{fill:#FFFFFF;}
	.st15{fill:#263238;stroke:#263238;stroke-miterlimit:10;}
	.st16{fill:none;stroke:#FFFFFF;stroke-linecap:round;stroke-linejoin:round;stroke-miterlimit:10;}
	.st17{opacity:0.15;clip-path:url(#SVGID_00000111187262757926793030000016268351996595318715_);enable-background:new    ;}
	.st18{fill:#703D3F;}
	.st19{fill:#273B8B;}
</style>
<g id="Background_Simple">
	<g>
		<g>
			<path class="st0" d="M408.9,335.4c0,0,44.3-27.3,45.1-98.3s-26.6-120.5-80.6-145.6s-121.2,31.8-167.8,29.6
				c-46.6-2.2-58.4-37-119,10.3S26.1,259.3,43.8,287.4s64.3,12.6,82.8,37c18.5,24.4,40.6,46.6,96.1,42.1
				c55.4-4.4,59.9-31.3,82.4-32.3C327.6,333.2,356.4,367.2,408.9,335.4z"/>
			<path class="st1" d="M408.9,335.4c0,0,44.3-27.3,45.1-98.3s-26.6-120.5-80.6-145.6s-121.2,31.8-167.8,29.6
				c-46.6-2.2-58.4-37-119,10.3S26.1,259.3,43.8,287.4s64.3,12.6,82.8,37c18.5,24.4,40.6,46.6,96.1,42.1
				c55.4-4.4,59.9-31.3,82.4-32.3C327.6,333.2,356.4,367.2,408.9,335.4z"/>
		</g>
	</g>
</g>
<g id="Floor">
	<g>
		<g>
			<ellipse class="st2" cx="247.5" cy="393.7" rx="210.6" ry="17.6"/>
			<ellipse class="st3" cx="247.5" cy="393.7" rx="210.6" ry="17.6"/>
		</g>
	</g>
</g>
<g id="Character_4">
	<g>
		<path class="st4" d="M366.6,370.7c0,0-4.4,3.5-9.6,5c-5.2,1.5-9.4,2-8.7,3.7s3.9,2.2,7.4,2.2c3.5,0,12,1.1,13.8,0
			c1.7-1.1,1.3-7.4,1.1-9C370.3,371.2,366.6,370.7,366.6,370.7z"/>
		<path class="st5" d="M360.9,377.7c-0.9-0.3-2.3-1.3-3.3-2.2c-0.2,0.1-0.4,0.1-0.6,0.2c-5.2,1.5-9.4,2-8.7,3.7s3.9,2.2,7.4,2.2
			s12,1.1,13.8,0c0.8-0.5,1.1-1.9,1.2-3.5C366.5,378.1,361.7,378,360.9,377.7z"/>
		<path class="st6" d="M352.1,276.4c0,0-5.5,35-5.5,41.7s3.3,12.7,6.1,17c2.8,4.4,10.3,26.4,11.1,29.9c0.9,3.5-0.4,7.6,1.1,9.2
			c1.5,1.5,3.5,1.7,3.5,1.7s1.7-1.3,1.7-4.8s-2.8-27.3-3.1-35.6s-3.9-31.5-3.1-38.2c0.9-6.8,3.3-17.9,2-21.4
			c-1.3-3.5-6.1-5.2-9.2-5.2C353.9,270.7,352.1,276.4,352.1,276.4z"/>
		<path class="st4" d="M368.5,376c0,0-7.9,5.2-10.7,6.3c-2.8,1.1-7.4,3.1-7.4,5s14.2,1.5,17.7,1.5c3.5,0,7,0,7.4-1.1
			s-1.3-10.3-1.3-10.3L368.5,376z"/>
		<path class="st5" d="M368.1,388.9c3.5,0,7,0,7.4-1.1c0.2-0.5,0-2.6-0.4-4.8c-3.7,0.3-9.9,0.6-11.9,0c-1.5-0.5-2.5-1.2-3-1.9
			c-1,0.5-1.8,1-2.4,1.2c-2.8,1.1-7.4,3.1-7.4,5C350.4,389.3,364.6,388.9,368.1,388.9z"/>
		<path class="st6" d="M348.9,269.4c0,0,2.8,17.7,2.8,25.1c0,7.4,3.1,27.1,5.2,35.4c2.2,8.3,2.6,11.8,4.6,16.2s4.4,19,4.8,22.9
			c0.4,3.9-0.4,7,1.1,8.1c1.5,1.1,6.8,0.4,6.8,0.4l0.9-4.2c0,0,0.4-19.4,1.3-26.9s-3.5-17-3.5-21.6s2.6-19,2.6-25.8s0-11.8,0-11.8
			s3.5-3.3,3.7-8.5c0.2-5.2-0.4-9-1.5-11.4c-1.1-2.4-29.1,0.2-29.1,0.2L348.9,269.4z"/>
		<path class="st7" d="M358.5,204.3c0,0-12.9,14.6-14.9,18.8c-2,4.2,3.9,10,4.6,12.7c0.7,2.6,1.1,15.9-0.2,22.1
			c-1.3,6.1,0,12.7,2,13.1s24.7,1.5,27.1,0.9c2.4-0.7,0.9-8.7,0.9-10.9c0-2.2,0.9-15.9,0.9-30.1s-2.8-24.2-4.2-27.1
			c-1.3-2.8-3.7-4.8-5.2-4.8C367.9,198.8,360.2,200.1,358.5,204.3z"/>
		<path class="st5" d="M377.5,177.8c0,0,3.3-3.9,3.5-1.3c0.2,2.6-2.4,4.6-3.7,4.6C375.9,181.1,375.7,179.1,377.5,177.8z"/>
		<g>
			<path class="st6" d="M379.2,180.2c0,0,3.1,3.5,2.6,8.5c-0.4,5-5.2,6.6-5.5,12.2s-0.2,7.9,5.2,11.6c5.5,3.7,7,8.1,10,14.2
				c3.1,6.1,8.7,3.5,14.6-1.1c5.9-4.6,2.2-15.7-5.5-21.8c-7.6-6.1-2.2-10.9-2.2-16.2s-8.3-8.1-12.7-8.5c-4.4-0.4-5.2-0.7-5.2-0.7
				L379.2,180.2z"/>
			<path class="st8" d="M381.4,180.9c0,0,13.2,5.6,14.1,11.5c0.9,5.9-7.1,10.6-2.9,15.9s16.8,7.9,12.9,14.4"/>
			<path class="st8" d="M383.1,184.4c0,0,3.5,4.4,3.2,9.1c-0.3,4.7-7.1,7.9-5.9,12.4c1.2,4.4,6.2,8.5,6.2,8.5"/>
		</g>
		<g>
			<path class="st4" d="M356.3,157.3c0,0-5.7,4.2-7,7.9s-1.1,8.1-1.1,9.2c0,1.1-2.8,1.7-2.8,3.1s2.2,3.3,2.2,3.3s-0.4,5.9,0.4,8.7
				c0.9,2.8,3.9,2.4,5.9,2.2c2-0.2,5.5-1.5,5.5-1.5s0.9,7.2,0,10.7c-0.9,3.5-4.2,6.6-3.1,8.5c1.1,2,9.2-6.6,12-7.6
				c2.8-1.1,1.7-2.2,1.1-5.2s-1.7-7.9,0-9.6s8.3-6.3,9.8-13.1c1.5-6.8-0.9-14.4-8.3-17C363.5,154,356.3,157.3,356.3,157.3z"/>
			<path d="M351.7,175.3c0,0.9-0.3,1.6-0.7,1.6s-0.7-0.7-0.7-1.6c0-0.9,0.3-1.6,0.7-1.6S351.7,174.4,351.7,175.3z"/>
			<path class="st9" d="M350,171.9c0,0,0.4-2.2,2.8,0"/>
		</g>
		<g>
			<path class="st6" d="M370.9,156.6c-7.4-2.6-14.6,0.7-14.6,0.7s-3,2.2-5.1,4.8c1.3-0.6,3.1-1.2,4.7-0.2c2.6,1.7-2.2,3.9-0.9,6.1
				s5.2,3.9,5.5,5.2c0.2,1.3-0.9,2.4,0.7,3.1c1.5,0.7,3.7-2,3.7-2s4.4-1.1,2.8,3.7s-5.5,4.8-5.5,4.8s1.1,3.9,4.6,5.2
				c0.5,0.2,1.1,0.4,1.8,0.6c0.1-0.8,0.4-1.4,0.8-1.9c1.7-1.7,8.3-6.3,9.8-13.1S378.4,159.3,370.9,156.6z"/>
			<path class="st8" d="M357.8,164.1c0,0,17.3-5.3,20,11.2"/>
			<path class="st8" d="M360.6,170.6c0,0,9.8,2.4,15.6,7.2"/>
			<path class="st8" d="M365.5,184.1c0,0,6.3-0.6,11.2-5"/>
		</g>
		<path class="st4" d="M365.2,242.1c0,0-3.7,7.2-6.3,14.4c-2.6,7.2-5,22.1-5.5,24.9c-1.1,6.8-0.9,12.5-0.9,14.2c0,1.7,1.1,4.4,1.5,5
			c0.4,0.7,1.5,0.2,1.7-0.4c0.2-0.7-0.4-2.2-0.4-2.2s1.5,2.4,2.2,1.3c0.7-1.1-0.2-2.8-0.2-2.8s2.2,2.6,1.7,0.4s-2-4.4-2-4.4
			s2.2-2,2.2-4.8s-2-5.7-2-5.7s14-25.1,15.9-28.4c2-3.3,2.2-8.3,2.2-10.9S365.2,242.1,365.2,242.1z"/>
		<path class="st6" d="M362.8,233.5c0,0-4.8-9.8-5.7-17s3.5-14.4,10.3-15.7c6.8-1.3,12.9,3.5,15.1,5.9s18.1,28.9,18.1,28.9l-3.9-1.5
			c0,0-14.1-20.6-18.2-23.8c-4.2-3.3-9.1-7.2-15-3.5s-2.6,7-2.4,12.3C361.3,224.1,362.8,233.5,362.8,233.5z"/>
		<path class="st10" d="M368.2,204.9c-3.9,0.7-7.1,2.9-7.5,9.2c-0.4,7.2,1.5,31.5,1.5,31.5s8.5-0.7,10.3-0.9
			c1.7-0.2,3.7-0.4,3.7-0.4s0-15.7,0-23.8c0-3.3,0.2-6.8-0.6-10.1C374.7,206.4,371.1,204.4,368.2,204.9z"/>
		<g>
			<path class="st5" d="M385.8,216.3c0,0-1.1-3.7-4.8-1.1c-3.7,2.6-2.6,29.9-4.6,36.9s-2.2,18.8,0.7,21.8c2.8,3.1,18.8,1.7,20.5,0.4
				c1.7-1.3,5-22.7,5-29.3s-4.2-12.5-6.3-15.9C394.1,225.7,385.8,216.3,385.8,216.3z"/>
			<path class="st6" d="M398.2,234.2c0,0-12.2-2.4-15.3-2.4s-3.3,0.4-3.3,3.3s-0.2,4.8-0.2,4.8l20.3,2.2c0,0,0.7-0.7,1.1-2.8
				S399.8,234.4,398.2,234.2z"/>
			<path class="st6" d="M377.9,251.9c0,0,15.3,1.5,17.9,1.7c2.6,0.2,3.5-0.7,3.5,0.7c0,1.3-0.2,6.6-1.3,6.6s-14.4-1.3-17.7-2.2
				s-4.2-0.4-3.7-1.7C377,255.6,377.9,251.9,377.9,251.9z"/>
		</g>
	</g>
</g>
<g id="Character_3">
	<g>
		<g>
			<g>
				<g>
					<g>
						<path id="XMLID_00000051342329515914284960000015452652765467107002_" class="st11" d="M281.3,142.7c0,0-7.1,9.1-7.6,12.6
							s1.5,6.5,1.3,7.6s-4.5,5-4.3,7.3c0.3,2.3,4.8,2,4.8,2s-0.8,6.5-0.3,7.8s2,4.3,5.3,4.3s5,0,5,0l5.3,6.8l16.4-13.6l-2.5-8.8
							c0,0,6.8-12.1,4.3-18.6c-2.5-6.5-9.3-10.3-16.4-11.1C285.5,138.1,281.3,142.7,281.3,142.7z"/>
					</g>
				</g>
				<g>
					<defs>
						<path id="SVGID_1_" d="M281.3,142.7c0,0-7.1,9.1-7.6,12.6s1.5,6.5,1.3,7.6s-4.5,5-4.3,7.3c0.3,2.3,4.8,2,4.8,2
							s-0.8,6.5-0.3,7.8s2,4.3,5.3,4.3s5,0,5,0l5.3,6.8l16.4-13.6l-2.5-8.8c0,0,6.8-12.1,4.3-18.6c-2.5-6.5-9.3-10.3-16.4-11.1
							C285.5,138.1,281.3,142.7,281.3,142.7z"/>
					</defs>
					<clipPath id="SVGID_00000145021817964837425040000000316399197976366728_">
						<use xlink:href="#SVGID_1_"  style="overflow:visible;"/>
					</clipPath>
				</g>
				<g>
					<defs>
						<path id="SVGID_00000073712280059113999680000004675095985066580119_" d="M281.3,142.7c0,0-7.1,9.1-7.6,12.6s1.5,6.5,1.3,7.6
							s-4.5,5-4.3,7.3c0.3,2.3,4.8,2,4.8,2s-0.8,6.5-0.3,7.8s2,4.3,5.3,4.3s5,0,5,0l5.3,6.8l16.4-13.6l-2.5-8.8
							c0,0,6.8-12.1,4.3-18.6c-2.5-6.5-9.3-10.3-16.4-11.1C285.5,138.1,281.3,142.7,281.3,142.7z"/>
					</defs>
					<clipPath id="SVGID_00000175291910987123073370000008077229167741049479_">
						<use xlink:href="#SVGID_00000073712280059113999680000004675095985066580119_"  style="overflow:visible;"/>
					</clipPath>
				</g>
				<g>
					<path id="XMLID_00000145741867982650027000000004384821700416598715_" class="st12" d="M281.3,142.7c0,0-7.1,9.1-7.6,12.6
						s1.5,6.5,1.3,7.6s-4.5,5-4.3,7.3c0.3,2.3,4.8,2,4.8,2s-0.8,6.5-0.3,7.8s2,4.3,5.3,4.3s5,0,5,0l5.3,6.8l16.4-13.6l-2.5-8.8
						c0,0,6.8-12.1,4.3-18.6c-2.5-6.5-9.3-10.3-16.4-11.1C285.5,138.1,281.3,142.7,281.3,142.7z"/>
				</g>
			</g>
			<path class="st9" d="M294.6,162.8c0,0,1.3-4,4-3.5c2.8,0.5,1.5,6.8-0.8,9.6s-6,4-6,1.5"/>
			<path class="st9" d="M276.2,159.3c0,0,2.3-1,5.3,0.3"/>
			<polyline class="st9" points="278.2,160.8 278.8,162.6 281.8,163.1 			"/>
			<line class="st9" x1="279.8" y1="163.3" x2="280.5" y2="165.3"/>
			<path class="st9" d="M293.4,171.9c0,0,1.5,3.8-0.5,5.5c-2,1.8-5.3,3.8-6,4"/>
		</g>
		<path class="st13" d="M284.3,371.6L284.3,371.6c0,0-7.1,2.3-9.8,3.8c-2.8,1.5-4.3,2.8-2,4.5c2.3,1.8,9.6,1,13.9,1
			c4.3,0,9.8,1.5,11.8,0s3-2.8,0.5-4.8C296.1,374.1,284.3,371.6,284.3,371.6z"/>
		<path class="st13" d="M300.9,377.7c0,0-1.5,1.8-7.1,3.5c-5.5,1.8-11.1,3.8-9.1,6.5s14.9,2.3,20.7,2c5.8-0.3,10.6-2,11.6-6.8
			C318,378.2,300.9,377.7,300.9,377.7z"/>
		<path class="st6" d="M281.3,282.5c0,0-1.8,19.6-1.8,31.2s5,20.7,7.6,25.4s2,23.7,0.8,27.5s-4.5,2.8-3.5,5s2.5,2.3,5.8,4
			s7.8,3.3,9.6,2.5c1.8-0.8,3.3-12.6,3.5-15.1s2.5-26.2-1.3-39c-3.8-12.8-8.1-21.7-10.6-34.5C288.8,276.7,284.3,277.2,281.3,282.5z"
			/>
		<g>
			<g>
				<g>
					<g>
						<defs>
							<path id="SVGID_00000120557914575891030550000015296762369489078974_" d="M279,265.6c0,0,1.3,4.8,0,8.8s2.5,12.8,2.5,12.8
								s3.5,9.3,4.8,16.1s-1.3,7.8,1.8,18.6s5.3,14.9,6.8,18.1c1.5,3.3,3.5,11.8,3.8,20.9s-1,11.3-1,13.9c0,2.5,2.5,4.5,2.5,4.5
								s4.8,2.3,9.6,4s7.6,1.5,9.1,0.3s1.8-3.5,1.8-3.5s2-2,2.3-5c0.3-3-0.3-11.6-0.8-24.2c-0.5-12.6-3.8-20.7-3.8-32.7
								s5.3-34.3,5.3-42.3c0-8.1,0.5-9.8,0.5-9.8s-14.6,2.8-24.9,1.3C288.8,265.8,279,265.6,279,265.6z"/>
						</defs>
						<clipPath id="SVGID_00000066493028686428631910000013132621320198319504_">
							<use xlink:href="#SVGID_00000120557914575891030550000015296762369489078974_"  style="overflow:visible;"/>
						</clipPath>
					</g>
					<g>
						<defs>
							<path id="SVGID_00000046312856661982050240000007303823495093370775_" d="M279,265.6c0,0,1.3,4.8,0,8.8s2.5,12.8,2.5,12.8
								s3.5,9.3,4.8,16.1s-1.3,7.8,1.8,18.6s5.3,14.9,6.8,18.1c1.5,3.3,3.5,11.8,3.8,20.9s-1,11.3-1,13.9c0,2.5,2.5,4.5,2.5,4.5
								s4.8,2.3,9.6,4s7.6,1.5,9.1,0.3s1.8-3.5,1.8-3.5s2-2,2.3-5c0.3-3-0.3-11.6-0.8-24.2c-0.5-12.6-3.8-20.7-3.8-32.7
								s5.3-34.3,5.3-42.3c0-8.1,0.5-9.8,0.5-9.8s-14.6,2.8-24.9,1.3C288.8,265.8,279,265.6,279,265.6z"/>
						</defs>
						<clipPath id="SVGID_00000059291508890119267170000001897039983187700908_">
							<use xlink:href="#SVGID_00000046312856661982050240000007303823495093370775_"  style="overflow:visible;"/>
						</clipPath>
					</g>
				</g>
				<g>
					<g>
						<path id="XMLID_00000149368391173455834910000014260607544155035806_" class="st10" d="M279,265.6c0,0,1.3,4.8,0,8.8
							s2.5,12.8,2.5,12.8s3.5,9.3,4.8,16.1s-1.3,7.8,1.8,18.6s5.3,14.9,6.8,18.1c1.5,3.3,3.5,11.8,3.8,20.9s-1,11.3-1,13.9
							c0,2.5,2.5,4.5,2.5,4.5s4.8,2.3,9.6,4s7.6,1.5,9.1,0.3s1.8-3.5,1.8-3.5s2-2,2.3-5c0.3-3-0.3-11.6-0.8-24.2
							c-0.5-12.6-3.8-20.7-3.8-32.7s5.3-34.3,5.3-42.3c0-8.1,0.5-9.8,0.5-9.8s-14.6,2.8-24.9,1.3C288.8,265.8,279,265.6,279,265.6z"
							/>
					</g>
					<g>
						<defs>
							<path id="SVGID_00000049910356286266671220000008835087077335670956_" d="M279,265.6c0,0,1.3,4.8,0,8.8s2.5,12.8,2.5,12.8
								s3.5,9.3,4.8,16.1s-1.3,7.8,1.8,18.6s5.3,14.9,6.8,18.1c1.5,3.3,3.5,11.8,3.8,20.9s-1,11.3-1,13.9c0,2.5,2.5,4.5,2.5,4.5
								s4.8,2.3,9.6,4s7.6,1.5,9.1,0.3s1.8-3.5,1.8-3.5s2-2,2.3-5c0.3-3-0.3-11.6-0.8-24.2c-0.5-12.6-3.8-20.7-3.8-32.7
								s5.3-34.3,5.3-42.3c0-8.1,0.5-9.8,0.5-9.8s-14.6,2.8-24.9,1.3C288.8,265.8,279,265.6,279,265.6z"/>
						</defs>
						<use xlink:href="#SVGID_00000049910356286266671220000008835087077335670956_"  style="overflow:visible;fill:#2B454E;"/>
						<clipPath id="SVGID_00000016763542643306209790000010020157217441443769_">
							<use xlink:href="#SVGID_00000049910356286266671220000008835087077335670956_"  style="overflow:visible;"/>
						</clipPath>
					</g>
					<g>
						<defs>
							<path id="SVGID_00000018959626593363662150000011609901797149141380_" d="M279,265.6c0,0,1.3,4.8,0,8.8s2.5,12.8,2.5,12.8
								s3.5,9.3,4.8,16.1s-1.3,7.8,1.8,18.6s5.3,14.9,6.8,18.1c1.5,3.3,3.5,11.8,3.8,20.9s-1,11.3-1,13.9c0,2.5,2.5,4.5,2.5,4.5
								s4.8,2.3,9.6,4s7.6,1.5,9.1,0.3s1.8-3.5,1.8-3.5s2-2,2.3-5c0.3-3-0.3-11.6-0.8-24.2c-0.5-12.6-3.8-20.7-3.8-32.7
								s5.3-34.3,5.3-42.3c0-8.1,0.5-9.8,0.5-9.8s-14.6,2.8-24.9,1.3C288.8,265.8,279,265.6,279,265.6z"/>
						</defs>
						<use xlink:href="#SVGID_00000018959626593363662150000011609901797149141380_"  style="overflow:visible;fill:#2B454E;"/>
						<clipPath id="SVGID_00000147918402105473280750000002449180342313696133_">
							<use xlink:href="#SVGID_00000018959626593363662150000011609901797149141380_"  style="overflow:visible;"/>
						</clipPath>
					</g>
					<g>
						<path id="XMLID_00000152951661018563903900000006517497998665981356_" class="st10" d="M279,265.6c0,0,1.3,4.8,0,8.8
							s2.5,12.8,2.5,12.8s3.5,9.3,4.8,16.1s-1.3,7.8,1.8,18.6s5.3,14.9,6.8,18.1c1.5,3.3,3.5,11.8,3.8,20.9s-1,11.3-1,13.9
							c0,2.5,2.5,4.5,2.5,4.5s4.8,2.3,9.6,4s7.6,1.5,9.1,0.3s1.8-3.5,1.8-3.5s2-2,2.3-5c0.3-3-0.3-11.6-0.8-24.2
							c-0.5-12.6-3.8-20.7-3.8-32.7s5.3-34.3,5.3-42.3c0-8.1,0.5-9.8,0.5-9.8s-14.6,2.8-24.9,1.3C288.8,265.8,279,265.6,279,265.6z"
							/>
					</g>
				</g>
				<g>
					<g>
						<defs>
							<path id="SVGID_00000058565794798109787510000017888839832222783907_" d="M279,265.6c0,0,1.3,4.8,0,8.8s2.5,12.8,2.5,12.8
								s3.5,9.3,4.8,16.1s-1.3,7.8,1.8,18.6s5.3,14.9,6.8,18.1c1.5,3.3,3.5,11.8,3.8,20.9s-1,11.3-1,13.9c0,2.5,2.5,4.5,2.5,4.5
								s4.8,2.3,9.6,4s7.6,1.5,9.1,0.3s1.8-3.5,1.8-3.5s2-2,2.3-5c0.3-3-0.3-11.6-0.8-24.2c-0.5-12.6-3.8-20.7-3.8-32.7
								s5.3-34.3,5.3-42.3c0-8.1,0.5-9.8,0.5-9.8s-14.6,2.8-24.9,1.3C288.8,265.8,279,265.6,279,265.6z"/>
						</defs>
						<clipPath id="SVGID_00000037672680666110056650000002315567814089942408_">
							<use xlink:href="#SVGID_00000058565794798109787510000017888839832222783907_"  style="overflow:visible;"/>
						</clipPath>
					</g>
					<g>
						<defs>
							<path id="SVGID_00000172406822497120209870000003837161001773607297_" d="M279,265.6c0,0,1.3,4.8,0,8.8s2.5,12.8,2.5,12.8
								s3.5,9.3,4.8,16.1s-1.3,7.8,1.8,18.6s5.3,14.9,6.8,18.1c1.5,3.3,3.5,11.8,3.8,20.9s-1,11.3-1,13.9c0,2.5,2.5,4.5,2.5,4.5
								s4.8,2.3,9.6,4s7.6,1.5,9.1,0.3s1.8-3.5,1.8-3.5s2-2,2.3-5c0.3-3-0.3-11.6-0.8-24.2c-0.5-12.6-3.8-20.7-3.8-32.7
								s5.3-34.3,5.3-42.3c0-8.1,0.5-9.8,0.5-9.8s-14.6,2.8-24.9,1.3C288.8,265.8,279,265.6,279,265.6z"/>
						</defs>
						<clipPath id="SVGID_00000041286966370125053170000016148306139528663724_">
							<use xlink:href="#SVGID_00000172406822497120209870000003837161001773607297_"  style="overflow:visible;"/>
						</clipPath>
					</g>
				</g>
			</g>
			<path class="st9" d="M306.1,314.6c-0.1,2.5-0.1,5-0.1,7c0,7.5,7,17,7.5,27.5s-1,19-1,22s6.5,4.5,3.5,7s-7.5-0.5-7.5-0.5l5.5,4.5"
				/>
			<path class="st9" d="M306.5,301.1c0,0-0.1,3.3-0.3,7.5"/>
		</g>
		<g>
			<g>
				<path id="XMLID_15_" class="st14" d="M288.6,193.8c0,0-0.1,0.4-0.2,1c-0.8,3.3-3.6,13.9-6.5,20.7c-3.5,8.1-3.8,10.1-3,13.9
					s1,7.6,1,7.6s-2,23.7-2,26.9c0,3.3,0.3,4.8,4,6s26.7,3.5,34.3,2.3s8.1-4,8.1-6s-1-37-1.8-55.4s-6.8-24.2-8.3-25.9
					c-1.5-1.8-3-4.3-4.8-4.3S288.6,193.8,288.6,193.8z"/>
			</g>
			<g>
				<defs>
					<path id="SVGID_00000008127693556225578600000009243947238785627839_" d="M288.6,193.8c0,0-0.1,0.4-0.2,1
						c-0.8,3.3-3.6,13.9-6.5,20.7c-3.5,8.1-3.8,10.1-3,13.9s1,7.6,1,7.6s-2,23.7-2,26.9c0,3.3,0.3,4.8,4,6s26.7,3.5,34.3,2.3
						s8.1-4,8.1-6s-1-37-1.8-55.4s-6.8-24.2-8.3-25.9c-1.5-1.8-3-4.3-4.8-4.3S288.6,193.8,288.6,193.8z"/>
				</defs>
				<clipPath id="SVGID_00000083073667089230306810000017086624527417240201_">
					<use xlink:href="#SVGID_00000008127693556225578600000009243947238785627839_"  style="overflow:visible;"/>
				</clipPath>
			</g>
			<g>
				<defs>
					<path id="SVGID_00000114765506517679408080000002799892150585512365_" d="M288.6,193.8c0,0-0.1,0.4-0.2,1
						c-0.8,3.3-3.6,13.9-6.5,20.7c-3.5,8.1-3.8,10.1-3,13.9s1,7.6,1,7.6s-2,23.7-2,26.9c0,3.3,0.3,4.8,4,6s26.7,3.5,34.3,2.3
						s8.1-4,8.1-6s-1-37-1.8-55.4s-6.8-24.2-8.3-25.9c-1.5-1.8-3-4.3-4.8-4.3S288.6,193.8,288.6,193.8z"/>
				</defs>
				<clipPath id="SVGID_00000155148495240896405280000014345240199001699977_">
					<use xlink:href="#SVGID_00000114765506517679408080000002799892150585512365_"  style="overflow:visible;"/>
				</clipPath>
			</g>
			<g>
				<defs>
					<path id="SVGID_00000061430058805121028860000007304267310897177492_" d="M288.6,193.8c0,0-0.1,0.4-0.2,1
						c-0.8,3.3-3.6,13.9-6.5,20.7c-3.5,8.1-3.8,10.1-3,13.9s1,7.6,1,7.6s-2,23.7-2,26.9c0,3.3,0.3,4.8,4,6s26.7,3.5,34.3,2.3
						s8.1-4,8.1-6s-1-37-1.8-55.4s-6.8-24.2-8.3-25.9c-1.5-1.8-3-4.3-4.8-4.3S288.6,193.8,288.6,193.8z"/>
				</defs>
				<clipPath id="SVGID_00000150084223205591702790000018018371340366305713_">
					<use xlink:href="#SVGID_00000061430058805121028860000007304267310897177492_"  style="overflow:visible;"/>
				</clipPath>
			</g>
			<g>
				<path id="XMLID_00000036253575767487246560000007100938855506891663_" class="st9" d="M288.6,193.8c0,0-0.1,0.4-0.2,1
					c-0.8,3.3-3.6,13.9-6.5,20.7c-3.5,8.1-3.8,10.1-3,13.9s1,7.6,1,7.6s-2,23.7-2,26.9c0,3.3,0.3,4.8,4,6s26.7,3.5,34.3,2.3
					s8.1-4,8.1-6s-1-37-1.8-55.4s-6.8-24.2-8.3-25.9c-1.5-1.8-3-4.3-4.8-4.3S288.6,193.8,288.6,193.8z"/>
			</g>
		</g>
		<g>
			<path class="st6" d="M279.6,239c-0.1,1.3-0.3,3.1-0.4,5.2h44.3c-0.1-1.7-0.1-3.4-0.2-5.2H279.6z"/>
			<path class="st6" d="M278.6,251.3c-0.1,1.8-0.3,3.5-0.4,5.2h45.7c0-1.6-0.1-3.3-0.1-5.2L278.6,251.3L278.6,251.3z"/>
			<path class="st6" d="M277.7,263.8c0,2.5,0.1,3.9,1.8,5h43.8c0.7-0.9,0.8-1.9,0.8-2.8c0-0.3,0-1.1,0-2.4h-46.3
				C277.7,263.7,277.7,263.8,277.7,263.8z"/>
			<path class="st6" d="M294.7,189.5c-3.5,2.4-6.2,4.3-6.2,4.3s-0.1,0.3-0.2,0.9h31.3c-0.7-2.1-1.5-3.8-2.2-5.2L294.7,189.5
				L294.7,189.5z"/>
			<path class="st6" d="M278.4,226.6c0,0.9,0.1,1.7,0.3,2.7c0.2,0.8,0.3,1.7,0.4,2.4h43.9c-0.1-1.7-0.1-3.5-0.2-5.2H278.4z"/>
			<path class="st6" d="M286.4,201.9c-0.5,1.6-1,3.4-1.6,5.2h37.2c-0.2-1.9-0.4-3.6-0.6-5.2H286.4z"/>
			<path class="st6" d="M282.3,214.2c-0.2,0.4-0.3,0.8-0.5,1.2c-0.7,1.5-1.2,2.8-1.6,3.9h42.5c-0.1-1.8-0.1-3.5-0.2-5.2L282.3,214.2
				L282.3,214.2z"/>
		</g>
		<polygon class="st6" points="287.6,192 287.8,197.6 311,180.2 308,174.2 		"/>
		<g>
			<rect x="296.4" y="275.2" class="st5" width="26.4" height="19.4"/>
			<g>
				<path class="st5" d="M303.9,197.1c0,0-5.5,4.5-4,10.1s11.3,29,11.3,29l0.5,42.3c0,0-5.3,4.5-6.8,5.8c-1.5,1.3-1,3.5-2.3,5.3
					c-1.3,1.8-3.5,4-2.8,5s2,1,2.8,0.5c0.8-0.5,2.5-2.8,2.5-2.8v4.3c0,0,0.5,2.8,2.5,2c2-0.8,2-2.8,2-2.8s1.8,0.8,4.3-0.5
					c2.5-1.3,3.3-2,3.5-4.3c0.3-2.3,0.3-8.6,0.8-9.8s3.3-16.1,7.1-29.2c3.8-13.1,2.5-22.7,2.5-24.7c0-2-6.8-26.2-9.3-31
					c-2.5-4.8-9.1-2.3-9.1-2.3"/>
				<g>
					<path class="st6" d="M319.3,198l-19.6,7.6c0,0.5,0.1,1,0.2,1.6c0.3,1,0.8,2.5,1.5,4.4l20-7.8
						C320.6,201.5,319.9,199.4,319.3,198z"/>
					<path class="st6" d="M327.9,227.3c0-0.5-0.4-2.3-1.1-4.9l-18.3,7.1c1,2.5,1.9,4.6,2.4,5.7l17.1-6.6
						C327.9,228,327.9,227.6,327.9,227.3z"/>
					<path class="st6" d="M325.1,216c-0.5-1.9-1.1-4-1.7-6l-19.6,7.6c0.7,1.9,1.5,3.8,2.3,5.7L325.1,216z"/>
				</g>
				<path class="st11" d="M325.3,252c3.4-11.7,2.7-20.6,2.6-23.8c-7.3,0.4-13.7,3.4-17.6,5.6c0.6,1.4,1,2.3,1,2.3l0.5,42.3
					c0,0-5.3,4.5-6.8,5.8s-1,3.5-2.3,5.3c-1.3,1.8-3.5,4-2.8,5s2,1,2.8,0.5c0.8-0.5,2.5-2.8,2.5-2.8v4.3c0,0,0.5,2.8,2.5,2
					c2-0.8,2-2.8,2-2.8s1.8,0.8,4.3-0.5c2.5-1.3,3.3-2,3.5-4.3c0.3-2.3,0.3-8.6,0.8-9.8C318.8,279.9,321.6,265.1,325.3,252z"/>
				<polygon class="st15" points="311.7,278.4 318,279.9 319,276.9 312,275.9 				"/>
				<path class="st5" d="M317,278c0,0.9-0.7,1.6-1.6,1.6s-1.6-0.7-1.6-1.6s0.7-1.6,1.6-1.6S317,277.1,317,278z"/>
			</g>
		</g>
	</g>
</g>
<g id="Character_2">
	<g>
		<g>
			<g>
				<g>
					<path id="XMLID_4_" class="st4" d="M211.1,170.4c0,0-2.6,5.1-2.6,7.2s0.5,2.8-0.7,4.4c-1.2,1.6-4.4,3.3-3.5,4.2
						s2.8,2.8,2.8,2.8s0.7,6.3,1.4,8.8c0.7,2.6,1.6,2.8,3.7,2.8s5.8-1.4,5.8-1.4l-0.2,5.8l12.1-0.9v-7.7c0,0,11.6-14.2,13.5-22.3
						s-2.1-12.8-8.6-16.8s-11.2,0-11.2,0s-4-2.6-7.9-2.6s-5.6,2.3-5.6,2.3s-5.8-1.2-8.1,2.8C199.7,163.9,200.1,175.7,211.1,170.4z"
						/>
				</g>
				<g>
					<defs>
						<path id="SVGID_00000129195150968854717220000013769493651013048468_" d="M211.1,170.4c0,0-2.6,5.1-2.6,7.2s0.5,2.8-0.7,4.4
							c-1.2,1.6-4.4,3.3-3.5,4.2s2.8,2.8,2.8,2.8s0.7,6.3,1.4,8.8c0.7,2.6,1.6,2.8,3.7,2.8s5.8-1.4,5.8-1.4l-0.2,5.8l12.1-0.9v-7.7
							c0,0,11.6-14.2,13.5-22.3s-2.1-12.8-8.6-16.8s-11.2,0-11.2,0s-4-2.6-7.9-2.6s-5.6,2.3-5.6,2.3s-5.8-1.2-8.1,2.8
							C199.7,163.9,200.1,175.7,211.1,170.4z"/>
					</defs>
					<clipPath id="SVGID_00000176722458113517191750000000788851985066128021_">
						<use xlink:href="#SVGID_00000129195150968854717220000013769493651013048468_"  style="overflow:visible;"/>
					</clipPath>
				</g>
				<g>
					<defs>
						<path id="SVGID_00000058550654218542607370000002211865202991255992_" d="M211.1,170.4c0,0-2.6,5.1-2.6,7.2s0.5,2.8-0.7,4.4
							c-1.2,1.6-4.4,3.3-3.5,4.2s2.8,2.8,2.8,2.8s0.7,6.3,1.4,8.8c0.7,2.6,1.6,2.8,3.7,2.8s5.8-1.4,5.8-1.4l-0.2,5.8l12.1-0.9v-7.7
							c0,0,11.6-14.2,13.5-22.3s-2.1-12.8-8.6-16.8s-11.2,0-11.2,0s-4-2.6-7.9-2.6s-5.6,2.3-5.6,2.3s-5.8-1.2-8.1,2.8
							C199.7,163.9,200.1,175.7,211.1,170.4z"/>
					</defs>
					<clipPath id="SVGID_00000183971105438900618060000003365193260060619423_">
						<use xlink:href="#SVGID_00000058550654218542607370000002211865202991255992_"  style="overflow:visible;"/>
					</clipPath>
				</g>
				<g>
					<path id="XMLID_00000028314245650309957780000017885602219112151189_" class="st12" d="M211.1,170.4c0,0-2.6,5.1-2.6,7.2
						s0.5,2.8-0.7,4.4c-1.2,1.6-4.4,3.3-3.5,4.2s2.8,2.8,2.8,2.8s0.7,6.3,1.4,8.8c0.7,2.6,1.6,2.8,3.7,2.8s5.8-1.4,5.8-1.4l-0.2,5.8
						l12.1-0.9v-7.7c0,0,11.6-14.2,13.5-22.3s-2.1-12.8-8.6-16.8s-11.2,0-11.2,0s-4-2.6-7.9-2.6s-5.6,2.3-5.6,2.3s-5.8-1.2-8.1,2.8
						C199.7,163.9,200.1,175.7,211.1,170.4z"/>
				</g>
			</g>
			<path class="st9" d="M211.3,182c0,1.9-0.5,3.5-1,3.5s-1-1.6-1-3.5c0-1.9,0.5-3.5,1-3.5C210.9,178.5,211.3,180.1,211.3,182z"/>
			<line class="st9" x1="211.3" y1="182" x2="223.7" y2="182"/>
		</g>
		<g>
			<path class="st6" d="M243.4,174.1c1.9-8.1-2.1-12.8-8.6-16.8c-6.5-4-11.2,0-11.2,0s-4-2.6-7.9-2.6s-5.6,2.3-5.6,2.3
				s-5.8-1.2-8.1,2.8s-1.9,15.8,9.1,10.5l5.4-0.7c0,0-4,3-2.3,4.7c1.6,1.6,6.8,2.8,7.2,3.5c0.5,0.7-1.4,2.6,0.5,4.4
				c1.9,1.9,2.5-0.3,3.7-0.9c3.5-1.9,2.8,4.4,2.8,5.6s-3,2.6-3.7,3c-0.6,0.4,4.3,4.2,6.1,5.6C233.3,192.2,241.9,181,243.4,174.1z"/>
			<path class="st16" d="M214.9,170.1c0,0,3.3-1.7,11.5,0.7c8.3,2.4,8.3,10.4,13,9.8"/>
			<path class="st16" d="M235.8,184.5c0.5,0.2,0.9,0.4,1.3,0.4"/>
			<path class="st16" d="M216,174.2c0,0,4.1-2.8,9.8,1.1c3.6,2.5,6,5.6,8,7.6"/>
			<path class="st16" d="M228.8,185.5c0,0,3.3,2.2,6.7,2"/>
		</g>
		<path class="st5" d="M226.9,201.1c0,0-1.6-0.7-7,0.9s-10.7,6.8-12.1,7.4c-1.4,0.7-4.4,1.9-4.4,1.9l5.1,4.2c0,0,14.2-4.2,17.9-4.7
			c3.7-0.5,9.8-0.7,9.8-0.7l0.5-8.6C236.7,201.6,229.2,201.3,226.9,201.1z"/>
		<g>
			<path class="st4" d="M216.5,381.4c0,0-6.8,3.3-10.1,4.8c-3.3,1.5-6.3,3.3-4.8,5.3s12.6,1.5,19.6,1.5s10.1-1,10.6-2.5
				c0.5-1.5,0-3.5,0-3.5L216.5,381.4z"/>
			<path class="st6" d="M225.1,391.3c-4,0-9.1,0-9.1,0l-2.7-8.3c-1,0.5-2.1,1-3.1,1.5l-1.8,1l2,6.5l-8.8-0.5
				c1.5,2,12.6,1.5,19.6,1.5s10.1-1,10.6-2.5c0.1-0.4,0.2-0.9,0.2-1.3C231.2,389.7,228.4,391.3,225.1,391.3z"/>
		</g>
		<path class="st6" d="M209,276.7c0,0-6.5,29.7-8.1,38.8c-1.5,9.1,0,16.1,2.8,23.2s11.6,31,12.3,33.7c0.8,2.8,1.5,6.5,1.5,6.5
			s-0.3,1.5,1,2.8s8.3,3.3,9.6,2.5c1.3-0.8,1-3.5,1-7.1s-4.8-30.2-4.8-39.8s-5.8-18.6-3.8-23.4s10.8-36.3,11.6-38
			c0.8-1.8-14.9-3.3-18.4-3.3C210.2,272.6,209,276.7,209,276.7z"/>
		<g>
			<g>
				<g>
					<path id="XMLID_00000026131898706811264570000015473443994946510222_" class="st0" d="M240.5,274.9c0,0,0,6.5-1.5,10.6
						s-5.8,11.6-8.1,15.6c-2.3,4-6.5,18.6-6,22.4s4.5,22.4,6.3,28.5s0.5,24.7,0.8,28s1.5,5.5,1,7.3s-0.5,1.8-0.5,1.8s-3,0.8-6.5-1.3
						s-8.8-3.5-9.6-5.3c-0.8-1.8-1.5-3.8-0.8-5c0.8-1.3,1-6,1-6s-4.5-19.9-6.5-33.2s-6.8-24.9-5.8-35.3c1-10.3,0.3-28,0.3-28
						s24.2,0.3,29.5-0.5C239.2,273.6,240.5,274.9,240.5,274.9z"/>
				</g>
			</g>
			<g>
				<defs>
					<path id="SVGID_00000175281829538849687960000013297870548011932074_" d="M240.5,274.9c0,0,0,6.5-1.5,10.6s-5.8,11.6-8.1,15.6
						c-2.3,4-6.5,18.6-6,22.4s4.5,22.4,6.3,28.5s0.5,24.7,0.8,28s1.5,5.5,1,7.3s-0.5,1.8-0.5,1.8s-3,0.8-6.5-1.3s-8.8-3.5-9.6-5.3
						c-0.8-1.8-1.5-3.8-0.8-5c0.8-1.3,1-6,1-6s-4.5-19.9-6.5-33.2s-6.8-24.9-5.8-35.3c1-10.3,0.3-28,0.3-28s24.2,0.3,29.5-0.5
						C239.2,273.6,240.5,274.9,240.5,274.9z"/>
				</defs>
				<clipPath id="SVGID_00000080166031469954637380000017777138933870290064_">
					<use xlink:href="#SVGID_00000175281829538849687960000013297870548011932074_"  style="overflow:visible;"/>
				</clipPath>
				
					<path style="opacity:0.15;clip-path:url(#SVGID_00000080166031469954637380000017777138933870290064_);enable-background:new    ;" d="
					M233.9,274.4c-4.8,0.7-24.8,0.5-28.8,0.5c-0.2,0.3-0.4,0.5-0.7,0.8c0.1,3.5,0.6,18.1-0.3,27.2c-1,10.3,3.8,21.9,5.8,35.3
					s6.5,33.2,6.5,33.2s-0.3,4.8-1,6c-0.8,1.3,0,3.3,0.8,5c0.8,1.8,6,3.3,9.6,5.3s6.5,1.3,6.5,1.3s0,0,0.5-1.8s-0.8-4-1-7.3
					c-0.1-0.9,0-2.7,0-5.2c-3.4-2.9-7.5-6.1-10.1-10.6c-6-10.2-1.5-11.3-0.4-17.8c1.1-6.4-4.9-3.8-4.5-6.4s3.4-8.3,3.4-11.7
					s-7.9,7.9-8.7,3.4c-0.8-4.5,1.9-16.3,1.9-22.3s11.7-20.4,17.4-24.2c5.7-3.8,7.6-9.4,7.6-9.4l-4.1-1.3
					C234.2,274.4,234.1,274.4,233.9,274.4z"/>
			</g>
			<g>
				<path id="XMLID_00000018201848233975378510000000049149224155578525_" class="st9" d="M240.5,274.9c0,0,0,6.5-1.5,10.6
					s-5.8,11.6-8.1,15.6c-2.3,4-6.5,18.6-6,22.4s4.5,22.4,6.3,28.5s0.5,24.7,0.8,28s1.5,5.5,1,7.3s-0.5,1.8-0.5,1.8s-3,0.8-6.5-1.3
					s-8.8-3.5-9.6-5.3c-0.8-1.8-1.5-3.8-0.8-5c0.8-1.3,1-6,1-6s-4.5-19.9-6.5-33.2s-6.8-24.9-5.8-35.3c1-10.3,0.3-28,0.3-28
					s24.2,0.3,29.5-0.5C239.2,273.6,240.5,274.9,240.5,274.9z"/>
			</g>
		</g>
		<g>
			<g>
				<path id="XMLID_6_" class="st14" d="M235.3,208.8c0,0-8.1-0.2-15.8,1.6s-11.6,5.6-13.5,7.4c-1.9,1.9-3.7,9.3-4.2,15.6
					c-0.5,6.3-1.9,25.4-2.3,30.7s-4.4,7.7,4,10.9s35.4,3.7,37.9,0.7c2.6-3,2.3-12.6,2.3-16.1s5.1-20,3.5-30.7
					C245.5,218.3,240.9,208.1,235.3,208.8z"/>
			</g>
			<g>
				<defs>
					<path id="SVGID_00000083806912958626119990000013137914301138431641_" d="M235.3,208.8c0,0-8.1-0.2-15.8,1.6
						s-11.6,5.6-13.5,7.4c-1.9,1.9-3.7,9.3-4.2,15.6c-0.5,6.3-1.9,25.4-2.3,30.7s-4.4,7.7,4,10.9s35.4,3.7,37.9,0.7
						c2.6-3,2.3-12.6,2.3-16.1s5.1-20,3.5-30.7C245.5,218.3,240.9,208.1,235.3,208.8z"/>
				</defs>
				<clipPath id="SVGID_00000061457333952712454010000012122198977770577854_">
					<use xlink:href="#SVGID_00000083806912958626119990000013137914301138431641_"  style="overflow:visible;"/>
				</clipPath>
			</g>
			<g>
				<defs>
					<path id="SVGID_00000021121611955200184580000003395177566955067779_" d="M235.3,208.8c0,0-8.1-0.2-15.8,1.6
						s-11.6,5.6-13.5,7.4c-1.9,1.9-3.7,9.3-4.2,15.6c-0.5,6.3-1.9,25.4-2.3,30.7s-4.4,7.7,4,10.9s35.4,3.7,37.9,0.7
						c2.6-3,2.3-12.6,2.3-16.1s5.1-20,3.5-30.7C245.5,218.3,240.9,208.1,235.3,208.8z"/>
				</defs>
				<clipPath id="SVGID_00000182510147539697595320000014109138105513870749_">
					<use xlink:href="#SVGID_00000021121611955200184580000003395177566955067779_"  style="overflow:visible;"/>
				</clipPath>
			</g>
			<g>
				<path id="XMLID_00000107551639092858320210000018072659167622739130_" class="st9" d="M235.3,208.8c0,0-8.1-0.2-15.8,1.6
					s-11.6,5.6-13.5,7.4c-1.9,1.9-3.7,9.3-4.2,15.6c-0.5,6.3-1.9,25.4-2.3,30.7s-4.4,7.7,4,10.9s35.4,3.7,37.9,0.7
					c2.6-3,2.3-12.6,2.3-16.1s5.1-20,3.5-30.7C245.5,218.3,240.9,208.1,235.3,208.8z"/>
			</g>
		</g>
		<g>
			<path class="st6" d="M241.1,212.5c0,0-9.3,29.6-13.7,37.7c-4.4,8.1-6.3,10.2-6.3,10.2l5.1,0.7c0,0,8.6-13,11.4-19.8
				c2.8-6.8,6.5-22.8,6.5-22.8L241.1,212.5z"/>
			<path class="st6" d="M221.1,260.5l-23.3-15.8c0,0-14.4,23.5-15.1,24.7s-3.7,3.7,0.5,7.7c4.2,4,20.3,16.8,23.3,17.2
				s8.6,0.5,9.8-2.3c1.2-2.8,10-30.7,10-30.7L221.1,260.5z"/>
			<path class="st5" d="M216.2,291.9c1.2-2.8,10-30.7,10-30.7l-5.1-0.7l-14.7,33.8C209.5,294.7,215,294.7,216.2,291.9z"/>
		</g>
		<g>
			<g>
				<path id="XMLID_5_" class="st14" d="M226,212.5c0,0-3-1.6-7.9-0.9s-11.6,5.6-13.7,9.3s-6.5,10-10.2,12.3s-10,8.4-10,12.1
					s2.3,10.9,8.4,11.4s14.9-10.2,16.3-10.7s11.2-3.7,18.2-8.8"/>
			</g>
			<g>
				<defs>
					<path id="SVGID_00000091719066319643286480000001379211139968631427_" d="M226,212.5c0,0-3-1.6-7.9-0.9s-11.6,5.6-13.7,9.3
						s-6.5,10-10.2,12.3s-10,8.4-10,12.1s2.3,10.9,8.4,11.4s14.9-10.2,16.3-10.7s11.2-3.7,18.2-8.8"/>
				</defs>
				<clipPath id="SVGID_00000134215948491692454300000004482374794992788371_">
					<use xlink:href="#SVGID_00000091719066319643286480000001379211139968631427_"  style="overflow:visible;"/>
				</clipPath>
			</g>
			<g>
				<defs>
					<path id="SVGID_00000128471107804375742480000014272650126280038535_" d="M226,212.5c0,0-3-1.6-7.9-0.9s-11.6,5.6-13.7,9.3
						s-6.5,10-10.2,12.3s-10,8.4-10,12.1s2.3,10.9,8.4,11.4s14.9-10.2,16.3-10.7s11.2-3.7,18.2-8.8"/>
				</defs>
				<clipPath id="SVGID_00000060008331117922298640000002452942365847485583_">
					<use xlink:href="#SVGID_00000128471107804375742480000014272650126280038535_"  style="overflow:visible;"/>
				</clipPath>
			</g>
			<g>
				<path id="XMLID_00000057830406211537009170000005227379944902799797_" class="st9" d="M226,212.5c0,0-3-1.6-7.9-0.9
					s-11.6,5.6-13.7,9.3s-6.5,10-10.2,12.3s-10,8.4-10,12.1s2.3,10.9,8.4,11.4s14.9-10.2,16.3-10.7s11.2-3.7,18.2-8.8"/>
			</g>
		</g>
		<path class="st9" d="M210.2,246c0,0,6.5,3.3,17,0.5"/>
	</g>
</g>
<g id="Character_1">
	<g>
		<g>
			<g>
				<g>
					<g>
						<defs>
							<path id="SVGID_00000086692016220441316980000016995316626813520034_" d="M126.2,153.9c0,0-3.5,4.1-3.3,5.9
								c0.2,1.7,1.3,5.5,0.9,6.5c-0.4,1.1-3.7,3.7-3.7,4.8c0,1.1,3.3,1.1,3.3,1.1s0.4,9.8,1.7,10.7c1.3,0.9,9.4,1.5,9.4,1.5l2.2,6.5
								l12.2-6.1l1.3-7.6c0,0,5-11.3,1.5-17.9s-11.1-10.5-17-10.5C128.8,148.9,126.2,153.9,126.2,153.9z"/>
						</defs>
						<clipPath id="SVGID_00000152233204614926985440000017638406327664166571_">
							<use xlink:href="#SVGID_00000086692016220441316980000016995316626813520034_"  style="overflow:visible;"/>
						</clipPath>
					</g>
					<g>
						<defs>
							<path id="SVGID_00000016076856696102971660000015712776154315714964_" d="M126.2,153.9c0,0-3.5,4.1-3.3,5.9
								c0.2,1.7,1.3,5.5,0.9,6.5c-0.4,1.1-3.7,3.7-3.7,4.8c0,1.1,3.3,1.1,3.3,1.1s0.4,9.8,1.7,10.7c1.3,0.9,9.4,1.5,9.4,1.5l2.2,6.5
								l12.2-6.1l1.3-7.6c0,0,5-11.3,1.5-17.9s-11.1-10.5-17-10.5C128.8,148.9,126.2,153.9,126.2,153.9z"/>
						</defs>
						<clipPath id="SVGID_00000063611296200798680300000002132777759493840563_">
							<use xlink:href="#SVGID_00000016076856696102971660000015712776154315714964_"  style="overflow:visible;"/>
						</clipPath>
					</g>
				</g>
				<g>
					<g>
						<path id="XMLID_00000031205604467358630350000003980561630718182534_" class="st18" d="M126.2,153.9c0,0-3.5,4.1-3.3,5.9
							c0.2,1.7,1.3,5.5,0.9,6.5c-0.4,1.1-3.7,3.7-3.7,4.8c0,1.1,3.3,1.1,3.3,1.1s0.4,9.8,1.7,10.7c1.3,0.9,9.4,1.5,9.4,1.5l2.2,6.5
							l12.2-6.1l1.3-7.6c0,0,5-11.3,1.5-17.9s-11.1-10.5-17-10.5C128.8,148.9,126.2,153.9,126.2,153.9z"/>
					</g>
					<g>
						<defs>
							<path id="SVGID_00000170251817229570282010000005676675808327053700_" d="M126.2,153.9c0,0-3.5,4.1-3.3,5.9
								c0.2,1.7,1.3,5.5,0.9,6.5c-0.4,1.1-3.7,3.7-3.7,4.8c0,1.1,3.3,1.1,3.3,1.1s0.4,9.8,1.7,10.7c1.3,0.9,9.4,1.5,9.4,1.5l2.2,6.5
								l12.2-6.1l1.3-7.6c0,0,5-11.3,1.5-17.9s-11.1-10.5-17-10.5C128.8,148.9,126.2,153.9,126.2,153.9z"/>
						</defs>
						<use xlink:href="#SVGID_00000170251817229570282010000005676675808327053700_"  style="overflow:visible;fill:#703D3F;"/>
						<clipPath id="SVGID_00000148626225448525904430000009730609658049140879_">
							<use xlink:href="#SVGID_00000170251817229570282010000005676675808327053700_"  style="overflow:visible;"/>
						</clipPath>
					</g>
					<g>
						<defs>
							<path id="SVGID_00000110457655098087226130000011625387388988946852_" d="M126.2,153.9c0,0-3.5,4.1-3.3,5.9
								c0.2,1.7,1.3,5.5,0.9,6.5c-0.4,1.1-3.7,3.7-3.7,4.8c0,1.1,3.3,1.1,3.3,1.1s0.4,9.8,1.7,10.7c1.3,0.9,9.4,1.5,9.4,1.5l2.2,6.5
								l12.2-6.1l1.3-7.6c0,0,5-11.3,1.5-17.9s-11.1-10.5-17-10.5C128.8,148.9,126.2,153.9,126.2,153.9z"/>
						</defs>
						<use xlink:href="#SVGID_00000110457655098087226130000011625387388988946852_"  style="overflow:visible;fill:#703D3F;"/>
						<clipPath id="SVGID_00000051383613606304970290000009864098767093898129_">
							<use xlink:href="#SVGID_00000110457655098087226130000011625387388988946852_"  style="overflow:visible;"/>
						</clipPath>
					</g>
					<g>
						<path id="XMLID_00000059287307657412757330000015936075550176192678_" class="st18" d="M126.2,153.9c0,0-3.5,4.1-3.3,5.9
							c0.2,1.7,1.3,5.5,0.9,6.5c-0.4,1.1-3.7,3.7-3.7,4.8c0,1.1,3.3,1.1,3.3,1.1s0.4,9.8,1.7,10.7c1.3,0.9,9.4,1.5,9.4,1.5l2.2,6.5
							l12.2-6.1l1.3-7.6c0,0,5-11.3,1.5-17.9s-11.1-10.5-17-10.5C128.8,148.9,126.2,153.9,126.2,153.9z"/>
					</g>
				</g>
				<g>
					<g>
						<defs>
							<path id="SVGID_00000089558361839921453090000005617129209894390153_" d="M126.2,153.9c0,0-3.5,4.1-3.3,5.9
								c0.2,1.7,1.3,5.5,0.9,6.5c-0.4,1.1-3.7,3.7-3.7,4.8c0,1.1,3.3,1.1,3.3,1.1s0.4,9.8,1.7,10.7c1.3,0.9,9.4,1.5,9.4,1.5l2.2,6.5
								l12.2-6.1l1.3-7.6c0,0,5-11.3,1.5-17.9s-11.1-10.5-17-10.5C128.8,148.9,126.2,153.9,126.2,153.9z"/>
						</defs>
						<clipPath id="SVGID_00000003825677447496529070000012087633980765344643_">
							<use xlink:href="#SVGID_00000089558361839921453090000005617129209894390153_"  style="overflow:visible;"/>
						</clipPath>
					</g>
					<g>
						<defs>
							<path id="SVGID_00000023275611513176429270000006446363674605940380_" d="M126.2,153.9c0,0-3.5,4.1-3.3,5.9
								c0.2,1.7,1.3,5.5,0.9,6.5c-0.4,1.1-3.7,3.7-3.7,4.8c0,1.1,3.3,1.1,3.3,1.1s0.4,9.8,1.7,10.7c1.3,0.9,9.4,1.5,9.4,1.5l2.2,6.5
								l12.2-6.1l1.3-7.6c0,0,5-11.3,1.5-17.9s-11.1-10.5-17-10.5C128.8,148.9,126.2,153.9,126.2,153.9z"/>
						</defs>
						<clipPath id="SVGID_00000096764003074959331450000011514907713198064283_">
							<use xlink:href="#SVGID_00000023275611513176429270000006446363674605940380_"  style="overflow:visible;"/>
						</clipPath>
					</g>
				</g>
			</g>
			<path d="M128.5,165.4c0,0.9-0.4,1.6-0.8,1.6c-0.4,0-0.8-0.7-0.8-1.6s0.4-1.6,0.8-1.6S128.5,164.6,128.5,165.4z"/>
			<path class="st9" d="M125.3,161.2c0,0,2.8-1.4,4.6,0.4"/>
		</g>
		<g>
			<path class="st5" d="M140.1,379.8c0,0-2.7,3.1-9.4,4.7c-6.7,1.6-3.5,5.9-1.6,6.7c2,0.8,20.8,0.4,24.7-0.8s3.1-3.9,3.1-7.5
				C156.9,379.4,140.1,379.8,140.1,379.8z"/>
			<path class="st9" d="M153.8,390.4c1.7-0.5,2.5-1.3,2.9-2.4c-12,2.5-24.8,1.6-29.8,1c0.5,1,1.4,1.8,2.2,2.1
				C131,392,149.9,391.6,153.8,390.4z"/>
		</g>
		<g>
			<path class="st6" d="M122.4,263.7c0,0-0.8,20.8,2,40.8s10.2,40.4,12.6,51s2,22,2,22s-1.6,1.6-0.8,3.1c0.8,1.6,0.8,2.4,3.9,3.5
				c3.1,1.2,10.6,3.9,14.5,3.1s4.3-5.1,5.1-9.8c0.8-4.7,1.6-32.6-1.6-45.1c-3.1-12.6-3.9-27.9-2-36.9c2-9,4.3-10.6,5.5-16.5
				s0.7-16,0.7-16S132.2,271.1,122.4,263.7z"/>
			<path class="st16" d="M138.7,282.4c0,0,0.6,37.8,5.3,45.8c4.7,8.1,5.3,21.9,4.7,30.8c-0.6,8.9,0,20.8,0,20.8s-1.7,2.2-1.1,4.2"/>
			<line class="st16" x1="138.5" y1="274.9" x2="138.5" y2="279.1"/>
		</g>
		<g>
			<path class="st6" d="M127.9,140.6c0,0,1.5,4.1-0.4,4.8c-2,0.7-6.3-1.5-7,2.6c-0.7,4.1,3.9,6.8,6.8,6.8c2.8,0,5.9-1.7,6.8,0.9
				c0.9,2.6-3.3,5.5-1.3,7s4.8,2.2,5.5,3.1c0.7,0.9-0.4,4.6,0.4,4.8c0.9,0.2,3.9,1.1,3.9-0.4c0-1.5-1.7-4.1,0.9-4.1
				c2.6,0,4.8,1.3,4.4,5.2s-4.4,4.8-3.9,5.9c0.4,1.1,4.1,3.3,5.5,3.3s4.1-8.1,7.4-15.3s3.7-15.1-0.7-19.6s-10.7-4.4-12-4.4
				c-1.3,0,3.3-3.9-2.2-6.1C136.4,132.7,126.8,132.1,127.9,140.6z"/>
			<path class="st16" d="M154.5,157.4c0.9,0.7,1.6,1.4,2,2"/>
			<path class="st16" d="M130,152.1c0,0,4.1,3.9,9.3,2c3.3-1.2,8.6,0,12.5,1.8"/>
			<path class="st16" d="M142.6,162.6c2.3,0.1,4.8,0.1,6.7-0.1c4.8-0.4,5,3,4.8,5.2"/>
			<path class="st16" d="M136.8,162.3c0,0,1.4,0.1,3.3,0.2"/>
		</g>
		<g>
			<g>
				<g>
					<path id="XMLID_2_" class="st19" d="M134.7,195.3c0,0-13.5,10.5-15.1,18.5c-1.5,8.1-0.2,44.9-0.2,49.3s5.2,7.4,12,8.5
						c6.8,1.1,26.2-0.2,29-1.7c2.8-1.5,3.9-3.5,3.9-7c0-3.5,0.2-10.7,0-11.6c-0.2-0.9,0-32.1-3.7-44.7s-5-16.6-10.7-17.7
						C144.3,187.9,134.7,195.3,134.7,195.3z"/>
				</g>
				<g>
					<defs>
						<path id="SVGID_00000028327531602061731420000005345165519165627284_" d="M134.7,195.3c0,0-13.5,10.5-15.1,18.5
							c-1.5,8.1-0.2,44.9-0.2,49.3s5.2,7.4,12,8.5c6.8,1.1,26.2-0.2,29-1.7c2.8-1.5,3.9-3.5,3.9-7c0-3.5,0.2-10.7,0-11.6
							c-0.2-0.9,0-32.1-3.7-44.7s-5-16.6-10.7-17.7C144.3,187.9,134.7,195.3,134.7,195.3z"/>
					</defs>
					<clipPath id="SVGID_00000049906190447137526240000004368816257940592778_">
						<use xlink:href="#SVGID_00000028327531602061731420000005345165519165627284_"  style="overflow:visible;"/>
					</clipPath>
				</g>
				<g>
					<defs>
						<path id="SVGID_00000116952118570117560650000006932204634943340945_" d="M134.7,195.3c0,0-13.5,10.5-15.1,18.5
							c-1.5,8.1-0.2,44.9-0.2,49.3s5.2,7.4,12,8.5c6.8,1.1,26.2-0.2,29-1.7c2.8-1.5,3.9-3.5,3.9-7c0-3.5,0.2-10.7,0-11.6
							c-0.2-0.9,0-32.1-3.7-44.7s-5-16.6-10.7-17.7C144.3,187.9,134.7,195.3,134.7,195.3z"/>
					</defs>
					<clipPath id="SVGID_00000020399186102687316080000011370801659360029586_">
						<use xlink:href="#SVGID_00000116952118570117560650000006932204634943340945_"  style="overflow:visible;"/>
					</clipPath>
				</g>
				<g>
					<path id="XMLID_00000178927421379317927420000004778161926382971566_" class="st9" d="M134.7,195.3c0,0-13.5,10.5-15.1,18.5
						c-1.5,8.1-0.2,44.9-0.2,49.3s5.2,7.4,12,8.5c6.8,1.1,26.2-0.2,29-1.7c2.8-1.5,3.9-3.5,3.9-7c0-3.5,0.2-10.7,0-11.6
						c-0.2-0.9,0-32.1-3.7-44.7s-5-16.6-10.7-17.7C144.3,187.9,134.7,195.3,134.7,195.3z"/>
				</g>
			</g>
			<path class="st5" d="M137.3,227.9c0,0,9,0,14.1-2.7"/>
			<path class="st9" d="M135.1,228.9c0,0,5.6,6.9,18.6,9.2"/>
			<path class="st9" d="M153.2,255.7c1.6,1,3.2,1.8,5,2.6"/>
			<path class="st9" d="M136.5,239.1c0,0,4.4,7.3,12.4,13.6"/>
		</g>
		<path class="st5" d="M132.5,190.1l-0.4,7.6c0,0,10-3.9,12.6-5.9c2.6-2,8.1-2.6,8.1-2.6l-0.7-7.4c0,0-5-0.4-7.9,1.1
			C141.4,184.4,132.5,190.1,132.5,190.1z"/>
		<g>
			<g>
				<g>
					<path id="XMLID_1_" class="st19" d="M149.9,206c0,0-5.5-7.1-12.9-6.7c-7.5,0.4-17.3,16.9-21.2,22c-3.9,5.1-12.6,11.4-13.3,18.8
						c-0.8,7.5,4.7,11.4,9.8,10.2s22.4-20.4,25.1-22.4c2.7-2,9-3.9,11.8-9"/>
				</g>
				<g>
					<defs>
						<path id="SVGID_00000103946224116112773170000016852548056251579067_" d="M149.9,206c0,0-5.5-7.1-12.9-6.7
							c-7.5,0.4-17.3,16.9-21.2,22c-3.9,5.1-12.6,11.4-13.3,18.8c-0.8,7.5,4.7,11.4,9.8,10.2s22.4-20.4,25.1-22.4
							c2.7-2,9-3.9,11.8-9"/>
					</defs>
					<clipPath id="SVGID_00000050662013268726858390000013700303304145485717_">
						<use xlink:href="#SVGID_00000103946224116112773170000016852548056251579067_"  style="overflow:visible;"/>
					</clipPath>
				</g>
				<g>
					<defs>
						<path id="SVGID_00000032646645846162418830000001379270590940532893_" d="M149.9,206c0,0-5.5-7.1-12.9-6.7
							c-7.5,0.4-17.3,16.9-21.2,22c-3.9,5.1-12.6,11.4-13.3,18.8c-0.8,7.5,4.7,11.4,9.8,10.2s22.4-20.4,25.1-22.4
							c2.7-2,9-3.9,11.8-9"/>
					</defs>
					<clipPath id="SVGID_00000030462794532118810250000005660817103176165533_">
						<use xlink:href="#SVGID_00000032646645846162418830000001379270590940532893_"  style="overflow:visible;"/>
					</clipPath>
				</g>
				<g>
					<path id="XMLID_00000155846200242525241410000003020508141962428802_" class="st9" d="M149.9,206c0,0-5.5-7.1-12.9-6.7
						c-7.5,0.4-17.3,16.9-21.2,22c-3.9,5.1-12.6,11.4-13.3,18.8c-0.8,7.5,4.7,11.4,9.8,10.2s22.4-20.4,25.1-22.4c2.7-2,9-3.9,11.8-9
						"/>
				</g>
			</g>
			<g>
				<path class="st18" d="M111.2,225.6c0,0-3.9-0.7-4.7,0.4c-0.9,1.1-2.4,5.4-0.6,5.4C107.6,231.3,111.2,225.6,111.2,225.6z"/>
				<path class="st18" d="M113.6,223.4c0,0-3.9-0.7-4.7,0.4c-0.9,1.1-2.4,5.4-0.6,5.4C109.9,229.2,113.6,223.4,113.6,223.4z"/>
				<path class="st18" d="M115.7,221.3c0,0-3.9-0.7-4.7,0.4c-0.9,1.1-2.4,5.4-0.6,5.4C112.1,227,115.7,221.3,115.7,221.3z"/>
			</g>
		</g>
		<path class="st5" d="M161.8,273.3c0,0-4.4,1.1-10,1.1"/>
	</g>
</g>
<g id="Fence">
	<g>
		<g>
			<path class="st6" d="M81.7,395.3H72V259.4c0-1.3,1-2.3,2.3-2.3h5.2c1.3,0,2.3,1,2.3,2.3L81.7,395.3L81.7,395.3z"/>
			<path class="st6" d="M99.5,396.8c0,2.1-10.2,3.7-22.7,3.7s-22.7-1.7-22.7-3.7s10.2-4.7,22.7-4.7S99.5,394.7,99.5,396.8z"/>
		</g>
		<g>
			<path class="st6" d="M257.4,395.3h-9.8V259.4c0-1.3,1-2.3,2.3-2.3h5.2c1.3,0,2.3,1,2.3,2.3L257.4,395.3L257.4,395.3z"/>
			<path class="st6" d="M275.2,396.8c0,2.1-10.1,3.7-22.7,3.7c-12.5,0-22.7-1.7-22.7-3.7s10.1-4.7,22.7-4.7S275.2,394.7,275.2,396.8
				z"/>
		</g>
		<g>
			<path class="st6" d="M433,395.3h-9.8V259.4c0-1.3,1-2.3,2.3-2.3h5.2c1.3,0,2.3,1,2.3,2.3L433,395.3L433,395.3z"/>
			<path class="st6" d="M450.8,396.8c0,2.1-10.1,3.7-22.7,3.7s-22.7-1.7-22.7-3.7s10.1-4.7,22.7-4.7S450.8,394.7,450.8,396.8z"/>
		</g>
		<rect x="78.9" y="263.9" class="st6" width="347.8" height="8.6"/>
	</g>
</g>
</svg>
